<svg width="50" height="50" viewBox="0 0 50 50" fill="none" xmlns="http://www.w3.org/2000/svg">
<g clip-path="url(#clip0_345_262)">
<path d="M19.4102 46.6666H4.96606C2.5214 46.6666 0.521484 44.6667 0.521484 42.222V7.77783C0.521484 5.33317 2.5214 3.33325 4.96606 3.33325H40.5215C42.9657 3.33325 44.9661 5.33317 44.9661 7.77783V18.8887H42.7436V7.77783C42.7436 6.5555 41.7438 5.55534 40.5215 5.55534H4.96606C3.74373 5.55534 2.74357 6.5555 2.74357 7.77783V42.222C2.74357 43.4443 3.74373 44.4445 4.96606 44.4445H19.4102V46.6666Z" fill="#FF8761"/>
<path d="M33.8535 0H36.0756V8.88875H33.8535V0Z" fill="#FF8761"/>
<path d="M9.41016 0H11.6326V8.88875H9.41016V0Z" fill="#FF8761"/>
<path d="M1.63281 14.4446H43.8549V16.6667H1.63281V14.4446Z" fill="#FF8761"/>
<path d="M34.9661 50.0001C27.0075 50.0001 20.5215 43.5141 20.5215 35.5555C20.5215 27.5973 27.0075 21.1113 34.9661 21.1113C42.9242 21.1113 49.4102 27.5973 49.4102 35.5555C49.4102 43.5141 42.9242 50.0001 34.9661 50.0001ZM34.9661 23.3334C28.2298 23.3334 22.7436 28.8197 22.7436 35.5555C22.7436 42.2917 28.2298 47.778 34.9661 47.778C41.7019 47.778 47.1882 42.2917 47.1882 35.5555C47.1882 28.8197 41.7019 23.3334 34.9661 23.3334Z" fill="#FF8761"/>
<path d="M40.4091 42.5696L33.8535 36.014V25.5554H36.0756V35.0972L41.9785 41.0002L40.4091 42.5696Z" fill="#FF8761"/>
</g>
<defs>
<clipPath id="clip0_345_262">
<rect width="50" height="50" fill="white"/>
</clipPath>
</defs>
</svg>
