<svg width="45" height="53" viewBox="0 0 45 53" fill="none" xmlns="http://www.w3.org/2000/svg">
<path d="M19.935 24.2522C15.3351 18.6844 12.24 13.3082 12.24 9.39998C12.24 5.97998 15.66 0.849976 22.5 0.849976C29.34 0.849976 32.76 5.97998 32.76 9.39998C32.76 18.805 14.805 36.76 1.125 45.31C3.07369 48.5317 6.10405 50.956 9.675 52.15C20.5814 42.922 33.957 25.462 34.4555 15.9245C34.4727 15.5984 34.4407 15.2715 34.3606 14.9549L32.5582 7.87979" stroke="#FF8761" stroke-width="1.5" stroke-linecap="round" stroke-linejoin="round"/>
<path d="M25.065 41.8353C28.2158 45.5312 31.6459 48.9796 35.325 52.15C38.896 50.956 41.9263 48.5318 43.875 45.31C39.0285 42.2092 34.4522 38.7049 30.195 34.8345" stroke="#FF8761" stroke-width="1.5" stroke-linecap="round" stroke-linejoin="round"/>
<path d="M12.4418 7.87976L10.6394 14.9575C10.5593 15.274 10.5273 15.6009 10.5445 15.927C10.7309 19.4847 12.7085 24.1444 15.6805 29.0675" stroke="#FF8761" stroke-width="1.5" stroke-linecap="round" stroke-linejoin="round"/>
<path d="M16.008 10.5157C17.9079 9.18635 20.1817 8.49612 22.5 8.54497C24.8179 8.49487 27.0915 9.18359 28.992 10.5115" stroke="#FF8761" stroke-width="1.5" stroke-linecap="round" stroke-linejoin="round"/>
</svg>
