<svg width="70" height="70" viewBox="0 0 70 70" fill="none" xmlns="http://www.w3.org/2000/svg">
<g clip-path="url(#clip0_345_369)">
<path d="M48.6973 38.0436H51.7411V62.3911H48.6973V38.0436Z" fill="#FF8761"/>
<path d="M38.0449 48.6954H62.3924V51.7393H38.0449V48.6954Z" fill="#FF8761"/>
<path d="M50.2183 70.0002C39.3191 70.0002 30.4355 61.1166 30.4355 50.2174C30.4355 39.3182 39.3191 30.4346 50.2183 30.4346C61.1176 30.4346 70.0011 39.3182 70.0011 50.2174C70.0011 61.1166 61.1176 70.0002 50.2183 70.0002ZM50.2183 33.4785C40.9926 33.4785 33.4794 40.9917 33.4794 50.2174C33.4794 59.4431 40.9926 66.9563 50.2183 66.9563C59.4441 66.9563 66.9573 59.4431 66.9573 50.2174C66.9573 40.9917 59.4441 33.4785 50.2183 33.4785Z" fill="#FF8761"/>
<path d="M27.3934 30.4346C19.0047 30.4346 12.1758 23.6057 12.1758 15.2176C12.1758 6.82888 19.0047 0 27.3934 0C35.7821 0 42.6109 6.82888 42.6109 15.2176C42.6109 23.6057 35.7821 30.4346 27.3934 30.4346ZM27.3934 3.04329C20.6787 3.04329 15.2196 8.50294 15.2196 15.2176C15.2196 21.9322 20.6787 27.3913 27.3934 27.3913C34.108 27.3913 39.5671 21.9322 39.5671 15.2176C39.5671 8.50294 34.108 3.04329 27.3934 3.04329Z" fill="#FF8761"/>
<path d="M35.3804 62.3911H0V60.8698C0 45.7664 12.288 33.4785 27.3913 33.4785C31.1195 33.4785 34.7334 34.2202 38.1384 35.6658L36.9403 38.4622C33.9159 37.1687 30.701 36.5217 27.3913 36.5217C14.4753 36.5217 3.88032 46.6224 3.08175 59.3478H35.3804V62.3911Z" fill="#FF8761"/>
</g>
<defs>
<clipPath id="clip0_345_369">
<rect width="70" height="70" fill="white"/>
</clipPath>
</defs>
</svg>
