<svg width="70" height="70" viewBox="0 0 70 70" fill="none" xmlns="http://www.w3.org/2000/svg">
<g clip-path="url(#clip0_350_761)">
<path d="M27.0152 70.0001C14.894 70.0001 5.04297 60.1491 5.04297 48.0278C5.04297 44.3656 5.95866 40.7404 7.69777 37.554L27.0152 1.88606L46.3509 37.591C48.0718 40.7769 48.9875 44.3839 48.9875 48.0278C48.9875 60.1491 39.1365 70.0001 27.0152 70.0001ZM27.0152 8.03841L10.2796 38.946C8.75991 41.7108 7.97243 44.8602 7.97243 48.0278C7.97243 58.5194 16.5232 67.0701 27.0152 67.0701C37.5068 67.0701 46.0581 58.5194 46.0581 48.0278C46.0581 44.8602 45.2706 41.729 43.7691 38.9825L27.0152 8.03841Z" fill="#FF8761"/>
<path d="M54.8477 31.9145C49.1894 31.9145 44.5938 27.3189 44.5938 21.6611C44.5938 19.9579 45.0148 18.2553 45.8388 16.7721L54.8477 -3.05176e-05L63.8742 16.7903C64.6799 18.2735 65.101 19.9579 65.101 21.6611C65.101 27.3189 60.5054 31.9145 54.8477 31.9145ZM54.8477 6.18879L48.4024 18.1636C47.8161 19.2257 47.5232 20.4343 47.5232 21.6611C47.5232 25.7074 50.8008 28.985 54.8477 28.985C58.894 28.985 62.1716 25.7074 62.1716 21.6611C62.1716 20.4525 61.8604 19.2439 61.2924 18.1818L54.8477 6.18879Z" fill="#FF8761"/>
</g>
<defs>
<clipPath id="clip0_350_761">
<rect width="70" height="70" fill="white"/>
</clipPath>
</defs>
</svg>
