<svg width="71" height="70" viewBox="0 0 71 70" fill="none" xmlns="http://www.w3.org/2000/svg">
<path d="M16.5136 60.9002L13.4414 60.453L19.0412 21.9918C19.7026 17.4419 23.6691 14 28.2771 14H42.8217C47.4303 14 51.3968 17.4419 52.0582 21.9918L57.658 60.453L54.5858 60.9002L48.9854 22.439C48.5382 19.4055 45.8939 17.1109 42.8217 17.1109H28.2771C25.2049 17.1109 22.5605 19.4055 22.1134 22.439L16.5136 60.9002Z" fill="#FF8761"/>
<path d="M66.6599 70H4.4375V68.4442C4.4375 63.2916 8.61825 59.1109 13.7708 59.1109H57.3266C62.4792 59.1109 66.6599 63.2916 66.6599 68.4442V70ZM7.74325 66.8891H63.3542C62.654 64.2054 60.2239 62.2224 57.3266 62.2224H13.7708C10.8735 62.2224 8.44279 64.2054 7.74325 66.8891Z" fill="#FF8761"/>
<path d="M33.9922 0H37.1031V9.33333H33.9922V0Z" fill="#FF8761"/>
<path d="M50.9433 2.62728L53.1433 4.82731L46.5985 11.3716L44.3984 9.17212L50.9433 2.62728Z" fill="#FF8761"/>
<path d="M20.1532 2.62728L26.698 9.17212L24.498 11.3722L17.9531 4.82731L20.1532 2.62728Z" fill="#FF8761"/>
</svg>
