<svg width="50" height="50" viewBox="0 0 50 50" fill="none" xmlns="http://www.w3.org/2000/svg">
<path d="M33.1324 0L34.6937 1.56128L30.098 6.15698L28.5371 4.5957L33.1324 0Z" fill="#FF8761"/>
<path d="M21.1252 30.5846L6.84323 16.3027C5.3806 14.84 4.56641 12.8806 4.56641 10.8107C4.56641 8.74088 5.3806 6.7814 6.84323 5.31877L9.86553 2.29688L11.4248 3.85613L8.40249 6.87802C7.35382 7.92669 6.77451 9.3206 6.77451 10.8107C6.77451 12.3013 7.35382 13.6948 8.40249 14.7434L21.1252 27.4661L33.8478 14.7434C34.8965 13.6948 35.4762 12.3013 35.4762 10.8107C35.4762 9.3206 34.8965 7.92669 33.8478 6.87802L30.8259 3.85613L32.3852 2.29688L35.4071 5.31877C36.8701 6.7814 37.6839 8.74088 37.6839 10.8107C37.6839 12.8806 36.8701 14.84 35.4071 16.3027L21.1252 30.5846Z" fill="#FF8761"/>
<path d="M9.11792 0L13.7136 4.5957L12.1523 6.15698L7.55664 1.56128L9.11792 0Z" fill="#FF8761"/>
<path d="M37.6842 42.2726C33.4204 42.2726 29.957 38.8092 29.957 34.545C29.957 30.2812 33.4204 26.8179 37.6842 26.8179C41.9484 26.8179 45.4117 30.2812 45.4117 34.545C45.4117 38.8092 41.9484 42.2726 37.6842 42.2726ZM37.6842 29.0256C34.6348 29.0256 32.1647 31.4956 32.1647 34.545C32.1647 37.5948 34.6348 40.0649 37.6842 40.0649C40.734 40.0649 43.204 37.5948 43.204 34.545C43.204 31.4956 40.734 29.0256 37.6842 29.0256Z" fill="#FF8761"/>
<path d="M34.3721 49.9999H24.4369C22.0085 49.9999 20.0215 48.013 20.0215 45.5841V29.0254H22.2292V45.5841C22.2292 46.7986 23.2229 47.7918 24.4369 47.7918H34.3721C34.9656 47.7918 35.5174 47.5574 35.9314 47.1434C36.3454 46.7294 36.5802 46.1776 36.5802 45.5841V41.1683H38.7879V45.5841C38.7879 46.7569 38.3327 47.8747 37.4911 48.7027C36.649 49.5306 35.5591 49.9999 34.3721 49.9999Z" fill="#FF8761"/>
<path d="M38.7858 33.4412H36.5781V35.6489H38.7858V33.4412Z" fill="#FF8761"/>
</svg>
