<svg width="75" height="80" viewBox="0 0 75 80" fill="none" xmlns="http://www.w3.org/2000/svg">
<path d="M23.6594 56.1649V79.1666C23.6594 79.6268 24.0322 80 24.4928 80C24.9534 80 25.3262 79.6268 25.3262 79.1666V71.5807C33.176 68.1723 41.253 68.1743 49.3543 71.5869V79.1666C49.3543 79.6268 49.7271 80 50.1877 80C50.6483 80 51.0211 79.6268 51.0211 79.1666C51.0211 74.8736 51.0211 61.4039 51.0211 56.1675C59.1148 56.8156 66.6045 52.5048 69.8437 44.7579C69.8437 44.7571 69.8446 44.7562 69.8446 44.7554C73.5606 35.788 78.0562 4.67048 67.9564 0.462099C61.3877 -2.27977 50.759 7.72899 43.0111 17.8988V12.3079C43.0111 9.18553 40.4613 6.64544 37.3272 6.64544C34.2052 6.64544 31.6653 9.18553 31.6653 12.3079V17.8782C23.9232 7.71519 13.3081 -2.28891 6.72082 0.462265C-3.41078 4.68328 1.11907 35.7946 4.85307 44.7567C8.07879 52.5078 15.55 56.8083 23.6594 56.1649ZM25.3262 69.771V63.7673C33.176 60.3591 41.253 60.3613 49.3543 63.7735V69.7851C41.2615 66.5473 33.1898 66.5424 25.3262 69.771ZM49.3543 61.9719C41.2615 58.734 33.1898 58.7292 25.3262 61.9578V55.9632C30.1589 55.146 34.4795 52.4885 37.3483 48.465C40.2178 52.488 44.5349 55.1433 49.3541 55.9631V61.9719H49.3543ZM7.36291 2.00041C13.0541 -0.378447 24.037 10.1235 31.8232 20.8865C32.0364 21.1799 32.4141 21.3029 32.755 21.1909C33.0992 21.0798 33.3321 20.7595 33.3321 20.3982V12.3079C33.3321 10.1049 35.1242 8.31224 37.3272 8.31224C39.5425 8.31224 41.3444 10.1047 41.3444 12.3079V20.4195C41.3444 20.7808 41.5771 21.1011 41.9215 21.2121C42.2618 21.324 42.6409 21.2003 42.8533 20.9078C50.646 10.1373 61.6256 -0.371964 67.3144 2.00041C75.3943 5.36692 72.3196 34.4282 68.3057 44.115C62.8586 57.1444 45.1343 58.0479 38.059 46.5203C37.9068 46.2736 37.6384 46.1232 37.3486 46.1232C37.0589 46.1232 36.7895 46.2738 36.6381 46.5208C29.6172 57.961 11.8492 57.229 6.39139 44.1158C2.65738 35.152 -1.05984 5.5092 7.36291 2.00041Z" fill="#FF8761"/>
<path d="M12.4926 20.1415C12.526 20.1415 12.56 20.1412 12.5934 20.1399C14.0754 20.0829 15.3516 18.7824 15.3809 17.2999C15.3898 16.8397 15.0235 16.4592 14.5637 16.4503C14.5581 16.4503 14.5523 16.4503 14.5475 16.4503C14.0942 16.4503 13.723 16.8128 13.7141 17.2674C13.7026 17.8647 13.1273 18.4511 12.53 18.4739C11.9269 18.4995 11.3124 17.9558 11.2554 17.3614C11.2115 16.9032 10.7948 16.5688 10.3464 16.6118C9.88814 16.6562 9.55205 17.0634 9.59676 17.5217C9.73605 18.9639 11.0496 20.1415 12.4926 20.1415Z" fill="#FF8761"/>
<path d="M10.7126 33.2738C12.0043 32.4888 12.5455 30.7305 11.9187 29.3543C11.7274 28.9351 11.2342 28.7504 10.8144 28.9413C10.396 29.1321 10.2113 29.6266 10.4018 30.0452C10.6809 30.6572 10.4214 31.5005 9.84682 31.8495C9.27222 32.1982 8.40475 32.0411 7.98954 31.5126C7.70631 31.1509 7.18058 31.0869 6.81923 31.3713C6.45705 31.6554 6.39355 32.1794 6.67761 32.5413C7.61373 33.7344 9.42397 34.057 10.7126 33.2738Z" fill="#FF8761"/>
<path d="M14.6606 41.5804C14.9397 42.1924 14.6802 43.0356 14.1056 43.3847C13.531 43.7337 12.6627 43.5763 12.2483 43.0477C11.9643 42.6861 11.4402 42.6226 11.078 42.9065C10.7158 43.1905 10.6523 43.7146 10.9364 44.0764C11.8745 45.2714 13.6861 45.5902 14.9714 44.809C16.2631 44.0233 16.8043 42.2649 16.1775 40.8895C15.9862 40.4699 15.4913 40.2864 15.0731 40.4764C14.6549 40.6672 14.4701 41.1615 14.6606 41.5804Z" fill="#FF8761"/>
<path d="M27.0974 30.1055C28.3891 29.3198 28.9302 27.5614 28.3034 26.186C28.1121 25.7668 27.6173 25.5821 27.1991 25.7729C26.7808 25.9637 26.5961 26.4582 26.7866 26.8769C27.0656 27.4889 26.8062 28.3321 26.2316 28.6812C25.657 29.0299 24.7895 28.8728 24.3743 28.3443C24.0902 27.9821 23.5653 27.9191 23.204 28.203C22.8418 28.487 22.7783 29.0111 23.0624 29.373C23.9985 30.566 25.8089 30.8888 27.0974 30.1055Z" fill="#FF8761"/>
<path d="M27.9698 39.7175C27.5514 39.9083 27.3667 40.4028 27.5572 40.8215C27.8363 41.4335 27.5768 42.2767 27.0022 42.6262C26.4268 42.9769 25.561 42.8179 25.1458 42.2893C24.8617 41.9271 24.3385 41.8636 23.9755 42.1474C23.6133 42.4314 23.5498 42.9552 23.8339 43.3173C24.7718 44.5134 26.5821 44.8331 27.8681 44.0502C29.1597 43.2645 29.7009 41.5061 29.0741 40.1307C28.883 39.7113 28.389 39.527 27.9698 39.7175Z" fill="#FF8761"/>
<path d="M62.0846 18.9965C63.5756 19.051 64.9393 17.8477 65.0811 16.3783C65.1258 15.9201 64.7898 15.5128 64.3315 15.4685C63.8806 15.4269 63.4664 15.7598 63.4225 16.2181C63.3646 16.813 62.7551 17.346 62.1479 17.3311C61.5506 17.3078 60.9751 16.7216 60.9638 16.1242C60.9549 15.6696 60.5837 15.3071 60.1304 15.3071C60.1256 15.3071 60.1198 15.3071 60.1141 15.3071C59.6544 15.316 59.2881 15.6965 59.297 16.1568C59.3265 17.6389 60.6025 18.9395 62.0846 18.9965Z" fill="#FF8761"/>
<path d="M64.2758 28.9017C64.4663 28.483 64.2815 27.9886 63.8633 27.7977C63.4432 27.6069 62.9492 27.7921 62.7589 28.2108C62.1323 29.5862 62.6735 31.3446 63.965 32.1303C65.2548 32.9143 67.0645 32.5895 68 31.3978C68.2841 31.0361 68.2206 30.5119 67.8584 30.2278C67.497 29.9434 66.9721 30.0069 66.6881 30.3691C66.2739 30.8973 65.4071 31.056 64.8308 30.706C64.2562 30.3569 63.9966 29.5137 64.2758 28.9017Z" fill="#FF8761"/>
<path d="M59.7073 43.6654C60.9933 44.4471 62.8048 44.1268 63.7423 42.9325C64.0264 42.5709 63.9629 42.0466 63.6007 41.7626C63.2393 41.4785 62.7136 41.5417 62.4304 41.9038C62.0162 42.4329 61.1454 42.59 60.5731 42.2413C59.9985 41.892 59.7389 41.049 60.0181 40.437C60.2086 40.0183 60.0237 39.5238 59.6055 39.333C59.1855 39.1425 58.6924 39.3273 58.5012 39.746C57.8744 41.1213 58.4156 42.8797 59.7073 43.6654Z" fill="#FF8761"/>
<path d="M47.5803 28.962C48.8638 29.7423 50.6757 29.4261 51.6153 28.2292C51.8994 27.867 51.8359 27.3433 51.4737 27.0592C51.1124 26.7743 50.5875 26.8392 50.3034 27.2005C49.8884 27.7291 49.0207 27.887 48.4461 27.5379C47.8715 27.1887 47.6119 26.3457 47.8911 25.7337C48.0816 25.315 47.8968 24.8205 47.4786 24.6297C47.0586 24.4389 46.5646 24.6235 46.3743 25.0427C45.7475 26.418 46.2887 28.1762 47.5803 28.962Z" fill="#FF8761"/>
<path d="M37.1117 29.4543C38.8116 29.4543 40.2231 27.9185 40.2133 26.3117C40.2108 25.8531 39.8381 25.4832 39.3799 25.4832C39.3782 25.4832 39.3765 25.4832 39.375 25.4832C38.9145 25.486 38.5441 25.8611 38.5465 26.3214C38.5504 26.9884 37.9679 27.6662 37.2997 27.7724C36.6486 27.8795 35.9535 27.4254 35.7989 26.8112C35.6866 26.3653 35.2381 26.0963 34.7865 26.2069C34.3406 26.3195 34.0703 26.7725 34.1827 27.2189C34.5123 28.5245 35.7722 29.4543 37.1117 29.4543Z" fill="#FF8761"/>
<path d="M37.5618 40.1305C39.0333 39.8962 40.2222 38.5025 40.2133 37.0236C40.2108 36.5651 39.8381 36.1951 39.3799 36.1951C39.3782 36.1951 39.3765 36.1951 39.375 36.1951C38.9145 36.1979 38.5441 36.573 38.5465 37.0333C38.5504 37.6998 37.9679 38.3781 37.2997 38.4843C36.6486 38.5909 35.9535 38.1373 35.7989 37.5228C35.6866 37.0763 35.2381 36.8066 34.7865 36.9184C34.3406 37.0311 34.0703 37.4841 34.1827 37.9305C34.5497 39.3844 36.0689 40.3699 37.5618 40.1305Z" fill="#FF8761"/>
<path d="M46.8088 42.9065C48.098 43.69 49.9086 43.3665 50.843 42.1731C51.1271 41.8109 51.0636 41.2869 50.7014 41.0031C50.3384 40.7187 49.8152 40.7826 49.5311 41.1451C49.1169 41.6736 48.2509 41.8324 47.6746 41.482C47.1 41.1328 46.8404 40.2897 47.1197 39.6777C47.3101 39.2591 47.1253 38.7646 46.7071 38.5737C46.2879 38.3829 45.7939 38.5684 45.6028 38.9868C44.976 40.3624 45.5172 42.1208 46.8088 42.9065Z" fill="#FF8761"/>
</svg>
