<svg width="50" height="50" viewBox="0 0 50 50" fill="none" xmlns="http://www.w3.org/2000/svg">
<path d="M30.8516 14.6277H43.6175V16.7552H30.8516V14.6277Z" fill="#FF8761"/>
<path d="M36.1699 9.30859H38.2975V22.0746H36.1699V9.30859Z" fill="#FF8761"/>
<path d="M37.2347 32.5265L28.538 25.0399C25.9449 22.5933 24.4688 19.2023 24.4688 15.6917C24.4688 8.65698 30.2003 2.92578 37.2347 2.92578C44.2695 2.92578 50.0007 8.65698 50.0007 15.6917C50.0007 19.2023 48.5249 22.5933 45.9716 25.0001L37.2347 32.5265ZM37.2347 5.05331C31.3707 5.05331 26.5967 9.8273 26.5967 15.6917C26.5967 18.6569 27.7935 21.4229 29.9607 23.4441L37.2347 29.7075L44.5488 23.4176C46.6763 21.4097 47.8731 18.6569 47.8731 15.6917C47.8731 9.8273 43.0991 5.05331 37.2347 5.05331Z" fill="#FF8761"/>
<path d="M0 47.1409V11.9679L15.9442 8.11182L26.516 10.5187L26.0505 12.5932L15.9707 10.306L2.12753 13.6435V44.4415L15.9442 41.0903L30.8377 44.4812L44.6809 41.1437V23.7233H46.8084V42.8193L30.8642 46.6754L15.9707 43.2844L0 47.1409Z" fill="#FF8761"/>
<path d="M14.8926 9.21558H17.0205V42.194H14.8926V9.21558Z" fill="#FF8761"/>
<path d="M29.7871 25.625H31.9146V45.5851H29.7871V25.625Z" fill="#FF8761"/>
</svg>
