<svg width="20" height="20" viewBox="0 0 20 20" fill="none" xmlns="http://www.w3.org/2000/svg">
<g clip-path="url(#clip0_11_335)">
<path d="M1.01851 4.90616L1.7685 4.9019C1.76836 4.87764 1.76705 4.8534 1.76456 4.82926L1.01851 4.90616ZM15.0994 18.9815L15.1762 18.2354C15.1521 18.233 15.1279 18.2316 15.1036 18.2315L15.0994 18.9815ZM5.05557 8.00004L4.93718 7.25944C4.69726 7.29779 4.49079 7.44999 4.38317 7.66782C4.27554 7.88565 4.28011 8.14212 4.39542 8.35598L5.05557 8.00004ZM12.0043 14.946L11.6486 15.6063C11.8624 15.7215 12.1188 15.726 12.3366 15.6184C12.5543 15.5108 12.7065 15.3043 12.7449 15.0645L12.0043 14.946ZM2.55533 2.60203C3.6293 1.52849 5.37066 1.52849 6.44463 2.60203L7.50507 1.54117C5.84537 -0.11789 3.15458 -0.11789 1.49488 1.54117L2.55533 2.60203ZM6.44463 2.60203C7.51843 3.67542 7.51843 5.4156 6.44463 6.48898L7.50507 7.54985C9.16495 5.89063 9.16495 3.20039 7.50507 1.54117L6.44463 2.60203ZM13.5155 13.5579C14.5895 12.4844 16.3308 12.4844 17.4048 13.5579L18.4653 12.497C16.8055 10.838 14.1148 10.838 12.4551 12.497L13.5155 13.5579ZM17.4048 13.5579C18.4786 14.6313 18.4786 16.3715 17.4048 17.4449L18.4653 18.5057C20.1251 16.8465 20.1251 14.1563 18.4653 12.497L17.4048 13.5579ZM6.09087 13.9107C3.26502 11.086 1.78433 7.69148 1.7685 4.9019L0.268519 4.91041C0.287084 8.18131 1.99289 11.9352 5.03041 14.9716L6.09087 13.9107ZM1.76456 4.82926C1.68248 4.03286 1.94642 3.21071 2.55533 2.60203L1.49488 1.54117C0.553173 2.4825 0.146055 3.75662 0.272459 4.98305L1.76456 4.82926ZM17.4048 17.4449C16.7959 18.0536 15.9732 18.3175 15.1762 18.2354L15.0225 19.7275C16.2491 19.8539 17.5236 19.447 18.4653 18.5057L17.4048 17.4449ZM15.1036 18.2315C12.3127 18.2157 8.91669 16.7354 6.09087 13.9107L5.03041 14.9716C8.06795 18.0079 11.8232 19.7129 15.0951 19.7315L15.1036 18.2315ZM6.44463 6.48898C6.01842 6.91502 5.48911 7.17121 4.93718 7.25944L5.17396 8.74063C6.02735 8.60421 6.84801 8.20665 7.50507 7.54985L6.44463 6.48898ZM8.56573 11.4368C7.37778 10.2493 6.42282 8.95553 5.71573 7.6441L4.39542 8.35598C5.17381 9.79966 6.2174 11.2103 7.50529 12.4977L8.56573 11.4368ZM12.7449 15.0645C12.8331 14.513 13.0893 13.9839 13.5155 13.5579L12.4551 12.497C11.798 13.1539 11.4002 13.9743 11.2637 14.8275L12.7449 15.0645ZM12.36 14.2857C11.048 13.5789 9.75368 12.6243 8.56573 11.4368L7.50529 12.4977C8.79317 13.785 10.2044 14.8282 11.6486 15.6063L12.36 14.2857Z" fill="#FF8761"/>
</g>
<defs>
<clipPath id="clip0_11_335">
<rect width="20" height="20" fill="white"/>
</clipPath>
</defs>
</svg>
