<svg width="22" height="22" viewBox="0 0 22 22" fill="none" xmlns="http://www.w3.org/2000/svg">
<path d="M5.53536 18.5256L5.69334 18.5486L5.71634 18.3906L7.37661 6.98732C7.37661 6.98728 7.37662 6.98725 7.37662 6.98722C7.49775 6.16587 8.21483 5.54394 9.04618 5.54394H13.3586C14.1899 5.54394 14.907 6.16585 15.0282 6.98716C15.0282 6.98721 15.0282 6.98727 15.0282 6.98732L16.6886 18.3906L16.7116 18.5486L16.8696 18.5256L17.7805 18.393L17.9385 18.37L17.9155 18.2121L16.2552 6.80848C16.0477 5.38111 14.8045 4.30226 13.3586 4.30226H9.04618C7.60049 4.30226 6.35726 5.38112 6.14978 6.80848L4.48947 18.2121L4.46647 18.37L4.62446 18.393L5.53536 18.5256Z" fill="white" stroke="white" stroke-width="0.319303"/>
<path d="M20.4282 21.2256H20.5878V21.066V20.6047C20.5878 18.9888 19.2768 17.6778 17.6609 17.6778H4.74679C3.13089 17.6778 1.81984 18.9888 1.81984 20.6047V21.066V21.2256H1.97949H20.4282ZM19.2278 19.9839H3.17979C3.42881 19.3601 4.03639 18.9196 4.74679 18.9196H17.6609C18.3713 18.9196 18.9787 19.3601 19.2278 19.9839Z" fill="white" stroke="white" stroke-width="0.319303"/>
<path d="M10.7422 0.151383H10.5825V0.311035V3.07833V3.23798H10.7422H11.6646H11.8242V3.07833V0.311035V0.151383H11.6646H10.7422Z" fill="white" stroke="white" stroke-width="0.319303"/>
<path d="M15.8806 0.977441L15.7677 0.86455L15.6548 0.977441L13.7143 2.91796L13.6014 3.03087L13.7143 3.14376L14.3666 3.79589L14.4795 3.90875L14.5923 3.79588L16.5329 1.85553L16.6458 1.74264L16.5329 1.62974L15.8806 0.977441Z" fill="white" stroke="white" stroke-width="0.319303"/>
<path d="M6.7525 0.977441L6.63961 0.86455L6.52671 0.977441L5.87441 1.62974L5.76152 1.74263L5.87441 1.85552L7.81493 3.79604L7.92782 3.90893L8.04071 3.79604L8.69302 3.14374L8.80591 3.03085L8.69302 2.91796L6.7525 0.977441Z" fill="white" stroke="white" stroke-width="0.319303"/>
</svg>
