<svg width="61" height="78" viewBox="0 0 61 78" fill="none" xmlns="http://www.w3.org/2000/svg">
<path d="M8.27211 58.5009C20.2363 74.2816 47.5641 81.0259 54.9573 76.0187C63.9762 69.9067 61.6005 32.4972 44.9113 20.6676C46.6151 19.0114 48.5699 17.6026 50.7634 16.5066C51.9857 15.9083 52.5791 14.5111 52.1465 13.2644C51.7273 12.0206 51.3068 10.7934 50.8874 9.56921C50.4218 8.19983 48.934 7.41593 47.5634 7.89155C46.7887 8.15577 46.033 8.45452 45.2874 8.77077C40.0716 -3.10157 21.5977 -2.70704 14.624 11.8244C13.1504 14.8237 12.2273 18.4681 11.9459 22.3395C11.4187 22.8009 10.9038 23.2716 10.4216 23.7648C9.61883 22.4872 8.62414 20.357 8.11086 18.0316C7.8793 16.8673 6.83774 16.0783 5.70227 16.1864C4.71399 16.2512 3.74164 16.3319 2.75461 16.4131C2.75211 16.4131 2.62633 16.4234 2.62383 16.4234C1.34461 16.5408 0.419298 17.6406 0.530548 18.8595C0.875079 23.2064 2.34289 27.6325 5.1107 31.6717C1.35367 40.26 2.24539 50.5466 8.27211 58.5009ZM50.5923 29.3672C47.3307 29.243 43.688 29.6106 40.1627 30.5553C39.6019 30.7033 39.0579 30.1847 39.2399 29.6386C40.1109 26.9969 41.608 24.3436 43.6268 22.0305C46.5146 24.0311 48.746 26.4739 50.5923 29.3672ZM48.174 9.66687C48.5552 9.53577 48.9749 9.77749 49.1102 10.1753C49.5294 11.3995 49.9488 12.623 50.3704 13.8717C50.4969 14.2366 50.3148 14.635 49.931 14.8233C43.749 17.9136 39.4138 23.1164 37.4577 29.0475C36.7896 31.052 38.7044 32.9039 40.6554 32.3667C44.3032 31.3886 48.054 31.0448 51.7649 31.3266C58.6802 43.858 61.0194 69.6422 53.9037 74.4639C48.3741 78.2133 27.8835 73.395 16.481 64.1119C16.4024 47.7848 24.7843 46.3566 27.056 35.1355C27.5651 33.045 27.9443 31.1851 28.5857 29.168C31.9465 19.7031 39.2549 12.7084 48.174 9.66687ZM32.9382 17.8544C29.6932 21.5969 27.9691 24.9105 26.5129 29.3812C25.1046 26.0547 24.4495 21.9047 25.1849 17.9891C27.7387 17.5419 30.3794 17.4959 32.9382 17.8544ZM25.6959 16.0395C25.8151 15.6908 25.9174 15.3283 26.0638 15.0017C28.7735 8.95702 35.793 8.58452 38.1209 12.9489C36.8288 13.9403 35.6021 15.0311 34.4459 16.2233C31.5823 15.678 28.602 15.6247 25.6959 16.0395ZM16.3132 12.6439C22.6135 -0.488446 39.0738 -0.846104 43.5813 9.5478C42.213 10.2212 40.688 11.122 39.6652 11.8153C36.4741 6.37874 27.6802 6.80733 24.3507 14.2344C21.9287 19.6369 22.9423 27.0973 25.7454 32.1025C24.2168 38.5858 24.5254 38.8294 20.7374 44.318C13.2791 36.2212 11.801 21.8283 16.3132 12.6439ZM2.40133 18.7006C2.37633 18.4353 2.6082 18.3105 2.90914 18.2837C5.04648 18.1083 6.01727 18.0558 5.88852 18.0558C6.06945 18.0558 6.23024 18.1981 6.27352 18.417C6.92508 21.3701 8.18649 23.8528 9.11914 25.2059C7.94383 26.5853 6.66336 28.5555 6.04992 29.6919C3.96836 26.3584 2.70742 22.5662 2.40133 18.7006ZM11.863 24.9705C11.8905 33.5341 15.0118 41.0814 19.6813 45.945C16.5316 51.0816 14.8549 56.9592 14.6202 62.5156C12.6663 60.7597 11.0082 59.002 9.7682 57.3666C2.2357 47.4247 3.33117 33.5948 11.863 24.9705ZM44.7465 70.1064C44.7465 69.5881 45.167 69.1676 45.6852 69.1676C47.2462 69.1676 48.4941 68.8731 49.1994 68.3389C51.4443 66.6375 52.1721 60.7336 51.0537 53.2975C50.9766 52.7853 51.3299 52.3069 51.8427 52.2298C52.3518 52.1473 52.8334 52.5055 52.9104 53.0189C54.1669 61.3736 53.2038 67.66 50.3337 69.8352C49.0141 70.8356 47.0774 71.0453 45.6851 71.0453C45.167 71.0452 44.7465 70.6247 44.7465 70.1064Z" fill="#FF8761"/>
</svg>
