<svg width="65" height="76" viewBox="0 0 65 76" fill="none" xmlns="http://www.w3.org/2000/svg">
<path d="M30.3464 4.40486C31.0667 8.63658 32.2865 12.7656 34.7229 16.3439C35.4184 17.3627 35.515 18.6669 34.9809 19.8319C32.5656 25.1075 33.2722 31.2222 36.8187 35.7803C40.5148 40.663 35.4218 54.9674 20.8367 50.3572C17.6122 49.3378 13.9568 48.1833 10.1217 50.0431C3.60091 52.4159 0.271847 58.8128 0.511066 65.7508C0.601534 68.1203 1.09841 70.6456 2.03044 73.4711C2.60966 75.2281 4.59607 76.0777 6.27747 75.3278L9.5045 73.8897C10.9567 73.2413 11.6889 71.6009 11.2078 70.0742C10.6473 68.2952 10.3503 66.7647 10.2984 65.3994C10.1778 61.8717 12.2045 58.205 14.6939 60.1714C17.4772 62.3716 20.6742 64.0345 24.2029 65.1164C37.7659 69.1678 51.1056 63.5161 58.8659 52.0888C63.2351 45.5166 65.1506 38.1402 64.7918 31.1294C64.3097 27.3988 65.4987 22.2458 61.3051 16.8256C57.9272 12.4558 52.4273 10.2147 46.9598 10.9694C44.8295 11.2688 43.8503 10.1483 43.1364 8.66955C42.392 7.16002 41.8223 5.2922 41.3939 2.95877C41.1048 1.38627 39.6918 0.302047 38.0906 0.405953L33.214 0.761578C31.3697 0.895797 30.0368 2.58861 30.3464 4.40486ZM33.3509 2.63423L38.2275 2.27861C38.8717 2.23158 39.432 2.67033 39.547 3.29798C40.0072 5.80439 40.6306 7.83283 41.4489 9.4933C42.7686 12.2145 44.8098 13.1578 47.2164 12.8297C52.022 12.1666 56.852 14.1352 59.8198 17.9739C63.5593 22.8085 62.434 27.3378 62.9165 31.2209C63.279 38.3133 61.1614 45.245 57.3073 51.0417C49.9562 61.867 37.4297 67.1105 24.7468 63.3188C21.4948 62.3219 18.4206 60.7244 15.8581 58.6983C12.7073 56.2056 8.19872 58.9375 8.422 65.4669C8.48013 67.0052 8.80575 68.6963 9.417 70.6374C9.61138 71.2547 9.31982 71.9153 8.73982 72.1744L5.51278 73.6125C4.85388 73.9088 4.04763 73.5925 3.81372 72.8828C2.92513 70.19 2.47216 67.9006 2.38732 65.682C2.17419 59.4988 5.03263 53.9006 10.8514 51.7706C14.0426 50.2275 16.9481 51.0977 20.2706 52.147C36.5101 57.278 43.1748 41.0672 38.3079 34.6372C35.1854 30.6236 34.5645 25.2503 36.6878 20.6139C37.4983 18.8452 37.3436 16.8528 36.274 15.2858C34.0058 11.957 32.8708 8.04689 32.197 4.08986C32.072 3.35486 32.6159 2.68767 33.3509 2.63423ZM50.2258 17.5425C50.3467 17.0389 50.8572 16.7285 51.3576 16.8494C55.7503 17.9064 58.5381 21.5931 58.7986 25.6533C58.8315 26.1703 58.4392 26.617 57.9215 26.6502C57.9014 26.6514 57.8812 26.652 57.8611 26.652C57.3697 26.652 56.9565 26.27 56.9248 25.7731C56.7172 22.5239 54.4976 19.5363 50.9189 18.6744C50.4147 18.5533 50.1042 18.0461 50.2258 17.5425Z" fill="#FF8761"/>
</svg>
