<svg width="54" height="59" viewBox="0 0 54 59" fill="none" xmlns="http://www.w3.org/2000/svg">
<path d="M32.6204 11.7416L21.3101 18.3063C21.0018 18.4853 20.9657 18.9175 21.2292 19.1576C24.7945 22.4066 25.7004 25.9192 25.8253 28.0356C25.851 28.4714 26.3607 28.7509 26.7184 28.5007C31.0262 25.4864 38.3876 20.7168 39.2821 21.6751C40.4825 22.9612 46.5701 27.677 50.7714 22.704C55.9946 16.5214 50.4795 11.957 47.461 10.7753C47.2047 10.6749 47.0528 10.4061 47.1057 10.1359C47.7295 6.95391 47.1755 1.33746 40.3967 1.01156C33.4987 0.679926 32.3249 7.56368 32.875 11.1972C32.9079 11.414 32.8101 11.6315 32.6204 11.7416Z" stroke="#FF8761" stroke-width="1.5"/>
<path d="M25.2106 29.8083C22.5695 24.8725 16.8058 25.0418 13.9866 25.8035C13.8256 25.847 13.6998 25.9704 13.6468 26.1285L8.84622 40.4475C8.79134 40.6112 8.64991 40.7381 8.4838 40.7852C-4.80971 44.5537 1.81891 58.8888 11.2812 54.7401C11.4656 54.6593 11.6961 54.6907 11.8524 54.8177C24.412 65.0215 28.6768 47.6978 21.4915 44.5755C21.2357 44.4643 21.0827 44.1834 21.1623 43.9161L25.2479 30.1884C25.2854 30.0623 25.2727 29.9243 25.2106 29.8083Z" stroke="#FF8761" stroke-width="1.5"/>
<path d="M37.9102 5.96408C40.2253 4.69618 43.7406 4.86768 42.8832 9.82242" stroke="#FF8761" stroke-width="1.5" stroke-linecap="round"/>
<path d="M16.475 53.7422C17.4753 54.2567 20.9335 54.7711 21.5337 50.9128" stroke="#FF8761" stroke-width="1.5" stroke-linecap="round"/>
</svg>
