<svg width="60" height="59" viewBox="0 0 60 59" fill="none" xmlns="http://www.w3.org/2000/svg">
<mask id="path-1-outside-1_333_447" maskUnits="userSpaceOnUse" x="0" y="0" width="60" height="59" fill="black">
<rect fill="white" width="60" height="59"/>
<path d="M59.0289 45.7576C58.8578 35.2121 54.946 13.8368 41.3086 8.25209C40.8181 8.02027 40.2778 7.91332 39.736 7.94077C39.1941 7.96822 38.6675 8.12923 38.2029 8.40945C36.3119 9.63516 35.2794 12.9755 34.835 19.4767C33.9139 18.2212 33.3821 16.7227 33.3056 15.1674C33.1134 10.7703 33.25 6.36502 33.7142 1.98829C33.7312 1.87409 33.725 1.75764 33.6958 1.64593C33.6666 1.53421 33.6152 1.42956 33.5445 1.33826C33.4738 1.24696 33.3854 1.1709 33.2846 1.11466C33.1838 1.05843 33.0726 1.02318 32.9578 1.01103C32.8432 0.992365 32.726 0.997429 32.6135 1.02591C32.501 1.05439 32.3955 1.10568 32.3036 1.1766C32.2118 1.24751 32.1354 1.33655 32.0794 1.43819C32.0233 1.53982 31.9887 1.65189 31.9778 1.76744C31.4807 6.23883 31.3376 10.7425 31.5499 15.2364C31.7299 17.9339 32.9443 20.4577 34.9399 22.2815C34.9544 22.2956 34.964 22.314 34.9675 22.3339C37.7112 24.7771 40.8768 26.7004 44.3094 28.0097C44.4155 28.0603 44.5314 28.0867 44.6489 28.087C44.8527 28.0864 45.0499 28.0154 45.2073 27.8859C45.3647 27.7565 45.4725 27.5767 45.5124 27.3769C45.5524 27.1771 45.5221 26.9696 45.4266 26.7896C45.3311 26.6097 45.1763 26.4682 44.9885 26.3893C41.8935 25.2015 39.0216 23.499 36.4941 21.3539C36.8199 14.6733 37.706 10.8084 39.1553 9.89741C39.3805 9.7665 39.6353 9.69525 39.8957 9.69042C40.1561 9.68558 40.4134 9.74733 40.6433 9.86981C52.5139 14.7506 57.0854 34.0113 57.2676 45.7797C57.3725 52.5653 56.1634 55.5937 55.3104 55.9608C53.4718 56.789 50.0266 55.8283 46.5151 53.5564C41.8221 50.5197 36.3368 44.4464 36.3368 37.3792V33.8291C36.3368 32.3936 36.3368 30.9829 36.3368 29.575C37.118 29.9918 37.8744 30.4363 38.6032 30.8532C39.7108 31.5519 40.8615 32.1799 42.0484 32.7331C42.2633 32.8287 42.5074 32.8349 42.7269 32.7506C42.9464 32.6662 43.1234 32.498 43.2189 32.2831C43.3145 32.0683 43.3208 31.8242 43.2364 31.6047C43.152 31.3852 42.9838 31.2082 42.769 31.1126C41.6386 30.5952 40.5439 30.0031 39.4921 29.3403C38.3465 28.6612 37.118 27.9297 35.8509 27.3306C35.826 27.3306 35.8012 27.303 35.7736 27.303C34.0187 26.3765 32.0803 25.8504 30.0978 25.7626C28.0512 25.8531 26.052 26.4071 24.2508 27.3831H24.226C22.9892 27.9821 21.8132 28.6861 20.6897 29.3403C19.6394 30.0042 18.5456 30.5963 17.4156 31.1126C17.2032 31.2124 17.0381 31.3912 16.9556 31.6108C16.8731 31.8305 16.8796 32.0737 16.9739 32.2887C17.0709 32.4994 17.2465 32.6639 17.4631 32.7469C17.6798 32.8299 17.9203 32.825 18.1333 32.7331C19.3194 32.1781 20.47 31.5503 21.5786 30.8532C22.2687 30.4611 22.9754 30.0443 23.6904 29.6523C23.7033 31.062 23.7033 32.4709 23.6904 33.8788V37.3792C23.6904 44.4491 18.2106 50.5307 13.5148 53.5564C10.0034 55.8283 6.55812 56.7945 4.73336 55.9608C3.8831 55.5937 2.65739 52.5653 2.76229 45.7797C2.93897 34.0113 7.52433 14.7506 19.3866 9.86981C19.6163 9.74682 19.8737 9.68478 20.1342 9.68961C20.3947 9.69445 20.6496 9.76599 20.8746 9.89741C22.335 10.836 23.2349 14.7506 23.5496 21.5637C21.0754 23.6082 18.2859 25.2378 15.2899 26.3893C15.1021 26.4682 14.9473 26.6097 14.8518 26.7896C14.7563 26.9696 14.726 27.1771 14.766 27.3769C14.8059 27.5767 14.9137 27.7565 15.0711 27.8859C15.2285 28.0154 15.4257 28.0864 15.6295 28.087C15.7504 28.0852 15.8696 28.0589 15.9801 28.0097C19.3097 26.7363 22.3889 24.886 25.0763 22.5437L25.1039 22.5161C27.2296 20.6646 28.5374 18.048 28.7423 15.2364C28.9392 10.746 28.7952 6.24713 28.3117 1.77848C28.2988 1.66226 28.2627 1.54981 28.2055 1.44782C28.1483 1.34584 28.0712 1.25639 27.9787 1.1848C27.8863 1.1132 27.7804 1.06093 27.6673 1.03108C27.5543 1.00123 27.4364 0.99441 27.3206 1.01103C27.2069 1.02366 27.0969 1.0588 26.9969 1.11442C26.897 1.17003 26.8091 1.245 26.7384 1.33494C26.6678 1.42489 26.6157 1.52801 26.5853 1.63829C26.5549 1.74857 26.5468 1.86379 26.5615 1.97724C27.0286 6.35375 27.1688 10.759 26.9811 15.1564C26.8827 16.8352 26.2621 18.4413 25.206 19.75C24.7864 13.0693 23.7456 9.62411 21.827 8.39841C21.3647 8.11223 20.8375 7.94772 20.2944 7.92021C19.7514 7.89269 19.2102 8.00307 18.7213 8.24105C5.08396 13.8368 1.17219 35.2121 1.00655 45.7576C0.954098 48.8854 1.15286 56.3004 4.01009 57.5758C4.71985 57.8737 5.485 58.0168 6.25446 57.9954C9.21168 57.7773 12.0537 56.7581 14.4755 55.0471C19.7704 51.6018 25.4462 45.1558 25.4379 37.3792C25.4379 36.228 25.4379 35.0796 25.4379 33.8788C25.4379 32.1838 25.4379 30.4611 25.4379 28.7385C26.8833 28.0056 28.4679 27.5878 30.0867 27.5128C31.6492 27.5841 33.1789 27.9848 34.5755 28.6888V33.8318V37.382C34.5755 45.1586 40.243 51.6046 45.5378 55.0498C47.9597 56.7608 50.8017 57.7801 53.7589 57.9982C54.5327 58.0181 55.3021 57.8752 56.0171 57.5785C58.8716 56.3004 59.0703 48.8854 59.0289 45.7576Z"/>
</mask>
<path d="M59.0289 45.7576C58.8578 35.2121 54.946 13.8368 41.3086 8.25209C40.8181 8.02027 40.2778 7.91332 39.736 7.94077C39.1941 7.96822 38.6675 8.12923 38.2029 8.40945C36.3119 9.63516 35.2794 12.9755 34.835 19.4767C33.9139 18.2212 33.3821 16.7227 33.3056 15.1674C33.1134 10.7703 33.25 6.36502 33.7142 1.98829C33.7312 1.87409 33.725 1.75764 33.6958 1.64593C33.6666 1.53421 33.6152 1.42956 33.5445 1.33826C33.4738 1.24696 33.3854 1.1709 33.2846 1.11466C33.1838 1.05843 33.0726 1.02318 32.9578 1.01103C32.8432 0.992365 32.726 0.997429 32.6135 1.02591C32.501 1.05439 32.3955 1.10568 32.3036 1.1766C32.2118 1.24751 32.1354 1.33655 32.0794 1.43819C32.0233 1.53982 31.9887 1.65189 31.9778 1.76744C31.4807 6.23883 31.3376 10.7425 31.5499 15.2364C31.7299 17.9339 32.9443 20.4577 34.9399 22.2815C34.9544 22.2956 34.964 22.314 34.9675 22.3339C37.7112 24.7771 40.8768 26.7004 44.3094 28.0097C44.4155 28.0603 44.5314 28.0867 44.6489 28.087C44.8527 28.0864 45.0499 28.0154 45.2073 27.8859C45.3647 27.7565 45.4725 27.5767 45.5124 27.3769C45.5524 27.1771 45.5221 26.9696 45.4266 26.7896C45.3311 26.6097 45.1763 26.4682 44.9885 26.3893C41.8935 25.2015 39.0216 23.499 36.4941 21.3539C36.8199 14.6733 37.706 10.8084 39.1553 9.89741C39.3805 9.7665 39.6353 9.69525 39.8957 9.69042C40.1561 9.68558 40.4134 9.74733 40.6433 9.86981C52.5139 14.7506 57.0854 34.0113 57.2676 45.7797C57.3725 52.5653 56.1634 55.5937 55.3104 55.9608C53.4718 56.789 50.0266 55.8283 46.5151 53.5564C41.8221 50.5197 36.3368 44.4464 36.3368 37.3792V33.8291C36.3368 32.3936 36.3368 30.9829 36.3368 29.575C37.118 29.9918 37.8744 30.4363 38.6032 30.8532C39.7108 31.5519 40.8615 32.1799 42.0484 32.7331C42.2633 32.8287 42.5074 32.8349 42.7269 32.7506C42.9464 32.6662 43.1234 32.498 43.2189 32.2831C43.3145 32.0683 43.3208 31.8242 43.2364 31.6047C43.152 31.3852 42.9838 31.2082 42.769 31.1126C41.6386 30.5952 40.5439 30.0031 39.4921 29.3403C38.3465 28.6612 37.118 27.9297 35.8509 27.3306C35.826 27.3306 35.8012 27.303 35.7736 27.303C34.0187 26.3765 32.0803 25.8504 30.0978 25.7626C28.0512 25.8531 26.052 26.4071 24.2508 27.3831H24.226C22.9892 27.9821 21.8132 28.6861 20.6897 29.3403C19.6394 30.0042 18.5456 30.5963 17.4156 31.1126C17.2032 31.2124 17.0381 31.3912 16.9556 31.6108C16.8731 31.8305 16.8796 32.0737 16.9739 32.2887C17.0709 32.4994 17.2465 32.6639 17.4631 32.7469C17.6798 32.8299 17.9203 32.825 18.1333 32.7331C19.3194 32.1781 20.47 31.5503 21.5786 30.8532C22.2687 30.4611 22.9754 30.0443 23.6904 29.6523C23.7033 31.062 23.7033 32.4709 23.6904 33.8788V37.3792C23.6904 44.4491 18.2106 50.5307 13.5148 53.5564C10.0034 55.8283 6.55812 56.7945 4.73336 55.9608C3.8831 55.5937 2.65739 52.5653 2.76229 45.7797C2.93897 34.0113 7.52433 14.7506 19.3866 9.86981C19.6163 9.74682 19.8737 9.68478 20.1342 9.68961C20.3947 9.69445 20.6496 9.76599 20.8746 9.89741C22.335 10.836 23.2349 14.7506 23.5496 21.5637C21.0754 23.6082 18.2859 25.2378 15.2899 26.3893C15.1021 26.4682 14.9473 26.6097 14.8518 26.7896C14.7563 26.9696 14.726 27.1771 14.766 27.3769C14.8059 27.5767 14.9137 27.7565 15.0711 27.8859C15.2285 28.0154 15.4257 28.0864 15.6295 28.087C15.7504 28.0852 15.8696 28.0589 15.9801 28.0097C19.3097 26.7363 22.3889 24.886 25.0763 22.5437L25.1039 22.5161C27.2296 20.6646 28.5374 18.048 28.7423 15.2364C28.9392 10.746 28.7952 6.24713 28.3117 1.77848C28.2988 1.66226 28.2627 1.54981 28.2055 1.44782C28.1483 1.34584 28.0712 1.25639 27.9787 1.1848C27.8863 1.1132 27.7804 1.06093 27.6673 1.03108C27.5543 1.00123 27.4364 0.99441 27.3206 1.01103C27.2069 1.02366 27.0969 1.0588 26.9969 1.11442C26.897 1.17003 26.8091 1.245 26.7384 1.33494C26.6678 1.42489 26.6157 1.52801 26.5853 1.63829C26.5549 1.74857 26.5468 1.86379 26.5615 1.97724C27.0286 6.35375 27.1688 10.759 26.9811 15.1564C26.8827 16.8352 26.2621 18.4413 25.206 19.75C24.7864 13.0693 23.7456 9.62411 21.827 8.39841C21.3647 8.11223 20.8375 7.94772 20.2944 7.92021C19.7514 7.89269 19.2102 8.00307 18.7213 8.24105C5.08396 13.8368 1.17219 35.2121 1.00655 45.7576C0.954098 48.8854 1.15286 56.3004 4.01009 57.5758C4.71985 57.8737 5.485 58.0168 6.25446 57.9954C9.21168 57.7773 12.0537 56.7581 14.4755 55.0471C19.7704 51.6018 25.4462 45.1558 25.4379 37.3792C25.4379 36.228 25.4379 35.0796 25.4379 33.8788C25.4379 32.1838 25.4379 30.4611 25.4379 28.7385C26.8833 28.0056 28.4679 27.5878 30.0867 27.5128C31.6492 27.5841 33.1789 27.9848 34.5755 28.6888V33.8318V37.382C34.5755 45.1586 40.243 51.6046 45.5378 55.0498C47.9597 56.7608 50.8017 57.7801 53.7589 57.9982C54.5327 58.0181 55.3021 57.8752 56.0171 57.5785C58.8716 56.3004 59.0703 48.8854 59.0289 45.7576Z" fill="#FF8761"/>
<path d="M59.0289 45.7576C58.8578 35.2121 54.946 13.8368 41.3086 8.25209C40.8181 8.02027 40.2778 7.91332 39.736 7.94077C39.1941 7.96822 38.6675 8.12923 38.2029 8.40945C36.3119 9.63516 35.2794 12.9755 34.835 19.4767C33.9139 18.2212 33.3821 16.7227 33.3056 15.1674C33.1134 10.7703 33.25 6.36502 33.7142 1.98829C33.7312 1.87409 33.725 1.75764 33.6958 1.64593C33.6666 1.53421 33.6152 1.42956 33.5445 1.33826C33.4738 1.24696 33.3854 1.1709 33.2846 1.11466C33.1838 1.05843 33.0726 1.02318 32.9578 1.01103C32.8432 0.992365 32.726 0.997429 32.6135 1.02591C32.501 1.05439 32.3955 1.10568 32.3036 1.1766C32.2118 1.24751 32.1354 1.33655 32.0794 1.43819C32.0233 1.53982 31.9887 1.65189 31.9778 1.76744C31.4807 6.23883 31.3376 10.7425 31.5499 15.2364C31.7299 17.9339 32.9443 20.4577 34.9399 22.2815C34.9544 22.2956 34.964 22.314 34.9675 22.3339C37.7112 24.7771 40.8768 26.7004 44.3094 28.0097C44.4155 28.0603 44.5314 28.0867 44.6489 28.087C44.8527 28.0864 45.0499 28.0154 45.2073 27.8859C45.3647 27.7565 45.4725 27.5767 45.5124 27.3769C45.5524 27.1771 45.5221 26.9696 45.4266 26.7896C45.3311 26.6097 45.1763 26.4682 44.9885 26.3893C41.8935 25.2015 39.0216 23.499 36.4941 21.3539C36.8199 14.6733 37.706 10.8084 39.1553 9.89741C39.3805 9.7665 39.6353 9.69525 39.8957 9.69042C40.1561 9.68558 40.4134 9.74733 40.6433 9.86981C52.5139 14.7506 57.0854 34.0113 57.2676 45.7797C57.3725 52.5653 56.1634 55.5937 55.3104 55.9608C53.4718 56.789 50.0266 55.8283 46.5151 53.5564C41.8221 50.5197 36.3368 44.4464 36.3368 37.3792V33.8291C36.3368 32.3936 36.3368 30.9829 36.3368 29.575C37.118 29.9918 37.8744 30.4363 38.6032 30.8532C39.7108 31.5519 40.8615 32.1799 42.0484 32.7331C42.2633 32.8287 42.5074 32.8349 42.7269 32.7506C42.9464 32.6662 43.1234 32.498 43.2189 32.2831C43.3145 32.0683 43.3208 31.8242 43.2364 31.6047C43.152 31.3852 42.9838 31.2082 42.769 31.1126C41.6386 30.5952 40.5439 30.0031 39.4921 29.3403C38.3465 28.6612 37.118 27.9297 35.8509 27.3306C35.826 27.3306 35.8012 27.303 35.7736 27.303C34.0187 26.3765 32.0803 25.8504 30.0978 25.7626C28.0512 25.8531 26.052 26.4071 24.2508 27.3831H24.226C22.9892 27.9821 21.8132 28.6861 20.6897 29.3403C19.6394 30.0042 18.5456 30.5963 17.4156 31.1126C17.2032 31.2124 17.0381 31.3912 16.9556 31.6108C16.8731 31.8305 16.8796 32.0737 16.9739 32.2887C17.0709 32.4994 17.2465 32.6639 17.4631 32.7469C17.6798 32.8299 17.9203 32.825 18.1333 32.7331C19.3194 32.1781 20.47 31.5503 21.5786 30.8532C22.2687 30.4611 22.9754 30.0443 23.6904 29.6523C23.7033 31.062 23.7033 32.4709 23.6904 33.8788V37.3792C23.6904 44.4491 18.2106 50.5307 13.5148 53.5564C10.0034 55.8283 6.55812 56.7945 4.73336 55.9608C3.8831 55.5937 2.65739 52.5653 2.76229 45.7797C2.93897 34.0113 7.52433 14.7506 19.3866 9.86981C19.6163 9.74682 19.8737 9.68478 20.1342 9.68961C20.3947 9.69445 20.6496 9.76599 20.8746 9.89741C22.335 10.836 23.2349 14.7506 23.5496 21.5637C21.0754 23.6082 18.2859 25.2378 15.2899 26.3893C15.1021 26.4682 14.9473 26.6097 14.8518 26.7896C14.7563 26.9696 14.726 27.1771 14.766 27.3769C14.8059 27.5767 14.9137 27.7565 15.0711 27.8859C15.2285 28.0154 15.4257 28.0864 15.6295 28.087C15.7504 28.0852 15.8696 28.0589 15.9801 28.0097C19.3097 26.7363 22.3889 24.886 25.0763 22.5437L25.1039 22.5161C27.2296 20.6646 28.5374 18.048 28.7423 15.2364C28.9392 10.746 28.7952 6.24713 28.3117 1.77848C28.2988 1.66226 28.2627 1.54981 28.2055 1.44782C28.1483 1.34584 28.0712 1.25639 27.9787 1.1848C27.8863 1.1132 27.7804 1.06093 27.6673 1.03108C27.5543 1.00123 27.4364 0.99441 27.3206 1.01103C27.2069 1.02366 27.0969 1.0588 26.9969 1.11442C26.897 1.17003 26.8091 1.245 26.7384 1.33494C26.6678 1.42489 26.6157 1.52801 26.5853 1.63829C26.5549 1.74857 26.5468 1.86379 26.5615 1.97724C27.0286 6.35375 27.1688 10.759 26.9811 15.1564C26.8827 16.8352 26.2621 18.4413 25.206 19.75C24.7864 13.0693 23.7456 9.62411 21.827 8.39841C21.3647 8.11223 20.8375 7.94772 20.2944 7.92021C19.7514 7.89269 19.2102 8.00307 18.7213 8.24105C5.08396 13.8368 1.17219 35.2121 1.00655 45.7576C0.954098 48.8854 1.15286 56.3004 4.01009 57.5758C4.71985 57.8737 5.485 58.0168 6.25446 57.9954C9.21168 57.7773 12.0537 56.7581 14.4755 55.0471C19.7704 51.6018 25.4462 45.1558 25.4379 37.3792C25.4379 36.228 25.4379 35.0796 25.4379 33.8788C25.4379 32.1838 25.4379 30.4611 25.4379 28.7385C26.8833 28.0056 28.4679 27.5878 30.0867 27.5128C31.6492 27.5841 33.1789 27.9848 34.5755 28.6888V33.8318V37.382C34.5755 45.1586 40.243 51.6046 45.5378 55.0498C47.9597 56.7608 50.8017 57.7801 53.7589 57.9982C54.5327 58.0181 55.3021 57.8752 56.0171 57.5785C58.8716 56.3004 59.0703 48.8854 59.0289 45.7576Z" stroke="#FF8761" stroke-width="0.6" mask="url(#path-1-outside-1_333_447)"/>
<path d="M51.8943 34.15C53.3677 36.8312 55.6209 44.3022 52.8455 52.7371" stroke="#FF8761" stroke-width="1.5" stroke-linecap="round"/>
<path d="M8.14667 33.5833C6.67318 36.2645 4.42004 43.7355 7.19543 52.1704" stroke="#FF8761" stroke-width="1.5" stroke-linecap="round"/>
</svg>
