<svg width="33" height="50" viewBox="0 0 33 50" fill="none" xmlns="http://www.w3.org/2000/svg">
<path d="M16.5073 0C12.1347 0.00494878 7.9426 1.74415 4.8507 4.83605C1.7588 7.92795 0.0195978 12.12 0.014649 16.4927V33.5075C0.0140427 35.8239 0.502537 38.1143 1.44817 40.2289C2.3938 42.3435 3.77527 44.2347 5.50217 45.7786C5.5336 45.811 5.56778 45.8406 5.60432 45.867C7.9825 47.9694 10.9172 49.3402 14.0558 49.8148C17.1943 50.2893 20.4031 49.8474 23.2965 48.5421C26.1899 47.2369 28.6449 45.1238 30.3662 42.4568C32.0876 39.7899 33.0021 36.6826 33 33.5084V16.4927C32.995 12.12 31.2558 7.92795 28.1639 4.83605C25.072 1.74415 20.8799 0.00494878 16.5073 0ZM1.61079 33.5075V16.4927C1.61079 12.5419 3.18024 8.75286 5.97387 5.95922C8.76751 3.16559 12.5565 1.59614 16.5073 1.59614C20.4581 1.59614 24.2471 3.16559 27.0407 5.95922C29.8344 8.75286 31.4038 12.5419 31.4038 16.4927V23.3542C29.2914 25.98 27.0351 28.4868 24.6453 30.8629C22.1398 29.1929 19.405 25.9983 18.0355 24.2927C20.4353 23.9021 22.5936 22.6048 24.0645 20.6688C25.5354 18.7327 26.2067 16.3058 25.9398 13.889C25.6729 11.4723 24.4881 9.2503 22.6301 7.68192C20.7721 6.11355 18.3828 5.31853 15.9556 5.46104C13.5283 5.60356 11.2484 6.67271 9.58676 8.44774C7.92507 10.2228 7.00846 12.5681 7.02618 14.9995C7.0439 17.4309 7.99461 19.7626 9.682 21.5132C11.3694 23.2638 13.6646 24.2996 16.0937 24.4068C16.9829 25.5724 20.2833 29.7547 23.4842 32.0016C18.8974 36.4307 12.7723 41.4289 6.20629 44.2531C4.7534 42.8659 3.59703 41.1983 2.80714 39.3513C2.01725 37.5043 1.61025 35.5163 1.61079 33.5075ZM16.5073 22.8316C14.9469 22.8316 13.4216 22.3689 12.1241 21.502C10.8267 20.6351 9.81551 19.4029 9.21838 17.9613C8.62124 16.5197 8.465 14.9334 8.76942 13.403C9.07384 11.8725 9.82524 10.4668 10.9286 9.36342C12.032 8.26005 13.4377 7.50865 14.9681 7.20424C16.4985 6.89982 18.0849 7.05606 19.5265 7.65319C20.9681 8.25033 22.2003 9.26154 23.0672 10.559C23.9341 11.8564 24.3968 13.3817 24.3968 14.9421C24.395 17.034 23.5632 19.0396 22.084 20.5188C20.6048 21.998 18.5992 22.8298 16.5073 22.8316ZM16.5073 48.404C13.2766 48.4071 10.1334 47.3545 7.55617 45.4064C18.5225 40.4251 27.9169 30.0562 31.4038 25.888V33.5075C31.3996 37.457 29.8288 41.2435 27.0361 44.0362C24.2433 46.8289 20.4568 48.3998 16.5073 48.404Z" fill="#FF8761"/>
<path d="M14.3831 13.8431C14.5488 13.8431 14.7105 13.7916 14.8456 13.6956C14.9807 13.5996 15.0826 13.464 15.1371 13.3074C15.1916 13.1509 15.196 12.9813 15.1497 12.8222C15.1034 12.663 15.0088 12.5222 14.8788 12.4193C14.3753 11.968 13.7229 11.7184 13.0467 11.7184C12.3705 11.7184 11.7181 11.968 11.2145 12.4193C11.0514 12.5516 10.9469 12.7428 10.9238 12.9515C10.9007 13.1603 10.9608 13.3697 11.0911 13.5344C11.2213 13.6991 11.4113 13.8059 11.6197 13.8315C11.8282 13.8571 12.0383 13.7995 12.2046 13.6712C12.3143 13.559 12.4453 13.4699 12.5899 13.4091C12.7345 13.3482 12.8898 13.3169 13.0467 13.3169C13.2036 13.3169 13.3589 13.3482 13.5035 13.4091C13.6481 13.4699 13.7791 13.559 13.8888 13.6712C14.0294 13.7827 14.2036 13.8433 14.3831 13.8431Z" fill="#FF8761"/>
<path d="M21.8 12.4193C21.2964 11.968 20.644 11.7184 19.9678 11.7184C19.2916 11.7184 18.6392 11.968 18.1357 12.4193C18.0521 12.4838 17.9821 12.5643 17.9298 12.6561C17.8776 12.7478 17.844 12.849 17.8311 12.9539C17.8183 13.0587 17.8263 13.165 17.8549 13.2667C17.8834 13.3684 17.9318 13.4634 17.9973 13.5462C18.0628 13.629 18.1441 13.698 18.2365 13.7492C18.3289 13.8004 18.4305 13.8327 18.5354 13.8444C18.6404 13.856 18.7466 13.8467 18.8479 13.8169C18.9493 13.7872 19.0437 13.7376 19.1257 13.6712C19.2354 13.559 19.3664 13.4699 19.511 13.4091C19.6556 13.3482 19.8109 13.3169 19.9678 13.3169C20.1247 13.3169 20.28 13.3482 20.4246 13.4091C20.5692 13.4699 20.7002 13.559 20.8099 13.6712C20.9762 13.7995 21.1863 13.8571 21.3947 13.8315C21.6032 13.8059 21.7932 13.6991 21.9234 13.5344C22.0537 13.3697 22.1138 13.1603 22.0907 12.9515C22.0676 12.7428 21.9631 12.5516 21.8 12.4193Z" fill="#FF8761"/>
<path d="M18.2003 17.7203C16.9234 18.5348 15.8973 18.5471 14.8681 17.7591C14.6997 17.6351 14.4895 17.5821 14.2825 17.6115C14.0755 17.6409 13.8883 17.7504 13.7612 17.9163C13.6341 18.0823 13.5771 18.2915 13.6026 18.499C13.6282 18.7065 13.7341 18.8957 13.8976 19.026C14.6069 19.6046 15.4906 19.9272 16.4058 19.9417C17.3567 19.9109 18.2784 19.6064 19.0604 19.0647C19.2356 18.9493 19.3582 18.7695 19.4018 18.5643C19.4454 18.3591 19.4065 18.145 19.2934 17.9683C19.1804 17.7916 19.0023 17.6665 18.7978 17.6201C18.5932 17.5737 18.3786 17.6097 18.2003 17.7203Z" fill="#FF8761"/>
</svg>
