<svg width="40" height="40" viewBox="0 0 40 40" fill="none" xmlns="http://www.w3.org/2000/svg">
<g clip-path="url(#clip0_157_383)">
<path d="M8.35895 11.6665C6.05701 11.6665 4.19238 9.80188 4.19238 7.49994C4.19238 5.198 6.05701 3.33337 8.35895 3.33337C10.6609 3.33337 12.5255 5.198 12.5255 7.49994C12.5255 9.80188 10.6609 11.6665 8.35895 11.6665ZM8.35895 4.99994C6.98383 4.99994 5.85895 6.12482 5.85895 7.49994C5.85895 8.87506 6.98383 9.99994 8.35895 9.99994C9.73407 9.99994 10.8589 8.87506 10.8589 7.49994C10.8589 6.12482 9.73407 4.99994 8.35895 4.99994Z" fill="#FF8761"/>
<path d="M9.24469 37.4999H7.47406C6.28632 37.4999 5.25513 36.6561 5.02594 35.4894L3.27606 26.6665C1.93237 26.6146 0.859375 25.5209 0.859375 24.1665V17.4999C0.859375 15.198 2.724 13.3334 5.02594 13.3334H9.19281V14.9999H5.02594C3.65112 14.9999 2.52594 16.1248 2.52594 17.4999V24.1665C2.52594 24.6249 2.901 24.9999 3.35938 24.9999H4.6405L6.651 35.1666C6.72394 35.552 7.06757 35.8334 7.46368 35.8334H9.23431C9.63013 35.8334 9.97406 35.552 10.047 35.1666L11.0678 29.9999L12.7032 30.3228L11.6824 35.4894C11.4636 36.6561 10.4324 37.4999 9.24469 37.4999Z" fill="#FF8761"/>
<path d="M31.6932 11.6665C29.391 11.6665 27.5264 9.80188 27.5264 7.49994C27.5264 5.198 29.391 3.33337 31.6932 3.33337C33.9952 3.33337 35.8598 5.198 35.8598 7.49994C35.8598 9.80188 33.9952 11.6665 31.6932 11.6665ZM31.6932 4.99994C30.3181 4.99994 29.1932 6.12482 29.1932 7.49994C29.1932 8.87506 30.3181 9.99994 31.6932 9.99994C33.0681 9.99994 34.1932 8.87506 34.1932 7.49994C34.1932 6.12482 33.0681 4.99994 31.6932 4.99994Z" fill="#FF8761"/>
<path d="M32.5784 37.4999H30.8075C29.6201 37.4999 28.5889 36.6561 28.3597 35.4894L27.3389 30.3228L28.9743 29.9999L29.9951 35.1666C30.0681 35.552 30.4117 35.8334 30.8075 35.8334H32.5784C32.9742 35.8334 33.3179 35.552 33.3908 35.1666L35.4013 24.9999H36.6931C37.1515 24.9999 37.5262 24.6249 37.5262 24.1665V17.4999C37.5262 16.1248 36.4014 14.9999 35.0262 14.9999H30.8597V13.3334H35.0262C37.3285 13.3334 39.1931 15.198 39.1931 17.4999V24.1665C39.1931 25.5209 38.1201 26.6146 36.7764 26.6665L35.0262 35.4894C34.7971 36.6561 33.7659 37.4999 32.5784 37.4999Z" fill="#FF8761"/>
<path d="M20.0264 10C17.2661 10 15.0264 7.76031 15.0264 5C15.0264 2.23969 17.2661 0 20.0264 0C22.787 0 25.0264 2.23969 25.0264 5C25.0264 7.76031 22.787 10 20.0264 10ZM20.0264 1.66656C18.1932 1.66656 16.6932 3.16681 16.6932 5C16.6932 6.83319 18.1932 8.33344 20.0264 8.33344C21.8599 8.33344 23.3598 6.83319 23.3598 5C23.3598 3.16681 21.8599 1.66656 20.0264 1.66656Z" fill="#FF8761"/>
<path d="M21.5465 39.9999H18.5048C17.0256 39.9999 15.963 39.0206 15.8589 37.5625L14.1924 27.4999C12.8173 27.4999 11.6924 26.3751 11.6924 24.9999V15.8334C11.6924 13.5311 13.557 11.6665 15.8589 11.6665H24.1924C26.4943 11.6665 28.3589 13.5311 28.3589 15.8334V24.9999C28.3589 26.3751 27.2341 27.4999 25.8589 27.4999H25.8278L24.182 37.6354C24.0776 39.0206 23.0153 39.9999 21.5465 39.9999ZM15.8589 13.3334C14.4838 13.3334 13.3589 14.4583 13.3589 15.8334V24.9999C13.3589 25.4583 13.734 25.8334 14.1924 25.8334H15.6401L17.5151 37.3644C17.5673 38.0312 17.9006 38.3334 18.5048 38.3334H21.5465C22.1508 38.3334 22.484 38.0312 22.5255 37.4374L24.4005 25.8334H25.8589C26.3173 25.8334 26.6924 25.4583 26.6924 24.9999V15.8334C26.6924 14.4583 25.5672 13.3334 24.1924 13.3334H15.8589Z" fill="#FF8761"/>
<path d="M20.0264 21.6665H18.3598V18.3334C18.3598 17.875 17.9847 17.4999 17.5264 17.4999C17.068 17.4999 16.6932 17.875 16.6932 18.3334V21.6665H15.0264V18.3334C15.0264 16.9583 16.1516 15.8334 17.5264 15.8334C18.9015 15.8334 20.0264 16.9583 20.0264 18.3334V21.6665Z" fill="#FF8761"/>
<path d="M16.6924 12.5H18.3589V16.6666H16.6924V12.5Z" fill="#FF8761"/>
<path d="M22.5264 12.5H24.1932V18.3334H22.5264V12.5Z" fill="#FF8761"/>
</g>
<defs>
<clipPath id="clip0_157_383">
<rect width="40" height="40" fill="white"/>
</clipPath>
</defs>
</svg>
