<svg width="40" height="40" viewBox="0 0 40 40" fill="none" xmlns="http://www.w3.org/2000/svg">
<g clip-path="url(#clip0_157_328)">
<path d="M38.095 37.1429H1.9043V31.4286H38.095V37.1429ZM3.80929 35.2382H36.19V33.3332H3.80929V35.2382Z" fill="#FF8761"/>
<path d="M38.095 17.905H36.19V6.66682C36.19 5.61457 35.3373 4.76182 34.2854 4.76182H5.71394C4.66204 4.76182 3.80929 5.61457 3.80929 6.66682V17.905H1.9043V6.66682C1.9043 4.56267 3.61014 2.85718 5.71394 2.85718H34.2854C36.3892 2.85718 38.095 4.56267 38.095 6.66682V17.905Z" fill="#FF8761"/>
<path d="M18.0956 18.0954H6.66699V14.2857C6.66699 12.7079 7.94594 11.4286 9.52414 11.4286H15.2384C16.8163 11.4286 18.0956 12.7079 18.0956 14.2857V18.0954ZM8.57164 16.1904H16.1906V14.2857C16.1906 13.7598 15.7644 13.3332 15.2384 13.3332H9.52414C8.99819 13.3332 8.57164 13.7598 8.57164 14.2857V16.1904Z" fill="#FF8761"/>
<path d="M33.3329 18.0954H21.9043V14.2857C21.9043 12.7079 23.1836 11.4286 24.7614 11.4286H30.4757C32.0539 11.4286 33.3329 12.7079 33.3329 14.2857V18.0954ZM23.8093 16.1904H31.4282V14.2857C31.4282 13.7598 31.0017 13.3332 30.4757 13.3332H24.7614C24.2355 13.3332 23.8093 13.7598 23.8093 14.2857V16.1904Z" fill="#FF8761"/>
<path d="M40 33.3332H0V20.9524C0 18.3213 2.55964 16.1903 5.71429 16.1903H34.2857C37.4404 16.1903 40 18.3213 40 20.9524V33.3332ZM1.90465 31.4285H38.0954V20.9524C38.0954 19.3809 36.3808 18.0953 34.2857 18.0953H5.71429C3.61921 18.0953 1.90465 19.3809 1.90465 20.9524V31.4285Z" fill="#FF8761"/>
<path d="M0.952148 21.9047H39.0472V23.8097H0.952148V21.9047Z" fill="#FF8761"/>
</g>
<defs>
<clipPath id="clip0_157_328">
<rect width="40" height="40" fill="white"/>
</clipPath>
</defs>
</svg>
