<svg width="42" height="42" viewBox="0 0 42 42" fill="none" xmlns="http://www.w3.org/2000/svg">
<mask id="path-1-outside-1_157_339" maskUnits="userSpaceOnUse" x="0" y="0" width="42" height="42" fill="black">
<rect fill="white" width="42" height="42"/>
<path d="M40.3939 11.9091C40.3143 11.909 40.2355 11.9247 40.162 11.9551C40.0884 11.9856 40.0216 12.0302 39.9653 12.0865C39.909 12.1428 39.8644 12.2096 39.8339 12.2832C39.8035 12.3567 39.7878 12.4355 39.7879 12.5152V25.8485C39.7874 26.3305 39.5956 26.7927 39.2548 27.1336C38.9139 27.4744 38.4517 27.6661 37.9697 27.6667H35.5455V22.2121H38.5758C38.7365 22.2121 38.8907 22.1483 39.0043 22.0346C39.118 21.921 39.1818 21.7668 39.1818 21.6061C39.1818 21.4453 39.118 21.2912 39.0043 21.1775C38.8907 21.0639 38.7365 21 38.5758 21H35.5455V17.9697C35.5455 17.8901 35.5299 17.8113 35.4994 17.7377C35.469 17.6642 35.4243 17.5973 35.368 17.541C35.3118 17.4848 35.2449 17.4401 35.1714 17.4097C35.0978 17.3792 35.019 17.3636 34.9394 17.3636H15.5455V1.60606C15.5455 1.44532 15.4816 1.29117 15.3679 1.17751C15.2543 1.06385 15.1001 1 14.9394 1C14.7787 1 14.6245 1.06385 14.5108 1.17751C14.3972 1.29117 14.3333 1.44532 14.3333 1.60606V4.63636H9.48485C9.32416 4.6362 9.1701 4.5723 9.05648 4.45868C8.94285 4.34505 8.87895 4.19099 8.87879 4.0303V3.42424C8.87879 3.26351 8.81494 3.10935 8.70128 2.99569C8.58762 2.88203 8.43347 2.81818 8.27273 2.81818C8.11199 2.81818 7.95784 2.88203 7.84418 2.99569C7.73052 3.10935 7.66667 3.26351 7.66667 3.42424V4.0303C7.66719 4.51235 7.85892 4.97451 8.19978 5.31537C8.54064 5.65623 9.0028 5.84796 9.48485 5.84848H14.3333V17.3636H13.7273C13.6477 17.3636 13.5689 17.3793 13.4953 17.4097C13.4218 17.4402 13.355 17.4848 13.2987 17.5411C13.2424 17.5974 13.1978 17.6642 13.1673 17.7377C13.1369 17.8113 13.1212 17.8901 13.1212 17.9697V21H3.42424C3.26351 21 3.10935 21.0639 2.99569 21.1775C2.88203 21.2912 2.81818 21.4453 2.81818 21.6061C2.81818 21.7668 2.88203 21.921 2.99569 22.0346C3.10935 22.1483 3.26351 22.2121 3.42424 22.2121H13.1212V27.6667H4.0303C3.54825 27.6661 3.0861 27.4744 2.74524 27.1336C2.40437 26.7927 2.21265 26.3305 2.21212 25.8485V12.5152C2.21212 12.3544 2.14827 12.2003 2.03461 12.0866C1.92095 11.9729 1.7668 11.9091 1.60606 11.9091C1.44532 11.9091 1.29117 11.9729 1.17751 12.0866C1.06385 12.2003 1 12.3544 1 12.5152V25.8485C1.00094 26.6519 1.32051 27.4221 1.8886 27.9902C2.45668 28.5583 3.22691 28.8778 4.0303 28.8788V40.3939C4.03028 40.4735 4.04594 40.5524 4.07639 40.6259C4.10684 40.6994 4.15149 40.7663 4.20777 40.8225C4.26405 40.8788 4.33087 40.9235 4.40441 40.9539C4.47795 40.9844 4.55677 41 4.63636 41H7.06061C7.1402 41 7.21902 40.9844 7.29256 40.9539C7.3661 40.9235 7.43292 40.8788 7.4892 40.8225C7.54548 40.7663 7.59013 40.6994 7.62058 40.6259C7.65103 40.5524 7.66669 40.4735 7.66667 40.3939V28.8788H13.1212V34.9394C13.1212 35.019 13.1369 35.0978 13.1673 35.1713C13.1978 35.2449 13.2424 35.3117 13.2987 35.368C13.355 35.4243 13.4218 35.4689 13.4953 35.4994C13.5689 35.5298 13.6477 35.5455 13.7273 35.5455H34.3333V40.3939C34.3333 40.4735 34.3489 40.5524 34.3794 40.6259C34.4098 40.6995 34.4545 40.7663 34.5107 40.8226C34.567 40.8789 34.6339 40.9235 34.7074 40.954C34.781 40.9844 34.8598 41 34.9394 41H37.3636C37.4432 41 37.5221 40.9844 37.5956 40.954C37.6692 40.9235 37.736 40.8789 37.7923 40.8226C37.8486 40.7663 37.8932 40.6995 37.9237 40.6259C37.9541 40.5524 37.9697 40.4735 37.9697 40.3939V28.8788C38.7731 28.8778 39.5433 28.5583 40.1114 27.9902C40.6795 27.4221 40.9991 26.6519 41 25.8485V12.5152C41 12.4355 40.9844 12.3567 40.954 12.2832C40.9235 12.2096 40.8789 12.1428 40.8226 12.0865C40.7663 12.0302 40.6995 11.9856 40.6259 11.9551C40.5524 11.9247 40.4735 11.909 40.3939 11.9091ZM6.45455 39.7879H5.24242V28.8788H6.45455V39.7879ZM31.303 34.3333V28.8788C31.303 28.7181 31.2392 28.5639 31.1255 28.4502C31.0119 28.3366 30.8577 28.2727 30.697 28.2727C30.5362 28.2727 30.3821 28.3366 30.2684 28.4502C30.1548 28.5639 30.0909 28.7181 30.0909 28.8788V34.3333H25.8485V25.8485C25.8485 25.6877 25.7846 25.5336 25.671 25.4199C25.5573 25.3063 25.4032 25.2424 25.2424 25.2424C25.0817 25.2424 24.9275 25.3063 24.8139 25.4199C24.7002 25.5336 24.6364 25.6877 24.6364 25.8485V34.3333H17.9697V30.697C17.9697 30.5362 17.9058 30.3821 17.7922 30.2684C17.6785 30.1548 17.5244 30.0909 17.3636 30.0909C17.2029 30.0909 17.0487 30.1548 16.9351 30.2684C16.8214 30.3821 16.7576 30.5362 16.7576 30.697V34.3333H14.3333V18.5758H34.3333V34.3333H31.303ZM36.7576 39.7879H35.5455V28.8788H36.7576V39.7879Z"/>
</mask>
<path d="M40.3939 11.9091C40.3143 11.909 40.2355 11.9247 40.162 11.9551C40.0884 11.9856 40.0216 12.0302 39.9653 12.0865C39.909 12.1428 39.8644 12.2096 39.8339 12.2832C39.8035 12.3567 39.7878 12.4355 39.7879 12.5152V25.8485C39.7874 26.3305 39.5956 26.7927 39.2548 27.1336C38.9139 27.4744 38.4517 27.6661 37.9697 27.6667H35.5455V22.2121H38.5758C38.7365 22.2121 38.8907 22.1483 39.0043 22.0346C39.118 21.921 39.1818 21.7668 39.1818 21.6061C39.1818 21.4453 39.118 21.2912 39.0043 21.1775C38.8907 21.0639 38.7365 21 38.5758 21H35.5455V17.9697C35.5455 17.8901 35.5299 17.8113 35.4994 17.7377C35.469 17.6642 35.4243 17.5973 35.368 17.541C35.3118 17.4848 35.2449 17.4401 35.1714 17.4097C35.0978 17.3792 35.019 17.3636 34.9394 17.3636H15.5455V1.60606C15.5455 1.44532 15.4816 1.29117 15.3679 1.17751C15.2543 1.06385 15.1001 1 14.9394 1C14.7787 1 14.6245 1.06385 14.5108 1.17751C14.3972 1.29117 14.3333 1.44532 14.3333 1.60606V4.63636H9.48485C9.32416 4.6362 9.1701 4.5723 9.05648 4.45868C8.94285 4.34505 8.87895 4.19099 8.87879 4.0303V3.42424C8.87879 3.26351 8.81494 3.10935 8.70128 2.99569C8.58762 2.88203 8.43347 2.81818 8.27273 2.81818C8.11199 2.81818 7.95784 2.88203 7.84418 2.99569C7.73052 3.10935 7.66667 3.26351 7.66667 3.42424V4.0303C7.66719 4.51235 7.85892 4.97451 8.19978 5.31537C8.54064 5.65623 9.0028 5.84796 9.48485 5.84848H14.3333V17.3636H13.7273C13.6477 17.3636 13.5689 17.3793 13.4953 17.4097C13.4218 17.4402 13.355 17.4848 13.2987 17.5411C13.2424 17.5974 13.1978 17.6642 13.1673 17.7377C13.1369 17.8113 13.1212 17.8901 13.1212 17.9697V21H3.42424C3.26351 21 3.10935 21.0639 2.99569 21.1775C2.88203 21.2912 2.81818 21.4453 2.81818 21.6061C2.81818 21.7668 2.88203 21.921 2.99569 22.0346C3.10935 22.1483 3.26351 22.2121 3.42424 22.2121H13.1212V27.6667H4.0303C3.54825 27.6661 3.0861 27.4744 2.74524 27.1336C2.40437 26.7927 2.21265 26.3305 2.21212 25.8485V12.5152C2.21212 12.3544 2.14827 12.2003 2.03461 12.0866C1.92095 11.9729 1.7668 11.9091 1.60606 11.9091C1.44532 11.9091 1.29117 11.9729 1.17751 12.0866C1.06385 12.2003 1 12.3544 1 12.5152V25.8485C1.00094 26.6519 1.32051 27.4221 1.8886 27.9902C2.45668 28.5583 3.22691 28.8778 4.0303 28.8788V40.3939C4.03028 40.4735 4.04594 40.5524 4.07639 40.6259C4.10684 40.6994 4.15149 40.7663 4.20777 40.8225C4.26405 40.8788 4.33087 40.9235 4.40441 40.9539C4.47795 40.9844 4.55677 41 4.63636 41H7.06061C7.1402 41 7.21902 40.9844 7.29256 40.9539C7.3661 40.9235 7.43292 40.8788 7.4892 40.8225C7.54548 40.7663 7.59013 40.6994 7.62058 40.6259C7.65103 40.5524 7.66669 40.4735 7.66667 40.3939V28.8788H13.1212V34.9394C13.1212 35.019 13.1369 35.0978 13.1673 35.1713C13.1978 35.2449 13.2424 35.3117 13.2987 35.368C13.355 35.4243 13.4218 35.4689 13.4953 35.4994C13.5689 35.5298 13.6477 35.5455 13.7273 35.5455H34.3333V40.3939C34.3333 40.4735 34.3489 40.5524 34.3794 40.6259C34.4098 40.6995 34.4545 40.7663 34.5107 40.8226C34.567 40.8789 34.6339 40.9235 34.7074 40.954C34.781 40.9844 34.8598 41 34.9394 41H37.3636C37.4432 41 37.5221 40.9844 37.5956 40.954C37.6692 40.9235 37.736 40.8789 37.7923 40.8226C37.8486 40.7663 37.8932 40.6995 37.9237 40.6259C37.9541 40.5524 37.9697 40.4735 37.9697 40.3939V28.8788C38.7731 28.8778 39.5433 28.5583 40.1114 27.9902C40.6795 27.4221 40.9991 26.6519 41 25.8485V12.5152C41 12.4355 40.9844 12.3567 40.954 12.2832C40.9235 12.2096 40.8789 12.1428 40.8226 12.0865C40.7663 12.0302 40.6995 11.9856 40.6259 11.9551C40.5524 11.9247 40.4735 11.909 40.3939 11.9091ZM6.45455 39.7879H5.24242V28.8788H6.45455V39.7879ZM31.303 34.3333V28.8788C31.303 28.7181 31.2392 28.5639 31.1255 28.4502C31.0119 28.3366 30.8577 28.2727 30.697 28.2727C30.5362 28.2727 30.3821 28.3366 30.2684 28.4502C30.1548 28.5639 30.0909 28.7181 30.0909 28.8788V34.3333H25.8485V25.8485C25.8485 25.6877 25.7846 25.5336 25.671 25.4199C25.5573 25.3063 25.4032 25.2424 25.2424 25.2424C25.0817 25.2424 24.9275 25.3063 24.8139 25.4199C24.7002 25.5336 24.6364 25.6877 24.6364 25.8485V34.3333H17.9697V30.697C17.9697 30.5362 17.9058 30.3821 17.7922 30.2684C17.6785 30.1548 17.5244 30.0909 17.3636 30.0909C17.2029 30.0909 17.0487 30.1548 16.9351 30.2684C16.8214 30.3821 16.7576 30.5362 16.7576 30.697V34.3333H14.3333V18.5758H34.3333V34.3333H31.303ZM36.7576 39.7879H35.5455V28.8788H36.7576V39.7879Z" fill="#FF8761"/>
<path d="M40.3939 11.9091C40.3143 11.909 40.2355 11.9247 40.162 11.9551C40.0884 11.9856 40.0216 12.0302 39.9653 12.0865C39.909 12.1428 39.8644 12.2096 39.8339 12.2832C39.8035 12.3567 39.7878 12.4355 39.7879 12.5152V25.8485C39.7874 26.3305 39.5956 26.7927 39.2548 27.1336C38.9139 27.4744 38.4517 27.6661 37.9697 27.6667H35.5455V22.2121H38.5758C38.7365 22.2121 38.8907 22.1483 39.0043 22.0346C39.118 21.921 39.1818 21.7668 39.1818 21.6061C39.1818 21.4453 39.118 21.2912 39.0043 21.1775C38.8907 21.0639 38.7365 21 38.5758 21H35.5455V17.9697C35.5455 17.8901 35.5299 17.8113 35.4994 17.7377C35.469 17.6642 35.4243 17.5973 35.368 17.541C35.3118 17.4848 35.2449 17.4401 35.1714 17.4097C35.0978 17.3792 35.019 17.3636 34.9394 17.3636H15.5455V1.60606C15.5455 1.44532 15.4816 1.29117 15.3679 1.17751C15.2543 1.06385 15.1001 1 14.9394 1C14.7787 1 14.6245 1.06385 14.5108 1.17751C14.3972 1.29117 14.3333 1.44532 14.3333 1.60606V4.63636H9.48485C9.32416 4.6362 9.1701 4.5723 9.05648 4.45868C8.94285 4.34505 8.87895 4.19099 8.87879 4.0303V3.42424C8.87879 3.26351 8.81494 3.10935 8.70128 2.99569C8.58762 2.88203 8.43347 2.81818 8.27273 2.81818C8.11199 2.81818 7.95784 2.88203 7.84418 2.99569C7.73052 3.10935 7.66667 3.26351 7.66667 3.42424V4.0303C7.66719 4.51235 7.85892 4.97451 8.19978 5.31537C8.54064 5.65623 9.0028 5.84796 9.48485 5.84848H14.3333V17.3636H13.7273C13.6477 17.3636 13.5689 17.3793 13.4953 17.4097C13.4218 17.4402 13.355 17.4848 13.2987 17.5411C13.2424 17.5974 13.1978 17.6642 13.1673 17.7377C13.1369 17.8113 13.1212 17.8901 13.1212 17.9697V21H3.42424C3.26351 21 3.10935 21.0639 2.99569 21.1775C2.88203 21.2912 2.81818 21.4453 2.81818 21.6061C2.81818 21.7668 2.88203 21.921 2.99569 22.0346C3.10935 22.1483 3.26351 22.2121 3.42424 22.2121H13.1212V27.6667H4.0303C3.54825 27.6661 3.0861 27.4744 2.74524 27.1336C2.40437 26.7927 2.21265 26.3305 2.21212 25.8485V12.5152C2.21212 12.3544 2.14827 12.2003 2.03461 12.0866C1.92095 11.9729 1.7668 11.9091 1.60606 11.9091C1.44532 11.9091 1.29117 11.9729 1.17751 12.0866C1.06385 12.2003 1 12.3544 1 12.5152V25.8485C1.00094 26.6519 1.32051 27.4221 1.8886 27.9902C2.45668 28.5583 3.22691 28.8778 4.0303 28.8788V40.3939C4.03028 40.4735 4.04594 40.5524 4.07639 40.6259C4.10684 40.6994 4.15149 40.7663 4.20777 40.8225C4.26405 40.8788 4.33087 40.9235 4.40441 40.9539C4.47795 40.9844 4.55677 41 4.63636 41H7.06061C7.1402 41 7.21902 40.9844 7.29256 40.9539C7.3661 40.9235 7.43292 40.8788 7.4892 40.8225C7.54548 40.7663 7.59013 40.6994 7.62058 40.6259C7.65103 40.5524 7.66669 40.4735 7.66667 40.3939V28.8788H13.1212V34.9394C13.1212 35.019 13.1369 35.0978 13.1673 35.1713C13.1978 35.2449 13.2424 35.3117 13.2987 35.368C13.355 35.4243 13.4218 35.4689 13.4953 35.4994C13.5689 35.5298 13.6477 35.5455 13.7273 35.5455H34.3333V40.3939C34.3333 40.4735 34.3489 40.5524 34.3794 40.6259C34.4098 40.6995 34.4545 40.7663 34.5107 40.8226C34.567 40.8789 34.6339 40.9235 34.7074 40.954C34.781 40.9844 34.8598 41 34.9394 41H37.3636C37.4432 41 37.5221 40.9844 37.5956 40.954C37.6692 40.9235 37.736 40.8789 37.7923 40.8226C37.8486 40.7663 37.8932 40.6995 37.9237 40.6259C37.9541 40.5524 37.9697 40.4735 37.9697 40.3939V28.8788C38.7731 28.8778 39.5433 28.5583 40.1114 27.9902C40.6795 27.4221 40.9991 26.6519 41 25.8485V12.5152C41 12.4355 40.9844 12.3567 40.954 12.2832C40.9235 12.2096 40.8789 12.1428 40.8226 12.0865C40.7663 12.0302 40.6995 11.9856 40.6259 11.9551C40.5524 11.9247 40.4735 11.909 40.3939 11.9091ZM6.45455 39.7879H5.24242V28.8788H6.45455V39.7879ZM31.303 34.3333V28.8788C31.303 28.7181 31.2392 28.5639 31.1255 28.4502C31.0119 28.3366 30.8577 28.2727 30.697 28.2727C30.5362 28.2727 30.3821 28.3366 30.2684 28.4502C30.1548 28.5639 30.0909 28.7181 30.0909 28.8788V34.3333H25.8485V25.8485C25.8485 25.6877 25.7846 25.5336 25.671 25.4199C25.5573 25.3063 25.4032 25.2424 25.2424 25.2424C25.0817 25.2424 24.9275 25.3063 24.8139 25.4199C24.7002 25.5336 24.6364 25.6877 24.6364 25.8485V34.3333H17.9697V30.697C17.9697 30.5362 17.9058 30.3821 17.7922 30.2684C17.6785 30.1548 17.5244 30.0909 17.3636 30.0909C17.2029 30.0909 17.0487 30.1548 16.9351 30.2684C16.8214 30.3821 16.7576 30.5362 16.7576 30.697V34.3333H14.3333V18.5758H34.3333V34.3333H31.303ZM36.7576 39.7879H35.5455V28.8788H36.7576V39.7879Z" stroke="#FF8761" stroke-width="0.6" mask="url(#path-1-outside-1_157_339)"/>
<path d="M8.41626 19.5438H8.41643H11.3026C11.3026 19.5438 11.3026 19.5438 11.3026 19.5438C11.4019 19.5438 11.5002 19.5243 11.592 19.4863C11.6837 19.4483 11.7671 19.3926 11.8373 19.3224C11.9075 19.2522 11.9632 19.1688 12.0012 19.0771C12.0392 18.9854 12.0587 18.887 12.0587 18.7878C12.0587 18.7877 12.0587 18.7877 12.0587 18.7877L12.0587 17.1134L12.0587 17.1132C12.0571 15.7499 11.5148 14.4428 10.5507 13.4788C9.58667 12.5148 8.27959 11.9726 6.91624 11.9711H6.91608L4.02993 11.9711C4.02991 11.9711 4.0299 11.9711 4.02989 11.9711C3.9306 11.9711 3.83228 11.9906 3.74055 12.0286C3.64881 12.0666 3.56544 12.1223 3.49523 12.1925C3.42501 12.2627 3.36932 12.3461 3.33133 12.4378C3.29335 12.5295 3.27381 12.6279 3.27383 12.7272C3.27383 12.7272 3.27383 12.7272 3.27383 12.7272L3.27383 14.4015L3.27383 14.4017C3.2754 15.765 3.81771 17.0721 4.78177 18.0361C5.74583 19.0001 7.05292 19.5423 8.41626 19.5438ZM4.78595 13.4832H6.91591C7.87845 13.4843 8.80127 13.8671 9.48192 14.5477C10.1626 15.2282 10.5454 16.151 10.5466 17.1136V18.0317H8.41659C7.45405 18.0307 6.53123 17.6479 5.85059 16.9673C5.16997 16.2867 4.78709 15.3639 4.78595 14.4014C4.78595 14.4014 4.78595 14.4014 4.78595 14.4013L4.78595 13.4832Z" fill="#FF8761" stroke="#FF8761" stroke-width="0.3"/>
</svg>
