<svg width="40" height="40" viewBox="0 0 40 40" fill="none" xmlns="http://www.w3.org/2000/svg">
<g clip-path="url(#clip0_157_354)">
<path d="M18.2611 13.9131C14.4242 13.9131 11.3047 10.7934 11.3047 6.95642C11.3047 3.11948 14.4242 0 18.2611 0C22.098 0 25.2175 3.11948 25.2175 6.95642C25.2175 10.7934 22.098 13.9131 18.2611 13.9131ZM18.2611 1.73902C15.3808 1.73902 13.0437 4.07609 13.0437 6.95642C13.0437 9.83706 15.3808 12.1738 18.2611 12.1738C21.1414 12.1738 23.4785 9.83706 23.4785 6.95642C23.4785 4.07609 21.1414 1.73902 18.2611 1.73902Z" fill="#FF8761"/>
<path d="M33.0433 28.6956C29.2064 28.6956 26.0869 25.5761 26.0869 21.7392C26.0869 17.9023 29.2064 14.7825 33.0433 14.7825C36.8803 14.7825 40.0001 17.9023 40.0001 21.7392C40.0001 25.5761 36.8803 28.6956 33.0433 28.6956ZM33.0433 16.5218C30.163 16.5218 27.8259 18.8586 27.8259 21.7392C27.8259 24.6195 30.163 26.9566 33.0433 26.9566C35.924 26.9566 38.2607 24.6195 38.2607 21.7392C38.2607 18.8586 35.924 16.5218 33.0433 16.5218Z" fill="#FF8761"/>
<path d="M1.73902 33.0433H0V30.4346C0 29.0325 0.836872 27.7718 2.13039 27.2282L30.3369 15.326L31.0107 16.924L2.80422 28.8262C2.16319 29.0978 1.73902 29.7283 1.73902 30.4346V33.0433Z" fill="#FF8761"/>
<path d="M9.56475 40.0002H6.95605V38.2608H9.56475C10.2714 38.2608 10.8911 37.8478 11.1735 37.1956L23.0757 8.97827L24.6737 9.6521L12.7715 37.8698C12.2279 39.163 10.9672 40.0002 9.56475 40.0002Z" fill="#FF8761"/>
</g>
<defs>
<clipPath id="clip0_157_354">
<rect width="40" height="40" fill="white"/>
</clipPath>
</defs>
</svg>
