<svg width="40" height="40" viewBox="0 0 40 40" fill="none" xmlns="http://www.w3.org/2000/svg">
<path d="M39.9999 14.0624H0V7.69897H39.9999V14.0624ZM1.81807 12.2443H38.1818V9.51705H1.81807V12.2443Z" fill="#FF8761"/>
<path d="M36.3635 9.517H29.9998C27.9999 9.517 26.3633 7.8807 26.3633 5.88053C26.3633 3.88068 27.9999 2.24438 29.9998 2.24438H36.3635C38.3633 2.24438 39.9996 3.88068 39.9996 5.88053C39.9996 7.8807 38.3633 9.517 36.3635 9.517ZM29.9998 4.06246C28.9997 4.06246 28.1817 4.88077 28.1817 5.88053C28.1817 6.88062 28.9997 7.69893 29.9998 7.69893H36.3635C37.3633 7.69893 38.1816 6.88062 38.1816 5.88053C38.1816 4.88077 37.3633 4.06246 36.3635 4.06246H29.9998Z" fill="#FF8761"/>
<path d="M5.45452 37.6989C2.94331 37.6989 0.90918 35.6648 0.90918 33.1533C0.90918 30.642 2.94331 28.6079 5.45452 28.6079C7.96573 28.6079 9.99987 30.642 9.99987 33.1533C9.99987 35.6648 7.96573 37.6989 5.45452 37.6989ZM5.45452 30.426C3.95439 30.426 2.72725 31.6535 2.72725 33.1533C2.72725 34.6534 3.95439 35.8805 5.45452 35.8805C6.95466 35.8805 8.1818 34.6534 8.1818 33.1533C8.1818 31.6535 6.95466 30.426 5.45452 30.426Z" fill="#FF8761"/>
<path d="M34.5453 37.6989C32.0341 37.6989 30 35.6648 30 33.1533C30 30.642 32.0341 28.6079 34.5453 28.6079C37.0569 28.6079 39.091 30.642 39.091 33.1533C39.091 35.6648 37.0569 37.6989 34.5453 37.6989ZM34.5453 30.426C33.0455 30.426 31.8181 31.6535 31.8181 33.1533C31.8181 34.6534 33.0455 35.8805 34.5453 35.8805C36.0455 35.8805 37.2726 34.6534 37.2726 33.1533C37.2726 31.6535 36.0455 30.426 34.5453 30.426Z" fill="#FF8761"/>
<path d="M15.1848 12.5087L32.6135 29.937L31.3277 31.2227L13.8994 13.7944L15.1848 12.5087Z" fill="#FF8761"/>
<path d="M24.8131 12.5063L26.0988 13.7921L8.6705 31.2204L7.38477 29.935L24.8131 12.5063Z" fill="#FF8761"/>
<path d="M13.6367 24.0626H26.3639V25.8807H13.6367V24.0626Z" fill="#FF8761"/>
</svg>
