<svg width="22" height="22" viewBox="0 0 22 22" fill="none" xmlns="http://www.w3.org/2000/svg">
<path d="M18.0417 5.04183C18.0417 5.64014 17.5566 6.12516 16.9583 6.12516C16.36 6.12516 15.875 5.64014 15.875 5.04183C15.875 4.44352 16.36 3.9585 16.9583 3.9585C17.5566 3.9585 18.0417 4.44352 18.0417 5.04183Z" fill="white"/>
<path d="M1.25 9.05C1.25 5.80023 1.25 4.17535 2.07759 3.03626C2.34487 2.66839 2.66839 2.34487 3.03626 2.07759C4.17535 1.25 5.80023 1.25 9.05 1.25L12.95 1.25C16.1998 1.25 17.8247 1.25 18.9637 2.07759C19.3316 2.34487 19.6551 2.66839 19.9224 3.03626C20.75 4.17535 20.75 5.80023 20.75 9.05V12.95C20.75 16.1998 20.75 17.8247 19.9224 18.9637C19.6551 19.3316 19.3316 19.6551 18.9637 19.9224C17.8247 20.75 16.1998 20.75 12.95 20.75H9.05C5.80023 20.75 4.17535 20.75 3.03626 19.9224C2.66839 19.6551 2.34487 19.3316 2.07759 18.9637C1.25 17.8247 1.25 16.1998 1.25 12.95L1.25 9.05Z" stroke="white" stroke-width="1.625" stroke-linejoin="round"/>
<path d="M15.3333 11C15.3333 13.3932 13.3932 15.3333 11 15.3333C8.60677 15.3333 6.66667 13.3932 6.66667 11C6.66667 8.60677 8.60677 6.66667 11 6.66667C13.3932 6.66667 15.3333 8.60677 15.3333 11Z" stroke="white" stroke-width="1.625" stroke-linejoin="round"/>
</svg>
