<svg width="14" height="22" viewBox="0 0 14 22" fill="none" xmlns="http://www.w3.org/2000/svg">
<path d="M6.78398 20.75H7.21732C8.02976 20.75 8.43598 20.75 8.72075 20.5431C8.81272 20.4763 8.8936 20.3954 8.96042 20.3034C9.16732 20.0187 9.16732 19.6124 9.16732 18.8V12.625H10.5215C11.2822 12.625 11.6626 12.625 11.9359 12.4424C12.0541 12.3634 12.1557 12.2618 12.2347 12.1435C12.4173 11.8703 12.4173 11.4899 12.4173 10.7292C12.4173 9.96842 12.4173 9.58804 12.2347 9.3148C12.1557 9.19651 12.0541 9.09495 11.9359 9.01591C11.6626 8.83333 11.2822 8.83333 10.5215 8.83333H9.16732V6.66667C9.16732 6.1619 9.16732 5.90951 9.24978 5.71043C9.35973 5.44498 9.57063 5.23408 9.83608 5.12413C10.0352 5.04167 10.2875 5.04167 10.7923 5.04167C11.2971 5.04167 11.5495 5.04167 11.7486 4.9592C12.014 4.84925 12.2249 4.63835 12.3349 4.37291C12.4173 4.17382 12.4173 3.92144 12.4173 3.41668V3.41667V2.93519C12.4173 2.37384 12.4173 2.09316 12.3158 1.8755C12.2082 1.64467 12.0227 1.45914 11.7918 1.3515C11.5742 1.25 11.2935 1.25 10.7321 1.25C8.76742 1.25 7.78506 1.25 7.02322 1.60525C6.21531 1.98198 5.56597 2.63133 5.18923 3.43924C4.83398 4.20108 4.83398 5.18343 4.83398 7.14815V8.83333H3.47982C2.71907 8.83333 2.33869 8.83333 2.06545 9.01591C1.94716 9.09495 1.8456 9.19651 1.76656 9.3148C1.58398 9.58804 1.58398 9.96842 1.58398 10.7292C1.58398 11.4899 1.58398 11.8703 1.76656 12.1435C1.8456 12.2618 1.94716 12.3634 2.06545 12.4424C2.33869 12.625 2.71907 12.625 3.47982 12.625H4.83398V18.8C4.83398 19.6124 4.83398 20.0187 5.04088 20.3034C5.1077 20.3954 5.18858 20.4763 5.28055 20.5431C5.56532 20.75 5.97154 20.75 6.78398 20.75Z" stroke="white" stroke-width="1.625" stroke-linejoin="round"/>
</svg>
