<svg width="22" height="16" viewBox="0 0 22 16" fill="none" xmlns="http://www.w3.org/2000/svg">
<path d="M1.32927 6.07085C1.44632 4.4171 1.50485 3.59023 2.03939 2.84364C2.19465 2.62678 2.44496 2.36293 2.65333 2.19645C3.37072 1.62332 4.19406 1.52122 5.84072 1.31703C7.41416 1.12192 9.2534 0.958496 11 0.958496C12.7466 0.958496 14.5858 1.12192 16.1593 1.31703C17.8059 1.52122 18.6293 1.62332 19.3467 2.19645C19.555 2.36293 19.8053 2.62678 19.9606 2.84364C20.4952 3.59023 20.5537 4.4171 20.6707 6.07085C20.7183 6.74338 20.75 7.41186 20.75 8.00016C20.75 8.58846 20.7183 9.25695 20.6707 9.92947C20.5537 11.5832 20.4952 12.4101 19.9606 13.1567C19.8053 13.3735 19.555 13.6374 19.3467 13.8039C18.6293 14.377 17.8059 14.4791 16.1593 14.6833C14.5858 14.8784 12.7466 15.0418 11 15.0418C9.2534 15.0418 7.41416 14.8784 5.84072 14.6833C4.19406 14.4791 3.37072 14.377 2.65333 13.8039C2.44496 13.6374 2.19465 13.3735 2.03939 13.1567C1.50485 12.4101 1.44632 11.5832 1.32927 9.92947C1.28167 9.25695 1.25 8.58846 1.25 8.00016C1.25 7.41186 1.28167 6.74338 1.32927 6.07085Z" stroke="white" stroke-width="1.625" stroke-linejoin="round"/>
<path d="M11.6252 5.60443C13.2445 6.41408 14.0542 6.81891 14.2856 7.38261C14.448 7.77807 14.448 8.2216 14.2856 8.61707C14.0542 9.18076 13.2445 9.58559 11.6252 10.3952C10.2776 11.069 9.60384 11.4059 9.05851 11.2979C8.67399 11.2217 8.32997 11.0091 8.08987 10.6992C7.74935 10.2598 7.74935 9.50647 7.74935 7.99984C7.74935 6.4932 7.74935 5.73988 8.08987 5.30045C8.32997 4.9906 8.67399 4.77798 9.05852 4.7018C9.60384 4.59375 10.2776 4.93064 11.6252 5.60443Z" fill="white"/>
</svg>
