<svg width="57" height="57" viewBox="0 0 57 57" fill="none" xmlns="http://www.w3.org/2000/svg">
<path d="M34.7344 13.3594C34.7344 13.3594 31.1719 12.4688 31.1719 7.125C31.1719 1.78125 37.4063 1.78125 37.4063 1.78125C40.9688 1.78125 45.4219 5.34375 45.4219 10.6875C45.4219 14.25 44.5313 15.1406 44.5313 15.1406L44.525 15.1504" stroke="#FF8761" stroke-width="1.5" stroke-linecap="round" stroke-linejoin="round"/>
<path d="M22.2657 13.3594C22.2657 13.3594 25.8282 12.4688 25.8282 7.125C25.8282 1.78125 19.5938 1.78125 19.5938 1.78125C16.0313 1.78125 11.5782 5.34375 11.5782 10.6875C11.5782 14.25 12.4688 15.1406 12.4688 15.1406L12.475 15.1504" stroke="#FF8761" stroke-width="1.5" stroke-linecap="round" stroke-linejoin="round"/>
<path d="M38.2969 8.90625C39.5354 10.4035 40.1706 12.3091 40.0782 14.25C40.0782 18.7031 37.4063 20.4844 34.7344 20.4844C32.9532 20.4844 31.2815 19.7398 31.1719 16.0312C31.1719 13.2703 31.8844 12.4777 32.6058 11.8542" stroke="#FF8761" stroke-width="1.5" stroke-linecap="round" stroke-linejoin="round"/>
<path d="M18.7032 8.90625C17.4647 10.4035 16.8295 12.3091 16.9219 14.25C16.9219 18.7031 19.5938 20.4844 22.2657 20.4844C24.0469 20.4844 25.7186 19.7398 25.8282 16.0312C25.8282 13.2703 25.1157 12.4777 24.3942 11.8542" stroke="#FF8761" stroke-width="1.5" stroke-linecap="round" stroke-linejoin="round"/>
<path d="M45.4219 10.7498C47.3367 10.9903 51.6563 12.068 51.6563 16.9219C51.6606 17.6165 51.61 18.3104 51.5049 18.997C50.828 23.3611 48.0938 24.0469 48.0938 24.0469H48.0795" stroke="#FF8761" stroke-width="1.5" stroke-linecap="round" stroke-linejoin="round"/>
<path d="M11.5781 10.7498C9.66329 10.9903 5.34376 12.068 5.34376 16.9219C5.33944 17.6165 5.39007 18.3104 5.49517 18.997C6.17204 23.3611 8.90626 24.0469 8.90626 24.0469H8.92051" stroke="#FF8761" stroke-width="1.5" stroke-linecap="round" stroke-linejoin="round"/>
<path d="M51.5049 18.997C52.4157 19.4729 53.1679 20.2041 53.6693 21.1011C54.1708 21.998 54.3998 23.0218 54.3282 24.0469C54.3356 24.6484 54.2238 25.2454 53.9991 25.8034C53.7743 26.3613 53.4412 26.8692 53.0189 27.2976C51.4288 28.7293 49.3409 29.4807 47.2032 29.3906C45.8169 29.2965 44.5117 28.7032 43.5293 27.7208C42.5468 26.7383 41.9536 25.4331 41.8594 24.0469C41.8594 21.375 45.4219 19.5937 45.4219 19.5937" stroke="#FF8761" stroke-width="1.5" stroke-linecap="round" stroke-linejoin="round"/>
<path d="M5.49516 18.997C4.58437 19.4729 3.83217 20.2041 3.3307 21.1011C2.82923 21.998 2.60027 23.0218 2.67188 24.0469C2.66439 24.6484 2.77625 25.2454 3.00097 25.8034C3.22569 26.3613 3.55883 26.8692 3.9811 27.2976C5.57123 28.7293 7.65913 29.4807 9.79688 29.3906C11.1831 29.2965 12.4883 28.7032 13.4708 27.7208C14.4533 26.7383 15.0465 25.4331 15.1406 24.0469C15.1406 21.375 11.5781 19.5937 11.5781 19.5937" stroke="#FF8761" stroke-width="1.5" stroke-linecap="round" stroke-linejoin="round"/>
<path d="M53.0189 27.2977C53.861 28.7456 54.3122 30.3876 54.3282 32.0625C54.3282 32.0625 54.3282 36.8719 50.5252 37.3617C50.3097 37.3908 50.0925 37.4056 49.875 37.4062C45.4219 37.4062 43.6407 34.7344 43.6407 34.7344" stroke="#FF8761" stroke-width="1.5" stroke-linecap="round" stroke-linejoin="round"/>
<path d="M3.98112 27.2977C3.13902 28.7456 2.68786 30.3876 2.67191 32.0625C2.67191 32.0625 2.67191 36.8719 6.47487 37.3617C6.69039 37.3908 6.90757 37.4056 7.12503 37.4062C11.5782 37.4062 13.3594 34.7344 13.3594 34.7344" stroke="#FF8761" stroke-width="1.5" stroke-linecap="round" stroke-linejoin="round"/>
<path d="M33.915 20.422C33.8705 20.4577 33.8438 20.4844 33.8438 20.4844C33.8438 20.4844 31.1719 22.2656 31.1719 26.7187C31.1476 27.3994 31.272 28.0772 31.5366 28.7048C31.8012 29.3324 32.1995 29.8947 32.7038 30.3525C33.2566 30.8664 33.9797 31.1582 34.7344 31.1719C36.3856 31.1374 37.9681 30.5044 39.1875 29.3906" stroke="#FF8761" stroke-width="1.5" stroke-linecap="round" stroke-linejoin="round"/>
<path d="M23.085 20.422C23.1296 20.4577 23.1563 20.4844 23.1563 20.4844C23.1563 20.4844 25.8282 22.2656 25.8282 26.7187C25.8525 27.3994 25.728 28.0772 25.4634 28.7048C25.1989 29.3324 24.8006 29.8947 24.2963 30.3525C23.7435 30.8664 23.0204 31.1582 22.2657 31.1719C20.6145 31.1374 19.032 30.5044 17.8125 29.3906" stroke="#FF8761" stroke-width="1.5" stroke-linecap="round" stroke-linejoin="round"/>
<path d="M33.728 30.9759C32.9147 31.6493 32.2629 32.4966 31.8205 33.4553C31.3781 34.4141 31.1565 35.4599 31.1719 36.5156C31.1719 40.9688 33.8438 42.75 33.8438 42.75C33.8438 42.75 31.1719 44.5313 31.1719 49.875C31.1719 55.2188 36.5156 55.2188 36.5156 55.2188C39.1875 55.2188 43.6406 53.4375 43.6406 48.0938C43.6406 41.8594 47.2031 41.8594 47.2031 41.8594H47.2147" stroke="#FF8761" stroke-width="1.5" stroke-linecap="round" stroke-linejoin="round"/>
<path d="M23.272 30.9759C24.0853 31.6493 24.7372 32.4966 25.1795 33.4553C25.6219 34.4141 25.8435 35.4599 25.8281 36.5156C25.8281 40.9688 23.1562 42.75 23.1562 42.75C23.1562 42.75 25.8281 44.5313 25.8281 49.875C25.8281 55.2188 20.4844 55.2188 20.4844 55.2188C17.8125 55.2188 13.3594 53.4375 13.3594 48.0938C13.3594 41.8594 9.79686 41.8594 9.79686 41.8594H9.78529" stroke="#FF8761" stroke-width="1.5" stroke-linecap="round" stroke-linejoin="round"/>
<path d="M35.625 36.5156C35.625 36.5156 40.9688 36.5156 40.9688 40.9688C40.9688 45.4219 37.4063 45.4219 36.5157 48.9844" stroke="#FF8761" stroke-width="1.5" stroke-linecap="round" stroke-linejoin="round"/>
<path d="M21.375 36.5156C21.375 36.5156 16.0313 36.5156 16.0313 40.9688C16.0313 45.4219 19.5938 45.4219 20.4844 48.9844" stroke="#FF8761" stroke-width="1.5" stroke-linecap="round" stroke-linejoin="round"/>
<path d="M50.5252 37.3617C51.2995 38.5114 51.7262 39.8599 51.7542 41.2457C51.7822 42.6316 51.4103 43.9961 50.6831 45.1762C49.9559 46.3562 48.9042 47.3018 47.6536 47.8998C46.4031 48.4977 45.0068 48.7228 43.6317 48.548" stroke="#FF8761" stroke-width="1.5" stroke-linecap="round" stroke-linejoin="round"/>
<path d="M6.47482 37.3617C5.70052 38.5114 5.27384 39.8599 5.24583 41.2457C5.21781 42.6316 5.58965 43.9961 6.31685 45.1762C7.04405 46.3562 8.09583 47.3018 9.34635 47.8998C10.5969 48.4977 11.9932 48.7228 13.3683 48.548" stroke="#FF8761" stroke-width="1.5" stroke-linecap="round" stroke-linejoin="round"/>
</svg>
