<svg width="18" height="18" viewBox="0 0 18 18" fill="none" xmlns="http://www.w3.org/2000/svg">
<path d="M2.35427 2.39306L1.91242 1.95103H1.91242L2.35427 2.39306ZM6.47906 2.39306L6.92092 1.95103L6.47906 2.39306ZM6.47906 6.51624L6.03721 6.07421L6.47906 6.51624ZM11.4877 11.523L11.0459 11.0809L11.4877 11.523ZM15.6125 15.6461L15.1707 15.2041L15.6125 15.6461ZM5.30055 12.701L4.85869 13.143L5.30055 12.701ZM1.51544 4.75519L2.14043 4.75164C2.14032 4.73143 2.13922 4.71122 2.13715 4.69111L1.51544 4.75519ZM13.2495 16.4846L13.3135 15.8629C13.2934 15.8609 13.2732 15.8598 13.253 15.8596L13.2495 16.4846ZM4.87966 7.33343L4.781 6.71626C4.58107 6.74822 4.40901 6.87505 4.31932 7.05658C4.22964 7.2381 4.23344 7.45183 4.32953 7.63004L4.87966 7.33343ZM10.6702 13.1217L10.3738 13.672C10.552 13.768 10.7657 13.7717 10.9471 13.682C11.1286 13.5924 11.2554 13.4203 11.2874 13.2205L10.6702 13.1217ZM2.79613 2.83509C3.6911 1.94047 5.14223 1.94047 6.03721 2.83509L6.92092 1.95103C5.53783 0.568487 3.2955 0.568487 1.91242 1.95103L2.79613 2.83509ZM6.03721 2.83509C6.93204 3.72958 6.93204 5.17973 6.03721 6.07421L6.92092 6.95827C8.30414 5.57559 8.30414 3.33372 6.92092 1.95103L6.03721 2.83509ZM11.9296 11.965C12.8246 11.0704 14.2757 11.0704 15.1707 11.965L16.0544 11.0809C14.6713 9.69838 12.429 9.69838 11.0459 11.0809L11.9296 11.965ZM15.1707 11.965C16.0655 12.8595 16.0655 14.3096 15.1707 15.2041L16.0544 16.0882C17.4376 14.7055 17.4376 12.4636 16.0544 11.0809L15.1707 11.965ZM5.74241 12.259C3.38754 9.90503 2.15363 7.07629 2.14043 4.75164L0.890454 4.75874C0.905924 7.48449 2.32743 10.6128 4.85869 13.143L5.74241 12.259ZM2.13715 4.69111C2.06875 4.02744 2.2887 3.34232 2.79613 2.83509L1.91242 1.95103C1.12766 2.73548 0.7884 3.79725 0.893737 4.81927L2.13715 4.69111ZM15.1707 15.2041C14.6632 15.7114 13.9777 15.9313 13.3135 15.8629L13.1854 17.1063C14.2076 17.2116 15.2696 16.8726 16.0544 16.0882L15.1707 15.2041ZM13.253 15.8596C10.9272 15.8465 8.09726 14.6129 5.74241 12.259L4.85869 13.143C7.38997 15.6733 10.5194 17.0942 13.2459 17.1096L13.253 15.8596ZM6.03721 6.07421C5.68203 6.42925 5.24094 6.64274 4.781 6.71626L4.97832 7.95059C5.68948 7.83691 6.37337 7.5056 6.92092 6.95827L6.03721 6.07421ZM7.8048 10.1974C6.81484 9.20782 6.01903 8.12967 5.42979 7.03681L4.32953 7.63004C4.97819 8.83311 5.84785 10.0086 6.92109 11.0814L7.8048 10.1974ZM11.2874 13.2205C11.3609 12.7609 11.5744 12.32 11.9296 11.965L11.0459 11.0809C10.4983 11.6283 10.1668 12.312 10.0531 13.023L11.2874 13.2205ZM10.9667 12.5715C9.87335 11.9825 8.79476 11.187 7.8048 10.1974L6.92109 11.0814C7.99433 12.1543 9.17029 13.0236 10.3738 13.672L10.9667 12.5715Z" fill="white"/>
</svg>
