<svg width="243" height="256" viewBox="0 0 243 256" fill="none" xmlns="http://www.w3.org/2000/svg">
<g clip-path="url(#clip0_229_4124)">
<path d="M77.2441 203.942C77.641 202.524 77.5393 201.014 76.956 199.662C76.3727 198.311 75.3431 197.2 74.0394 196.517C74.8193 197.978 75.0134 199.681 74.5823 201.28C74.1708 202.684 74.2602 204.187 74.8353 205.532C75.4103 206.877 76.4353 207.98 77.7344 208.653C76.9773 207.202 76.8019 205.517 77.2441 203.942ZM74.7049 15.3055C73.7632 14.008 72.3804 13.0987 70.816 12.7482C69.2517 12.3976 67.6131 12.6298 66.2078 13.4012C64.8024 14.1727 63.7268 15.4304 63.1827 16.9384C62.6385 18.4464 62.6632 20.1011 63.2522 21.5922C63.7875 22.95 63.8564 24.4472 63.4483 25.8484C63.0401 27.2497 62.1779 28.4757 60.9972 29.3336C59.8165 30.1916 58.3842 30.6329 56.9253 30.5883C55.4665 30.5437 54.0639 30.0157 52.9378 29.0872C51.7007 28.0754 50.1377 27.5481 48.5405 27.6036C46.9432 27.6591 45.4207 28.2937 44.2568 29.389C43.0929 30.4843 42.3671 31.9655 42.2148 33.5565C42.0625 35.1474 42.494 36.7394 43.4289 38.0357C44.2896 39.2188 44.7316 40.6548 44.6854 42.1171C44.6392 43.5793 44.1073 44.9845 43.1737 46.1109C42.24 47.2373 40.9579 48.0206 39.5296 48.3373C38.1013 48.654 36.6081 48.486 35.2859 47.8598C33.8346 47.1729 32.1824 47.04 30.6399 47.4861C29.0975 47.9322 27.7713 48.9265 26.9106 50.282C26.05 51.6375 25.7143 53.2608 25.9667 54.8465C26.2192 56.4321 27.0423 57.8709 28.2812 58.8922C29.4128 59.8196 30.2023 61.0983 30.5244 62.5254C30.8464 63.9526 30.6827 65.4464 30.0592 66.7699C29.4357 68.0935 28.388 69.1709 27.0824 69.8312C25.7769 70.4915 24.2883 70.6969 22.8527 70.4149C21.2859 70.0417 19.6367 70.2574 18.2185 71.0208C16.8004 71.7842 15.7122 73.0421 15.1609 74.5554C14.6096 76.0687 14.6337 77.7318 15.2286 79.2285C15.8234 80.7252 16.9475 81.9511 18.3871 82.6731C17.8231 81.5716 17.58 80.3338 17.6856 79.1008C17.7912 77.8678 18.2412 76.6894 18.9842 75.6998C19.7273 74.7103 20.7336 73.9495 21.8882 73.5042C23.0428 73.059 24.2993 72.9473 25.5144 73.1817C26.952 73.4561 28.4401 73.2437 29.7435 72.578C31.0469 71.9124 32.0914 70.8314 32.7119 69.5059C33.3325 68.1805 33.4937 66.686 33.1702 65.2586C32.8467 63.8313 32.0569 62.5524 30.9255 61.624C29.6865 60.6027 28.8634 59.1639 28.611 57.5783C28.3586 55.9926 28.6942 54.3693 29.5549 53.0138C30.4155 51.6583 31.7418 50.664 33.2842 50.2179C34.8267 49.7719 36.4789 49.9047 37.9302 50.5916C39.2523 51.2276 40.7493 51.4025 42.1824 51.0885C43.6155 50.7745 44.9022 49.9897 45.8372 48.8592C46.7723 47.7286 47.3019 46.3176 47.3415 44.851C47.381 43.3844 46.9284 41.9468 46.0557 40.7675C45.1224 39.4695 44.6932 37.8763 44.8482 36.2851C45.0032 34.6939 45.7319 33.2134 46.8982 32.12C48.0645 31.0266 49.5889 30.3948 51.1867 30.3427C52.7846 30.2905 54.3469 30.8215 55.582 31.8365C56.7076 32.8125 58.1309 33.3779 59.6193 33.4403C61.1078 33.5028 62.5734 33.0587 63.7768 32.1806C64.9802 31.3024 65.8503 30.0421 66.2448 28.6055C66.6394 27.169 66.5351 25.6411 65.949 24.2715C65.4262 22.9914 65.3185 21.5796 65.6411 20.235C65.9636 18.8905 66.7002 17.6812 67.7469 16.7777C68.7936 15.8742 70.0974 15.3221 71.4747 15.1994C72.8519 15.0766 74.2329 15.3894 75.4229 16.0935C75.1661 15.8473 74.9262 15.584 74.7049 15.3055ZM86.5603 10.6123C86.7148 11.8443 86.5188 13.0949 85.9947 14.2205C85.4706 15.3461 84.6397 16.3011 83.5974 16.9758C82.5552 17.6506 81.3437 18.0177 80.1021 18.0351C78.8606 18.0525 77.6394 17.7194 76.5786 17.0742C76.8682 17.3534 77.1319 17.6582 77.3666 17.9848C78.2262 19.1646 79.4535 20.0253 80.8555 20.4316C82.2575 20.838 83.7547 20.7669 85.112 20.2297C86.4692 19.6924 87.6094 18.7193 88.3534 17.4635C89.0974 16.2076 89.403 14.7401 89.2221 13.2916C89.0676 12.096 89.2424 10.8808 89.7279 9.77731C90.2134 8.67379 90.9911 7.72382 91.977 7.02992C92.9629 6.33602 94.1195 5.92454 95.3222 5.83989C96.5248 5.75524 97.7277 6.00064 98.801 6.5496C98.0496 5.22956 96.8637 4.21085 95.4454 3.66698C94.0272 3.12311 92.4642 3.08771 91.0228 3.5668C89.5814 4.0459 88.3506 5.00986 87.5402 6.29452C86.7297 7.57918 86.3896 9.10507 86.5778 10.6123H86.5603ZM101.725 211.997C101.75 210.812 101.444 209.643 100.84 208.622C100.237 207.601 99.3611 206.769 98.3107 206.218C98.8054 207.177 99.0636 208.24 99.0637 209.318C99.0177 210.512 99.3149 211.694 99.9201 212.725C100.525 213.755 101.413 214.591 102.478 215.132C101.972 214.166 101.713 213.088 101.725 211.997ZM25.0416 137.415C25.8837 138.877 26.1225 140.609 25.7072 142.244C25.2919 143.879 24.2552 145.288 22.8176 146.171C21.8314 146.788 21.0259 147.655 20.4825 148.684C19.9392 149.712 19.6773 150.867 19.7235 152.029C19.7698 153.192 20.1224 154.321 20.7457 155.304C21.369 156.286 22.2408 157.086 23.2729 157.623C22.4109 156.168 22.1592 154.431 22.5725 152.791C22.9858 151.151 24.0307 149.74 25.4794 148.867C26.489 148.261 27.3176 147.396 27.8789 146.361C28.4402 145.325 28.7136 144.159 28.6707 142.982C28.6278 141.805 28.27 140.662 27.6348 139.67C26.9996 138.679 26.1102 137.876 25.0591 137.345L25.0416 137.415ZM20.2084 111.813C20.6689 112.663 20.9361 113.604 20.9909 114.569C21.0457 115.534 20.8869 116.499 20.5255 117.396C20.1642 118.292 19.6094 119.098 18.9007 119.756C18.192 120.413 17.347 120.906 16.4258 121.199C15.19 121.597 14.0988 122.35 13.2889 123.365C12.4789 124.379 11.9861 125.61 11.8721 126.904C11.7581 128.197 12.0279 129.495 12.6479 130.636C13.2678 131.777 14.2104 132.709 15.3576 133.317C14.8699 132.471 14.5794 131.525 14.5076 130.551C14.4359 129.576 14.5848 128.599 14.9433 127.69C15.3018 126.781 15.8606 125.965 16.5781 125.302C17.2956 124.639 18.1534 124.146 19.0876 123.861C20.3335 123.478 21.4379 122.734 22.2607 121.723C23.0835 120.712 23.5878 119.48 23.7097 118.182C23.8316 116.885 23.5656 115.58 22.9454 114.434C22.3252 113.287 21.3788 112.351 20.2259 111.743L20.2084 111.813ZM13.659 107.785C13.1408 106.808 12.8763 105.716 12.8899 104.61C12.9035 103.504 13.1948 102.419 13.737 101.455C14.2791 100.491 15.0548 99.679 15.9928 99.0928C16.9308 98.5067 18.001 98.1657 19.1051 98.101C20.5111 98.0015 21.8477 97.4524 22.9175 96.5347C23.9873 95.617 24.7335 94.3794 25.0457 93.005C25.3579 91.6305 25.2196 90.1921 24.6512 88.9023C24.0829 87.6125 23.1145 86.5398 21.8895 85.8427C22.3959 86.818 22.6509 87.9042 22.6313 89.003C22.6117 90.1017 22.3181 91.1782 21.7772 92.1348C21.2363 93.0913 20.4652 93.8977 19.5338 94.4809C18.6024 95.064 17.5401 95.4055 16.4434 95.4742C15.0509 95.5937 13.7326 96.1531 12.6793 97.0715C11.6259 97.9899 10.892 99.2197 10.5839 100.583C10.2758 101.946 10.4094 103.372 10.9653 104.654C11.5213 105.936 12.4708 107.008 13.6765 107.715L13.659 107.785ZM52.8853 181.334C53.4286 182.293 53.7142 183.376 53.7142 184.478C53.7142 185.579 53.4286 186.662 52.8853 187.621C52.4637 188.367 52.1953 189.19 52.0958 190.042C51.9963 190.893 52.0677 191.756 52.3058 192.58C52.5438 193.403 52.9439 194.171 53.4824 194.838C54.0209 195.505 54.6871 196.058 55.442 196.464C54.905 195.504 54.6304 194.419 54.6457 193.318C54.6611 192.218 54.9659 191.141 55.5295 190.195C55.9692 189.435 56.2504 188.594 56.356 187.723C56.4616 186.851 56.3895 185.967 56.144 185.124C55.8985 184.282 55.4847 183.497 54.9276 182.819C54.3705 182.14 53.6817 181.582 52.9027 181.177L52.8853 181.334ZM111.882 5.76157C111.757 6.82397 111.376 7.84003 110.771 8.72228C110.166 9.60454 109.355 10.3266 108.409 10.8262C107.463 11.3259 106.41 11.5882 105.341 11.5906C104.271 11.593 103.216 11.3354 102.268 10.84C102.94 12.0511 103.977 13.0188 105.232 13.6049C106.487 14.191 107.895 14.3653 109.255 14.1031C110.615 13.8408 111.857 13.1554 112.804 12.1447C113.75 11.134 114.353 9.84992 114.527 8.47589C114.651 7.40821 115.035 6.38727 115.645 5.5027C116.256 4.61812 117.074 3.89695 118.029 3.40248C118.983 2.908 120.044 2.65535 121.119 2.66669C122.194 2.67804 123.249 2.95303 124.193 3.46754C123.521 2.25696 122.485 1.28835 121.232 0.698747C119.979 0.109142 118.573 -0.0716159 117.212 0.18204C115.85 0.435697 114.603 1.11092 113.647 2.11221C112.691 3.1135 112.073 4.39015 111.882 5.76157ZM36.1791 160.986C36.8795 162.197 37.1645 163.603 36.9906 164.991C36.8167 166.379 36.1934 167.673 35.2159 168.673C34.5159 169.409 33.997 170.298 33.7006 171.269C33.4042 172.241 33.3384 173.268 33.5084 174.269C33.6784 175.27 34.0795 176.218 34.6799 177.037C35.2803 177.856 36.0634 178.524 36.9671 178.988C36.2592 177.783 35.973 176.376 36.1537 174.99C36.3345 173.604 36.9719 172.318 37.9652 171.335C38.6606 170.592 39.1743 169.698 39.4659 168.723C39.7576 167.748 39.8193 166.719 39.6462 165.716C39.4732 164.713 39.07 163.764 38.4684 162.943C37.8669 162.123 37.0832 161.453 36.1791 160.986ZM220.928 73.6896C220.287 72.4455 219.252 71.4491 217.985 70.8564C216.717 70.2638 215.289 70.1085 213.923 70.4149C212.462 70.7245 210.938 70.5139 209.615 69.8195C210.267 71.0535 211.304 72.0411 212.568 72.6321C213.832 73.2232 215.255 73.3854 216.62 73.0942C218.082 72.7948 219.602 73.0049 220.928 73.6896ZM214.396 146.398C214.858 147.218 215.499 147.924 216.27 148.465C215.802 147.648 215.163 146.943 214.396 146.398ZM201.49 47.8598C200.566 48.3199 199.544 48.5476 198.513 48.5232C197.481 48.4988 196.472 48.223 195.571 47.7197C196.359 49.2122 197.698 50.3392 199.303 50.8622C200.907 51.3851 202.653 51.263 204.169 50.5216C205.075 50.049 206.081 49.8021 207.102 49.8021C208.124 49.8021 209.13 50.049 210.036 50.5216C209.24 49.0508 207.901 47.9491 206.304 47.4518C204.708 46.9545 202.98 47.1009 201.49 47.8598ZM223.012 98.0309C223.958 98.0851 224.882 98.3356 225.726 98.7664C225.217 97.7698 224.45 96.9284 223.504 96.3307C222.558 95.7329 221.469 95.4008 220.35 95.3691C219.395 95.3096 218.464 95.0469 217.618 94.5986C218.123 95.6104 218.889 96.4687 219.838 97.0845C220.786 97.7003 221.882 98.0513 223.012 98.101V98.0309ZM220.367 121.164C219.978 121.046 219.603 120.887 219.247 120.691C219.638 121.438 220.174 122.1 220.823 122.639C221.472 123.177 222.222 123.58 223.029 123.826C223.44 123.96 223.839 124.13 224.22 124.334C223.824 123.573 223.279 122.901 222.617 122.356C221.955 121.812 221.19 121.406 220.367 121.164ZM137.59 7.33763C137.25 8.2106 136.728 9.00064 136.057 9.65444C135.386 10.3082 134.583 10.8106 133.702 11.1276C132.821 11.4446 131.881 11.5689 130.948 11.4921C130.015 11.4153 129.108 11.1392 128.291 10.6824C128.885 11.793 129.784 12.7106 130.882 13.3269C131.98 13.9432 133.232 14.2325 134.489 14.1607C135.746 14.089 136.957 13.659 137.978 12.9217C138.999 12.1844 139.788 11.1704 140.251 9.99941C140.583 9.11442 141.105 8.31276 141.779 7.65067C142.454 6.98859 143.265 6.4821 144.156 6.16674C145.047 5.85137 145.996 5.73477 146.937 5.82511C147.878 5.91545 148.788 6.21055 149.603 6.68969C149.013 5.56891 148.114 4.64087 147.012 4.01571C145.911 3.39055 144.653 3.09451 143.388 3.16272C142.124 3.23094 140.905 3.66054 139.877 4.40054C138.849 5.14055 138.055 6.1599 137.59 7.33763ZM183.855 29.0522C182.853 29.9222 181.603 30.4573 180.281 30.5829C178.96 30.7084 177.632 30.4182 176.483 29.7526C176.928 30.6308 177.564 31.3977 178.345 31.9967C179.126 32.5957 180.032 33.0115 180.996 33.2132C181.959 33.415 182.955 33.3976 183.911 33.1623C184.867 32.9271 185.758 32.48 186.517 31.8541C187.51 30.971 188.758 30.4271 190.08 30.3011C191.403 30.1752 192.731 30.4737 193.872 31.1536C193.431 30.2737 192.796 29.5051 192.016 28.9057C191.235 28.3063 190.329 27.8916 189.365 27.6927C188.401 27.4939 187.404 27.516 186.45 27.7575C185.496 27.9991 184.609 28.4537 183.855 29.0872V29.0522ZM152.755 208.723C152.151 207.587 151.225 206.655 150.093 206.043C150.704 207.209 151.649 208.166 152.807 208.793L152.755 208.723ZM127.45 213.521C127.238 212.626 126.835 211.788 126.27 211.063C125.705 210.338 124.991 209.743 124.176 209.318C124.435 209.808 124.641 210.325 124.788 210.859C124.992 211.759 125.391 212.604 125.957 213.333C126.523 214.062 127.242 214.659 128.063 215.079C127.796 214.587 127.59 214.063 127.45 213.521ZM162.088 15.3055C161.162 16.6214 159.78 17.5458 158.21 17.8986C156.64 18.2514 154.995 18.0075 153.595 17.2142C154.125 18.199 154.896 19.0335 155.836 19.6398C156.775 20.2461 157.853 20.6045 158.969 20.6814C160.085 20.7583 161.202 20.5514 162.216 20.0798C163.23 19.6083 164.108 18.8875 164.768 17.9848C165.675 16.6454 167.06 15.7035 168.639 15.3519C170.218 15.0003 171.871 15.2656 173.261 16.0935C172.739 15.1 171.973 14.2563 171.033 13.6424C170.094 13.0285 169.014 12.6649 167.894 12.5859C166.775 12.507 165.654 12.7154 164.638 13.1913C163.622 13.6673 162.744 14.395 162.088 15.3055Z" fill="#F2EFEF"/>
<path d="M223.03 123.791C221.636 123.345 220.43 122.447 219.605 121.239C218.779 120.03 218.381 118.58 218.474 117.12C218.566 115.659 219.144 114.271 220.116 113.176C221.087 112.082 222.396 111.343 223.836 111.077C225.417 110.782 226.835 109.919 227.824 108.65C228.812 107.382 229.302 105.795 229.201 104.19C229.099 102.584 228.414 101.072 227.274 99.9371C226.134 98.8025 224.618 98.1245 223.012 98.0309C221.549 97.9491 220.155 97.3799 219.052 96.4141C217.949 95.4483 217.202 94.1413 216.928 92.7013C216.654 91.2613 216.87 89.771 217.541 88.4678C218.212 87.1646 219.3 86.1234 220.631 85.51C222.07 84.8211 223.209 83.6333 223.838 82.1673C224.467 80.7013 224.543 79.0568 224.05 77.5395C223.558 76.0221 222.532 74.735 221.162 73.9174C219.792 73.0998 218.172 72.8073 216.603 73.0942C215.183 73.3451 213.72 73.123 212.438 72.4618C211.157 71.8007 210.128 70.7371 209.509 69.4344C208.891 68.1317 208.717 66.662 209.015 65.251C209.312 63.84 210.065 62.5658 211.157 61.624C212.396 60.6027 213.219 59.1639 213.472 57.5782C213.724 55.9926 213.388 54.3693 212.528 53.0138C211.667 51.6583 210.341 50.664 208.798 50.2179C207.256 49.7718 205.604 49.9047 204.152 50.5916C202.83 51.2276 201.333 51.4025 199.9 51.0885C198.467 50.7745 197.18 49.9897 196.245 48.8591C195.31 47.7286 194.781 46.3175 194.741 44.851C194.702 43.3844 195.154 41.9468 196.027 40.7675C196.96 39.4695 197.389 37.8762 197.234 36.2851C197.079 34.6939 196.351 33.2134 195.184 32.12C194.018 31.0265 192.494 30.3948 190.896 30.3427C189.298 30.2905 187.736 30.8215 186.501 31.8365C185.366 32.7394 183.966 33.2427 182.516 33.2683C181.067 33.294 179.65 32.8406 178.484 31.9785C177.319 31.1164 176.47 29.8937 176.071 28.5002C175.671 27.1067 175.742 25.6202 176.274 24.2714C176.886 22.7792 176.927 21.1138 176.39 19.593C175.853 18.0721 174.775 16.8021 173.362 16.025C171.948 15.248 170.298 15.0183 168.726 15.3797C167.154 15.7411 165.771 16.6684 164.838 17.9847C163.982 19.1738 162.754 20.0432 161.347 20.4554C159.941 20.8675 158.438 20.7988 157.075 20.2602C155.712 19.7215 154.568 18.7437 153.824 17.4815C153.079 16.2192 152.777 14.7448 152.966 13.2916C153.159 11.7058 152.769 10.1038 151.869 8.78416C150.968 7.46448 149.619 6.51712 148.072 6.11858C146.525 5.72005 144.886 5.89753 143.46 6.61795C142.034 7.33838 140.919 8.55261 140.322 10.0344C139.781 11.3876 138.807 12.5232 137.551 13.2632C136.296 14.0031 134.83 14.3057 133.384 14.1235C131.939 13.9412 130.594 13.2845 129.562 12.2561C128.529 11.2278 127.867 9.88594 127.679 8.44084C127.477 6.8511 126.702 5.3896 125.499 4.33028C124.297 3.27096 122.749 2.68652 121.147 2.68652C119.544 2.68652 117.997 3.27096 116.794 4.33028C115.592 5.3896 114.817 6.8511 114.615 8.44084C114.427 9.88594 113.764 11.2278 112.732 12.2561C111.699 13.2845 110.355 13.9412 108.909 14.1235C107.463 14.3057 105.998 14.0031 104.742 13.2632C103.487 12.5232 102.512 11.3876 101.971 10.0344C101.386 8.53551 100.272 7.30289 98.8397 6.56936C97.4074 5.83583 95.7561 5.65219 94.1977 6.05311C92.6392 6.45403 91.2816 7.41177 90.3811 8.74541C89.4807 10.079 89.0998 11.6963 89.3104 13.2916C89.4912 14.74 89.1857 16.2075 88.4417 17.4634C87.6977 18.7193 86.5575 19.6924 85.2002 20.2296C83.843 20.7669 82.3457 20.838 80.9437 20.4316C79.5417 20.0252 78.3145 19.1645 77.4549 17.9847C76.5665 16.5655 75.1695 15.5392 73.5496 15.1157C71.9297 14.6922 70.2091 14.9035 68.7398 15.7064C67.2705 16.5093 66.1633 17.8431 65.6447 19.4351C65.1261 21.0272 65.2352 22.7572 65.9497 24.2714C66.5214 25.6341 66.6181 27.1496 66.2242 28.5739C65.8303 29.9982 64.9687 31.2486 63.778 32.1239C62.5874 32.9992 61.1369 33.4485 59.6599 33.3995C58.183 33.3506 56.7654 32.8062 55.6353 31.854C54.4001 30.839 52.8379 30.308 51.24 30.3602C49.6421 30.4123 48.1178 31.0441 46.9515 32.1375C45.7851 33.2309 45.0565 34.7114 44.9014 36.3026C44.7464 37.8937 45.1756 39.487 46.109 40.785C46.9535 41.9703 47.3803 43.4025 47.3224 44.8567C47.2645 46.311 46.7252 47.7047 45.7892 48.8192C44.8531 49.9336 43.5734 50.7055 42.1511 51.0136C40.7287 51.3218 39.2443 51.1487 37.9309 50.5215C36.4796 49.8347 34.8274 49.7018 33.285 50.1479C31.7425 50.5939 30.4162 51.5883 29.5556 52.9438C28.6949 54.2993 28.3593 55.9225 28.6117 57.5082C28.8641 59.0939 29.6873 60.5327 30.9263 61.5539C32.0513 62.4855 32.8347 63.7646 33.1531 65.1901C33.4715 66.6157 33.3069 68.1066 32.6852 69.4283C32.0634 70.75 31.0199 71.8275 29.7187 72.4911C28.4175 73.1548 26.9326 73.3669 25.4976 73.0942C23.9284 72.8073 22.3084 73.0998 20.9387 73.9174C19.5689 74.735 18.5425 76.0221 18.0503 77.5395C17.5581 79.0568 17.6335 80.7013 18.2624 82.1673C18.8914 83.6333 20.0311 84.8211 21.4699 85.51C22.7884 86.1349 23.8619 87.18 24.522 88.4812C25.182 89.7824 25.3912 91.266 25.1167 92.699C24.8421 94.132 24.0993 95.4332 23.005 96.3983C21.9107 97.3633 20.5269 97.9376 19.0708 98.0309C17.4661 98.1277 15.9523 98.8082 14.8147 99.9442C13.6771 101.08 12.9944 102.593 12.8953 104.198C12.7963 105.802 13.2877 107.388 14.2769 108.655C15.266 109.922 16.6846 110.784 18.2653 111.077C19.7037 111.345 21.0114 112.086 21.9809 113.182C22.9503 114.278 23.526 115.666 23.6165 117.127C23.707 118.587 23.3072 120.036 22.4805 121.243C21.6538 122.45 20.4476 123.347 19.0533 123.791C17.5255 124.284 16.2307 125.319 15.4124 126.7C14.5941 128.082 14.3087 129.714 14.6099 131.291C14.9111 132.869 15.7782 134.281 17.048 135.264C18.3178 136.246 19.9028 136.731 21.5049 136.627C22.9662 136.525 24.4197 136.914 25.6341 137.733C26.8485 138.552 27.7543 139.754 28.2072 141.147C28.6601 142.54 28.6343 144.045 28.1338 145.421C27.6333 146.798 26.6869 147.968 25.4451 148.745C24.09 149.604 23.0953 150.928 22.6476 152.469C22.2 154.01 22.3303 155.661 23.0141 157.112C23.6978 158.563 24.888 159.715 26.3611 160.351C27.8341 160.987 29.4886 161.063 31.0138 160.565C32.4032 160.115 33.9028 160.14 35.2765 160.636C36.6502 161.132 37.8202 162.07 38.6023 163.303C39.3844 164.537 39.7343 165.995 39.5969 167.449C39.4596 168.903 38.8427 170.27 37.8434 171.335C36.7501 172.504 36.1198 174.031 36.0705 175.63C36.0212 177.23 36.5562 178.793 37.5755 180.027C38.5947 181.261 40.0285 182.081 41.6087 182.334C43.1889 182.588 44.8074 182.257 46.1615 181.404C47.3972 180.613 48.8617 180.257 50.3227 180.394C51.7836 180.53 53.1571 181.15 54.2253 182.156C55.2936 183.162 55.9952 184.496 56.2189 185.946C56.4426 187.396 56.1756 188.879 55.4602 190.16C54.7107 191.557 54.4917 193.177 54.8436 194.723C55.1955 196.268 56.0945 197.635 57.3747 198.569C58.6549 199.504 60.23 199.944 61.8093 199.808C63.3885 199.672 64.8654 198.97 65.9673 197.83C66.9682 196.767 68.294 196.067 69.7363 195.84C71.1786 195.613 72.6555 195.871 73.9348 196.575C75.2141 197.279 76.2231 198.388 76.8033 199.728C77.3834 201.068 77.5018 202.562 77.1398 203.977C76.732 205.533 76.9081 207.184 77.6346 208.62C78.3612 210.055 79.588 211.174 81.0835 211.767C82.579 212.36 84.2397 212.384 85.7521 211.836C87.2645 211.288 88.524 210.206 89.2928 208.793C89.9891 207.502 91.0971 206.482 92.4404 205.895C93.7836 205.307 95.2849 205.186 96.7049 205.551C98.125 205.915 99.3822 206.745 100.276 207.907C101.17 209.068 101.65 210.496 101.639 211.962C101.644 213.563 102.232 215.106 103.293 216.305C104.353 217.503 105.814 218.274 107.402 218.474C108.99 218.673 110.596 218.288 111.92 217.389C113.245 216.49 114.196 215.14 114.597 213.591C114.963 212.178 115.787 210.927 116.941 210.034C118.095 209.141 119.513 208.657 120.972 208.657C122.431 208.657 123.848 209.141 125.002 210.034C126.156 210.927 126.98 212.178 127.346 213.591C127.747 215.14 128.699 216.49 130.023 217.389C131.347 218.288 132.953 218.673 134.541 218.474C136.129 218.274 137.59 217.503 138.651 216.305C139.711 215.106 140.299 213.563 140.305 211.962C140.293 210.496 140.773 209.068 141.667 207.907C142.561 206.745 143.818 205.915 145.238 205.551C146.658 205.186 148.16 205.307 149.503 205.895C150.846 206.482 151.954 207.502 152.65 208.793C153.428 210.188 154.687 211.253 156.192 211.789C157.697 212.325 159.345 212.295 160.83 211.706C162.315 211.117 163.535 210.008 164.262 208.586C164.99 207.164 165.176 205.526 164.786 203.977C164.417 202.559 164.531 201.058 165.111 199.712C165.691 198.366 166.704 197.253 167.988 196.547C169.272 195.842 170.755 195.585 172.202 195.817C173.649 196.05 174.977 196.758 175.976 197.83C177.078 198.97 178.555 199.672 180.134 199.808C181.713 199.944 183.288 199.504 184.568 198.569C185.849 197.635 186.748 196.268 187.1 194.723C187.451 193.177 187.232 191.557 186.483 190.16C185.75 188.88 185.469 187.39 185.686 185.93C185.903 184.471 186.605 183.127 187.679 182.115C188.754 181.104 190.137 180.483 191.607 180.354C193.077 180.225 194.548 180.595 195.782 181.404C197.136 182.257 198.754 182.588 200.334 182.334C201.915 182.081 203.348 181.261 204.368 180.027C205.387 178.793 205.922 177.23 205.873 175.63C205.823 174.031 205.193 172.504 204.1 171.335C203.101 170.27 202.484 168.903 202.346 167.449C202.209 165.995 202.559 164.537 203.341 163.303C204.123 162.07 205.293 161.132 206.667 160.636C208.04 160.14 209.54 160.115 210.929 160.565C212.455 161.063 214.109 160.987 215.582 160.351C217.055 159.715 218.245 158.563 218.929 157.112C219.613 155.661 219.743 154.01 219.296 152.469C218.848 150.928 217.853 149.604 216.498 148.745C215.256 147.968 214.31 146.798 213.809 145.421C213.309 144.045 213.283 142.54 213.736 141.147C214.189 139.754 215.095 138.552 216.309 137.733C217.524 136.914 218.977 136.525 220.438 136.627C222.057 136.778 223.675 136.326 224.98 135.356C226.285 134.386 227.185 132.968 227.506 131.374C227.828 129.78 227.549 128.124 226.723 126.724C225.896 125.324 224.581 124.279 223.03 123.791ZM121.462 195.939C104.4 195.929 87.7233 190.86 73.5415 181.373C59.3597 171.886 48.3091 158.407 41.7868 142.64C35.2645 126.874 33.5633 109.527 36.8984 92.794C40.2335 76.0607 48.455 60.692 60.5236 48.6307C72.5923 36.5694 87.966 28.3573 104.701 25.0324C121.437 21.7075 138.782 23.4192 154.545 29.9511C170.307 36.483 183.779 47.5418 193.258 61.7293C202.736 75.9169 207.795 92.5963 207.795 109.659C207.795 132.542 198.705 154.487 182.524 170.668C166.343 186.849 144.397 195.939 121.514 195.939H121.462Z" fill="#F2EFEF"/>
<path d="M121.076 21.3467C103.412 21.3467 86.1445 26.5846 71.4576 36.3981C56.7707 46.2116 45.3236 60.1599 38.564 76.4791C31.8043 92.7984 30.0357 110.756 33.4817 128.08C36.9278 145.404 45.4337 161.318 57.9239 173.808C70.4141 186.298 86.3276 194.804 103.652 198.25C120.976 201.696 138.934 199.928 155.253 193.168C171.572 186.408 185.52 174.961 195.334 160.274C205.147 145.587 210.385 128.32 210.385 110.657C210.385 86.9701 200.976 64.2538 184.227 47.5049C167.478 30.7561 144.762 21.3467 121.076 21.3467ZM121.076 195.588C104.264 195.592 87.8295 190.609 73.8504 181.271C59.8714 171.932 48.976 158.658 42.5426 143.126C36.1092 127.594 34.4268 110.504 37.7082 94.0158C40.9896 77.5278 49.0875 62.3835 60.9773 50.4985C72.8672 38.6136 88.0148 30.522 104.504 27.2474C120.993 23.9727 138.084 25.6622 153.613 32.102C169.141 38.5418 182.412 49.4427 191.744 63.4256C201.077 77.4085 206.053 93.8452 206.042 110.657C206.029 133.182 197.071 154.78 181.138 170.703C165.205 186.626 143.601 195.571 121.076 195.571V195.588Z" fill="#F2EFEF"/>
<path d="M219.317 223.695L242.082 191.666L0.0525352 191.648L22.8178 223.677L0 255.619L242.135 255.636L219.317 223.695Z" fill="#F2EFEF"/>
</g>
<path d="M104.285 96.176C103.479 96.176 102.665 96.1467 101.843 96.088C101.022 96.044 100.303 95.9413 99.6873 95.78V80.974C100.01 80.9153 100.355 80.864 100.721 80.82C101.088 80.7613 101.462 80.7173 101.843 80.688C102.225 80.6587 102.599 80.6367 102.965 80.622C103.347 80.6073 103.706 80.6 104.043 80.6C104.967 80.6 105.825 80.6733 106.617 80.82C107.409 80.952 108.091 81.1793 108.663 81.502C109.25 81.8247 109.705 82.25 110.027 82.778C110.35 83.306 110.511 83.9587 110.511 84.736C110.511 85.4547 110.335 86.0707 109.983 86.584C109.646 87.0973 109.169 87.508 108.553 87.816C109.477 88.124 110.159 88.5787 110.599 89.18C111.039 89.7813 111.259 90.544 111.259 91.468C111.259 93.0373 110.687 94.218 109.543 95.01C108.399 95.7873 106.647 96.176 104.285 96.176ZM102.415 89.136V93.778C102.723 93.8073 103.053 93.8293 103.405 93.844C103.757 93.8587 104.08 93.866 104.373 93.866C104.945 93.866 105.473 93.8293 105.957 93.756C106.456 93.6827 106.881 93.558 107.233 93.382C107.6 93.1913 107.886 92.942 108.091 92.634C108.311 92.326 108.421 91.93 108.421 91.446C108.421 90.5807 108.106 89.9793 107.475 89.642C106.845 89.3047 105.972 89.136 104.857 89.136H102.415ZM102.415 86.958H104.373C105.429 86.958 106.258 86.8113 106.859 86.518C107.461 86.21 107.761 85.6673 107.761 84.89C107.761 84.1567 107.446 83.636 106.815 83.328C106.199 83.02 105.393 82.866 104.395 82.866C103.97 82.866 103.589 82.8733 103.251 82.888C102.929 82.9027 102.65 82.9247 102.415 82.954V86.958ZM113.376 90.302C113.376 89.29 113.523 88.4027 113.816 87.64C114.124 86.8773 114.528 86.2467 115.026 85.748C115.525 85.2347 116.097 84.8533 116.742 84.604C117.388 84.34 118.048 84.208 118.722 84.208C120.306 84.208 121.538 84.6993 122.418 85.682C123.313 86.6647 123.76 88.1313 123.76 90.082C123.76 90.2287 123.753 90.3973 123.738 90.588C123.738 90.764 123.731 90.9253 123.716 91.072H116.126C116.2 91.996 116.522 92.7147 117.094 93.228C117.681 93.7267 118.524 93.976 119.624 93.976C120.27 93.976 120.856 93.9173 121.384 93.8C121.927 93.6827 122.352 93.558 122.66 93.426L123.012 95.604C122.866 95.6773 122.66 95.758 122.396 95.846C122.147 95.9193 121.854 95.9853 121.516 96.044C121.194 96.1173 120.842 96.176 120.46 96.22C120.079 96.264 119.69 96.286 119.294 96.286C118.282 96.286 117.402 96.1393 116.654 95.846C115.906 95.538 115.29 95.12 114.806 94.592C114.322 94.0493 113.963 93.4187 113.728 92.7C113.494 91.9667 113.376 91.1673 113.376 90.302ZM121.098 89.114C121.098 88.7473 121.047 88.4027 120.944 88.08C120.842 87.7427 120.688 87.4567 120.482 87.222C120.292 86.9727 120.05 86.782 119.756 86.65C119.478 86.5033 119.14 86.43 118.744 86.43C118.334 86.43 117.974 86.5107 117.666 86.672C117.358 86.8187 117.094 87.0167 116.874 87.266C116.669 87.5153 116.508 87.8013 116.39 88.124C116.273 88.4467 116.192 88.7767 116.148 89.114H121.098ZM129.465 94.086C130.169 94.086 130.682 94.0053 131.005 93.844C131.327 93.668 131.489 93.3747 131.489 92.964C131.489 92.5827 131.313 92.2673 130.961 92.018C130.623 91.7687 130.059 91.4973 129.267 91.204C128.783 91.028 128.335 90.8447 127.925 90.654C127.529 90.4487 127.184 90.214 126.891 89.95C126.597 89.686 126.363 89.3707 126.187 89.004C126.025 88.6227 125.945 88.1607 125.945 87.618C125.945 86.562 126.333 85.7333 127.111 85.132C127.888 84.516 128.944 84.208 130.279 84.208C130.953 84.208 131.599 84.274 132.215 84.406C132.831 84.5233 133.293 84.6407 133.601 84.758L133.117 86.914C132.823 86.782 132.449 86.6647 131.995 86.562C131.54 86.4447 131.012 86.386 130.411 86.386C129.868 86.386 129.428 86.4813 129.091 86.672C128.753 86.848 128.585 87.1267 128.585 87.508C128.585 87.6987 128.614 87.8673 128.673 88.014C128.746 88.1607 128.863 88.3 129.025 88.432C129.186 88.5493 129.399 88.674 129.663 88.806C129.927 88.9233 130.249 89.048 130.631 89.18C131.261 89.4147 131.797 89.6493 132.237 89.884C132.677 90.104 133.036 90.3607 133.315 90.654C133.608 90.9327 133.821 91.2553 133.953 91.622C134.085 91.9887 134.151 92.4287 134.151 92.942C134.151 94.042 133.74 94.878 132.919 95.45C132.112 96.0073 130.953 96.286 129.443 96.286C128.431 96.286 127.617 96.198 127.001 96.022C126.385 95.8607 125.952 95.7287 125.703 95.626L126.165 93.404C126.561 93.5653 127.03 93.7193 127.573 93.866C128.13 94.0127 128.761 94.086 129.465 94.086ZM136.505 81.458L139.167 81.018V84.494H143.259V86.716H139.167V91.402C139.167 92.326 139.314 92.986 139.607 93.382C139.901 93.778 140.399 93.976 141.103 93.976C141.587 93.976 142.013 93.9247 142.379 93.822C142.761 93.7193 143.061 93.624 143.281 93.536L143.721 95.648C143.413 95.78 143.01 95.912 142.511 96.044C142.013 96.1907 141.426 96.264 140.751 96.264C139.93 96.264 139.241 96.154 138.683 95.934C138.141 95.714 137.708 95.3987 137.385 94.988C137.063 94.5627 136.835 94.0567 136.703 93.47C136.571 92.8687 136.505 92.1867 136.505 91.424V81.458ZM69.3161 125V108.368L71.9781 107.928V113.626C72.2714 113.523 72.6087 113.435 72.9901 113.362C73.3861 113.289 73.7747 113.252 74.1561 113.252C75.0801 113.252 75.8427 113.384 76.4441 113.648C77.0601 113.897 77.5514 114.257 77.9181 114.726C78.2847 115.181 78.5414 115.731 78.6881 116.376C78.8494 117.021 78.9301 117.74 78.9301 118.532V125H76.2681V118.95C76.2681 118.334 76.2241 117.813 76.1361 117.388C76.0627 116.948 75.9307 116.596 75.7401 116.332C75.5641 116.053 75.3221 115.855 75.0141 115.738C74.7061 115.606 74.3247 115.54 73.8701 115.54C73.5181 115.54 73.1587 115.577 72.7921 115.65C72.4254 115.723 72.1541 115.789 71.9781 115.848V125H69.3161ZM92.5268 119.236C92.5268 120.145 92.3948 120.974 92.1308 121.722C91.8668 122.47 91.4928 123.108 91.0088 123.636C90.5248 124.164 89.9381 124.575 89.2488 124.868C88.5741 125.161 87.8261 125.308 87.0048 125.308C86.1834 125.308 85.4354 125.161 84.7608 124.868C84.0861 124.575 83.5068 124.164 83.0228 123.636C82.5388 123.108 82.1574 122.47 81.8788 121.722C81.6148 120.974 81.4828 120.145 81.4828 119.236C81.4828 118.327 81.6148 117.505 81.8788 116.772C82.1574 116.024 82.5388 115.386 83.0228 114.858C83.5214 114.33 84.1081 113.927 84.7828 113.648C85.4574 113.355 86.1981 113.208 87.0048 113.208C87.8114 113.208 88.5521 113.355 89.2268 113.648C89.9161 113.927 90.5028 114.33 90.9868 114.858C91.4708 115.386 91.8448 116.024 92.1088 116.772C92.3874 117.505 92.5268 118.327 92.5268 119.236ZM89.7988 119.236C89.7988 118.092 89.5494 117.19 89.0508 116.53C88.5668 115.855 87.8848 115.518 87.0048 115.518C86.1248 115.518 85.4354 115.855 84.9368 116.53C84.4528 117.19 84.2108 118.092 84.2108 119.236C84.2108 120.395 84.4528 121.311 84.9368 121.986C85.4354 122.661 86.1248 122.998 87.0048 122.998C87.8848 122.998 88.5668 122.661 89.0508 121.986C89.5494 121.311 89.7988 120.395 89.7988 119.236ZM98.1512 123.086C98.8552 123.086 99.3685 123.005 99.6912 122.844C100.014 122.668 100.175 122.375 100.175 121.964C100.175 121.583 99.9992 121.267 99.6472 121.018C99.3099 120.769 98.7452 120.497 97.9532 120.204C97.4692 120.028 97.0219 119.845 96.6112 119.654C96.2152 119.449 95.8705 119.214 95.5772 118.95C95.2839 118.686 95.0492 118.371 94.8732 118.004C94.7119 117.623 94.6312 117.161 94.6312 116.618C94.6312 115.562 95.0199 114.733 95.7972 114.132C96.5745 113.516 97.6305 113.208 98.9652 113.208C99.6399 113.208 100.285 113.274 100.901 113.406C101.517 113.523 101.979 113.641 102.287 113.758L101.803 115.914C101.51 115.782 101.136 115.665 100.681 115.562C100.227 115.445 99.6985 115.386 99.0972 115.386C98.5545 115.386 98.1145 115.481 97.7772 115.672C97.4399 115.848 97.2712 116.127 97.2712 116.508C97.2712 116.699 97.3005 116.867 97.3592 117.014C97.4325 117.161 97.5499 117.3 97.7112 117.432C97.8725 117.549 98.0852 117.674 98.3492 117.806C98.6132 117.923 98.9359 118.048 99.3172 118.18C99.9479 118.415 100.483 118.649 100.923 118.884C101.363 119.104 101.723 119.361 102.001 119.654C102.295 119.933 102.507 120.255 102.639 120.622C102.771 120.989 102.837 121.429 102.837 121.942C102.837 123.042 102.427 123.878 101.605 124.45C100.799 125.007 99.6399 125.286 98.1292 125.286C97.1172 125.286 96.3032 125.198 95.6872 125.022C95.0712 124.861 94.6385 124.729 94.3892 124.626L94.8512 122.404C95.2472 122.565 95.7165 122.719 96.2592 122.866C96.8165 123.013 97.4472 123.086 98.1512 123.086ZM112.958 119.302C112.958 118.114 112.687 117.19 112.144 116.53C111.616 115.87 110.758 115.54 109.57 115.54C109.321 115.54 109.057 115.555 108.778 115.584C108.514 115.599 108.25 115.643 107.986 115.716V122.294C108.221 122.455 108.529 122.609 108.91 122.756C109.306 122.888 109.724 122.954 110.164 122.954C111.132 122.954 111.836 122.624 112.276 121.964C112.731 121.304 112.958 120.417 112.958 119.302ZM115.686 119.258C115.686 120.138 115.569 120.945 115.334 121.678C115.114 122.411 114.791 123.042 114.366 123.57C113.941 124.098 113.405 124.509 112.76 124.802C112.129 125.095 111.411 125.242 110.604 125.242C110.061 125.242 109.563 125.176 109.108 125.044C108.653 124.912 108.279 124.765 107.986 124.604V129.07H105.324V113.868C105.867 113.721 106.534 113.582 107.326 113.45C108.118 113.318 108.954 113.252 109.834 113.252C110.743 113.252 111.557 113.391 112.276 113.67C112.995 113.949 113.603 114.352 114.102 114.88C114.615 115.393 115.004 116.024 115.268 116.772C115.547 117.505 115.686 118.334 115.686 119.258ZM121.113 125H118.451V113.494H121.113V125ZM121.399 110.128C121.399 110.627 121.238 111.023 120.915 111.316C120.593 111.609 120.211 111.756 119.771 111.756C119.317 111.756 118.928 111.609 118.605 111.316C118.283 111.023 118.121 110.627 118.121 110.128C118.121 109.615 118.283 109.211 118.605 108.918C118.928 108.625 119.317 108.478 119.771 108.478C120.211 108.478 120.593 108.625 120.915 108.918C121.238 109.211 121.399 109.615 121.399 110.128ZM124.377 110.458L127.039 110.018V113.494H131.131V115.716H127.039V120.402C127.039 121.326 127.186 121.986 127.479 122.382C127.773 122.778 128.271 122.976 128.975 122.976C129.459 122.976 129.885 122.925 130.251 122.822C130.633 122.719 130.933 122.624 131.153 122.536L131.593 124.648C131.285 124.78 130.882 124.912 130.383 125.044C129.885 125.191 129.298 125.264 128.623 125.264C127.802 125.264 127.113 125.154 126.555 124.934C126.013 124.714 125.58 124.399 125.257 123.988C124.935 123.563 124.707 123.057 124.575 122.47C124.443 121.869 124.377 121.187 124.377 120.424V110.458ZM137.753 123.13C138.574 123.13 139.197 123.086 139.623 122.998V120.05C139.476 120.006 139.263 119.962 138.985 119.918C138.706 119.874 138.398 119.852 138.061 119.852C137.767 119.852 137.467 119.874 137.159 119.918C136.865 119.962 136.594 120.043 136.345 120.16C136.11 120.277 135.919 120.446 135.773 120.666C135.626 120.871 135.553 121.135 135.553 121.458C135.553 122.089 135.751 122.529 136.147 122.778C136.543 123.013 137.078 123.13 137.753 123.13ZM137.533 113.208C138.413 113.208 139.153 113.318 139.755 113.538C140.356 113.758 140.833 114.066 141.185 114.462C141.551 114.858 141.808 115.342 141.955 115.914C142.116 116.471 142.197 117.087 142.197 117.762V124.736C141.786 124.824 141.163 124.927 140.327 125.044C139.505 125.176 138.574 125.242 137.533 125.242C136.843 125.242 136.213 125.176 135.641 125.044C135.069 124.912 134.577 124.699 134.167 124.406C133.771 124.113 133.455 123.731 133.221 123.262C133.001 122.793 132.891 122.213 132.891 121.524C132.891 120.864 133.015 120.307 133.265 119.852C133.529 119.397 133.881 119.031 134.321 118.752C134.761 118.459 135.267 118.253 135.839 118.136C136.425 118.004 137.034 117.938 137.665 117.938C137.958 117.938 138.266 117.96 138.589 118.004C138.911 118.033 139.256 118.092 139.623 118.18V117.74C139.623 117.432 139.586 117.139 139.513 116.86C139.439 116.581 139.307 116.339 139.117 116.134C138.941 115.914 138.699 115.745 138.391 115.628C138.097 115.511 137.723 115.452 137.269 115.452C136.653 115.452 136.088 115.496 135.575 115.584C135.061 115.672 134.643 115.775 134.321 115.892L133.991 113.736C134.328 113.619 134.819 113.501 135.465 113.384C136.11 113.267 136.799 113.208 137.533 113.208ZM149.461 125.22C148.669 125.205 148.009 125.117 147.481 124.956C146.967 124.795 146.557 124.567 146.249 124.274C145.941 123.966 145.721 123.592 145.589 123.152C145.471 122.697 145.413 122.184 145.413 121.612V108.368L148.075 107.928V121.106C148.075 121.429 148.097 121.7 148.141 121.92C148.199 122.14 148.295 122.331 148.427 122.492C148.559 122.639 148.735 122.756 148.955 122.844C149.189 122.917 149.483 122.976 149.835 123.02L149.461 125.22ZM159.807 125H157.145V113.494H159.807V125ZM160.093 110.128C160.093 110.627 159.931 111.023 159.609 111.316C159.286 111.609 158.905 111.756 158.465 111.756C158.01 111.756 157.621 111.609 157.299 111.316C156.976 111.023 156.815 110.627 156.815 110.128C156.815 109.615 156.976 109.211 157.299 108.918C157.621 108.625 158.01 108.478 158.465 108.478C158.905 108.478 159.286 108.625 159.609 108.918C159.931 109.211 160.093 109.615 160.093 110.128ZM163.203 113.868C163.716 113.721 164.383 113.582 165.205 113.45C166.026 113.318 166.935 113.252 167.933 113.252C168.871 113.252 169.656 113.384 170.287 113.648C170.917 113.897 171.416 114.257 171.783 114.726C172.164 115.181 172.428 115.738 172.575 116.398C172.736 117.043 172.817 117.755 172.817 118.532V125H170.155V118.95C170.155 118.334 170.111 117.813 170.023 117.388C169.949 116.948 169.817 116.596 169.627 116.332C169.451 116.053 169.201 115.855 168.879 115.738C168.571 115.606 168.189 115.54 167.735 115.54C167.397 115.54 167.045 115.562 166.679 115.606C166.312 115.65 166.041 115.687 165.865 115.716V125H163.203V113.868ZM107.506 154.33C106.464 154.33 105.57 154.183 104.822 153.89C104.074 153.582 103.45 153.157 102.952 152.614C102.468 152.071 102.108 151.433 101.874 150.7C101.639 149.967 101.522 149.16 101.522 148.28V138.754H104.316V148.016C104.316 148.705 104.389 149.299 104.536 149.798C104.697 150.282 104.917 150.678 105.196 150.986C105.489 151.294 105.826 151.521 106.208 151.668C106.604 151.815 107.044 151.888 107.528 151.888C108.012 151.888 108.452 151.815 108.848 151.668C109.244 151.521 109.581 151.294 109.86 150.986C110.153 150.678 110.373 150.282 110.52 149.798C110.681 149.299 110.762 148.705 110.762 148.016V138.754H113.556V148.28C113.556 149.16 113.431 149.967 113.182 150.7C112.947 151.433 112.58 152.071 112.082 152.614C111.598 153.157 110.974 153.582 110.212 153.89C109.449 154.183 108.547 154.33 107.506 154.33ZM120.796 151.932C121.794 151.932 122.52 151.763 122.974 151.426C123.429 151.089 123.656 150.612 123.656 149.996C123.656 149.629 123.576 149.314 123.414 149.05C123.268 148.786 123.048 148.551 122.754 148.346C122.476 148.126 122.131 147.928 121.72 147.752C121.31 147.561 120.84 147.378 120.312 147.202C119.784 147.011 119.271 146.806 118.772 146.586C118.288 146.351 117.856 146.065 117.474 145.728C117.108 145.391 116.807 144.987 116.572 144.518C116.352 144.049 116.242 143.484 116.242 142.824C116.242 141.445 116.719 140.367 117.672 139.59C118.626 138.798 119.924 138.402 121.566 138.402C122.52 138.402 123.363 138.512 124.096 138.732C124.844 138.937 125.431 139.165 125.856 139.414L124.998 141.658C124.5 141.379 123.95 141.167 123.348 141.02C122.762 140.873 122.153 140.8 121.522 140.8C120.774 140.8 120.188 140.954 119.762 141.262C119.352 141.57 119.146 142.003 119.146 142.56C119.146 142.897 119.212 143.191 119.344 143.44C119.491 143.675 119.689 143.887 119.938 144.078C120.202 144.269 120.503 144.445 120.84 144.606C121.192 144.767 121.574 144.921 121.984 145.068C122.703 145.332 123.341 145.603 123.898 145.882C124.47 146.146 124.947 146.469 125.328 146.85C125.724 147.217 126.025 147.657 126.23 148.17C126.436 148.669 126.538 149.277 126.538 149.996C126.538 151.375 126.047 152.445 125.064 153.208C124.096 153.956 122.674 154.33 120.796 154.33C120.166 154.33 119.586 154.286 119.058 154.198C118.545 154.125 118.083 154.029 117.672 153.912C117.276 153.795 116.932 153.677 116.638 153.56C116.345 153.428 116.11 153.311 115.934 153.208L116.748 150.942C117.144 151.162 117.68 151.382 118.354 151.602C119.029 151.822 119.843 151.932 120.796 151.932ZM139.101 154C138.896 153.399 138.683 152.805 138.463 152.218C138.243 151.631 138.031 151.03 137.825 150.414H131.401C131.196 151.03 130.983 151.639 130.763 152.24C130.558 152.827 130.353 153.413 130.147 154H127.265C127.837 152.372 128.38 150.869 128.893 149.49C129.407 148.111 129.905 146.806 130.389 145.574C130.888 144.342 131.379 143.169 131.863 142.054C132.347 140.939 132.846 139.839 133.359 138.754H135.977C136.491 139.839 136.989 140.939 137.473 142.054C137.957 143.169 138.441 144.342 138.925 145.574C139.424 146.806 139.93 148.111 140.443 149.49C140.971 150.869 141.521 152.372 142.093 154H139.101ZM134.613 141.702C134.276 142.479 133.887 143.425 133.447 144.54C133.022 145.655 132.575 146.865 132.105 148.17H137.121C136.652 146.865 136.197 145.647 135.757 144.518C135.317 143.389 134.936 142.45 134.613 141.702Z" fill="#1D5292"/>
<path d="M108.406 220.712C108.406 221.144 108.316 221.564 108.136 221.972C107.968 222.368 107.74 222.764 107.452 223.16C107.164 223.544 106.84 223.928 106.48 224.312C106.12 224.684 105.76 225.05 105.4 225.41C105.196 225.614 104.956 225.854 104.68 226.13C104.416 226.406 104.164 226.694 103.924 226.994C103.684 227.294 103.48 227.582 103.312 227.858C103.156 228.134 103.078 228.374 103.078 228.578H108.82V230H101.26C101.248 229.928 101.242 229.856 101.242 229.784C101.242 229.712 101.242 229.646 101.242 229.586C101.242 229.022 101.332 228.5 101.512 228.02C101.704 227.528 101.95 227.066 102.25 226.634C102.55 226.202 102.886 225.794 103.258 225.41C103.63 225.026 103.996 224.654 104.356 224.294C104.656 224.006 104.938 223.724 105.202 223.448C105.478 223.16 105.718 222.878 105.922 222.602C106.138 222.314 106.306 222.02 106.426 221.72C106.558 221.42 106.624 221.102 106.624 220.766C106.624 220.406 106.564 220.1 106.444 219.848C106.336 219.596 106.186 219.386 105.994 219.218C105.802 219.05 105.574 218.93 105.31 218.858C105.058 218.774 104.788 218.732 104.5 218.732C104.152 218.732 103.834 218.78 103.546 218.876C103.258 218.972 103 219.086 102.772 219.218C102.544 219.338 102.352 219.47 102.196 219.614C102.04 219.746 101.92 219.848 101.836 219.92L101.008 218.732C101.116 218.612 101.278 218.468 101.494 218.3C101.71 218.12 101.968 217.952 102.268 217.796C102.568 217.64 102.904 217.508 103.276 217.4C103.648 217.292 104.05 217.238 104.482 217.238C105.79 217.238 106.768 217.544 107.416 218.156C108.076 218.756 108.406 219.608 108.406 220.712ZM111.06 223.754C111.06 221.666 111.426 220.058 112.158 218.93C112.902 217.802 113.928 217.238 115.236 217.238C116.544 217.238 117.564 217.802 118.296 218.93C119.04 220.058 119.412 221.666 119.412 223.754C119.412 225.842 119.04 227.45 118.296 228.578C117.564 229.706 116.544 230.27 115.236 230.27C113.928 230.27 112.902 229.706 112.158 228.578C111.426 227.45 111.06 225.842 111.06 223.754ZM117.648 223.754C117.648 223.07 117.606 222.422 117.522 221.81C117.45 221.198 117.318 220.664 117.126 220.208C116.946 219.752 116.7 219.392 116.388 219.128C116.076 218.852 115.692 218.714 115.236 218.714C114.78 218.714 114.396 218.852 114.084 219.128C113.772 219.392 113.52 219.752 113.328 220.208C113.148 220.664 113.016 221.198 112.932 221.81C112.86 222.422 112.824 223.07 112.824 223.754C112.824 224.438 112.86 225.086 112.932 225.698C113.016 226.31 113.148 226.844 113.328 227.3C113.52 227.756 113.772 228.122 114.084 228.398C114.396 228.662 114.78 228.794 115.236 228.794C115.692 228.794 116.076 228.662 116.388 228.398C116.7 228.122 116.946 227.756 117.126 227.3C117.318 226.844 117.45 226.31 117.522 225.698C117.606 225.086 117.648 224.438 117.648 223.754ZM128.726 220.712C128.726 221.144 128.636 221.564 128.456 221.972C128.288 222.368 128.06 222.764 127.772 223.16C127.484 223.544 127.16 223.928 126.8 224.312C126.44 224.684 126.08 225.05 125.72 225.41C125.516 225.614 125.276 225.854 125 226.13C124.736 226.406 124.484 226.694 124.244 226.994C124.004 227.294 123.8 227.582 123.632 227.858C123.476 228.134 123.398 228.374 123.398 228.578H129.14V230H121.58C121.568 229.928 121.562 229.856 121.562 229.784C121.562 229.712 121.562 229.646 121.562 229.586C121.562 229.022 121.652 228.5 121.832 228.02C122.024 227.528 122.27 227.066 122.57 226.634C122.87 226.202 123.206 225.794 123.578 225.41C123.95 225.026 124.316 224.654 124.676 224.294C124.976 224.006 125.258 223.724 125.522 223.448C125.798 223.16 126.038 222.878 126.242 222.602C126.458 222.314 126.626 222.02 126.746 221.72C126.878 221.42 126.944 221.102 126.944 220.766C126.944 220.406 126.884 220.1 126.764 219.848C126.656 219.596 126.506 219.386 126.314 219.218C126.122 219.05 125.894 218.93 125.63 218.858C125.378 218.774 125.108 218.732 124.82 218.732C124.472 218.732 124.154 218.78 123.866 218.876C123.578 218.972 123.32 219.086 123.092 219.218C122.864 219.338 122.672 219.47 122.516 219.614C122.36 219.746 122.24 219.848 122.156 219.92L121.328 218.732C121.436 218.612 121.598 218.468 121.814 218.3C122.03 218.12 122.288 217.952 122.588 217.796C122.888 217.64 123.224 217.508 123.596 217.4C123.968 217.292 124.37 217.238 124.802 217.238C126.11 217.238 127.088 217.544 127.736 218.156C128.396 218.756 128.726 219.608 128.726 220.712ZM134.548 228.776C135.616 228.776 136.378 228.566 136.834 228.146C137.302 227.726 137.536 227.162 137.536 226.454C137.536 225.998 137.44 225.614 137.248 225.302C137.056 224.99 136.804 224.744 136.492 224.564C136.18 224.372 135.814 224.24 135.394 224.168C134.986 224.084 134.566 224.042 134.134 224.042H133.702V222.674H134.296C134.596 222.674 134.902 222.644 135.214 222.584C135.538 222.524 135.832 222.416 136.096 222.26C136.36 222.104 136.576 221.894 136.744 221.63C136.912 221.354 136.996 221.012 136.996 220.604C136.996 220.268 136.936 219.98 136.816 219.74C136.696 219.5 136.534 219.302 136.33 219.146C136.138 218.99 135.91 218.882 135.646 218.822C135.394 218.75 135.124 218.714 134.836 218.714C134.26 218.714 133.768 218.798 133.36 218.966C132.964 219.134 132.628 219.308 132.352 219.488L131.704 218.21C131.848 218.114 132.028 218.012 132.244 217.904C132.472 217.784 132.724 217.676 133 217.58C133.276 217.484 133.57 217.406 133.882 217.346C134.206 217.274 134.542 217.238 134.89 217.238C135.55 217.238 136.12 217.322 136.6 217.49C137.08 217.646 137.476 217.874 137.788 218.174C138.1 218.462 138.334 218.81 138.49 219.218C138.646 219.614 138.724 220.046 138.724 220.514C138.724 221.162 138.538 221.72 138.166 222.188C137.794 222.644 137.344 222.992 136.816 223.232C137.14 223.328 137.452 223.466 137.752 223.646C138.052 223.826 138.31 224.054 138.526 224.33C138.754 224.606 138.934 224.924 139.066 225.284C139.21 225.644 139.282 226.046 139.282 226.49C139.282 227.03 139.186 227.534 138.994 228.002C138.814 228.458 138.526 228.854 138.13 229.19C137.746 229.526 137.26 229.79 136.672 229.982C136.084 230.174 135.388 230.27 134.584 230.27C134.272 230.27 133.948 230.246 133.612 230.198C133.288 230.15 132.982 230.09 132.694 230.018C132.406 229.946 132.154 229.874 131.938 229.802C131.722 229.73 131.566 229.67 131.47 229.622L131.794 228.164C131.998 228.26 132.334 228.386 132.802 228.542C133.282 228.698 133.864 228.776 134.548 228.776Z" fill="#FF8761"/>
<defs>
<clipPath id="clip0_229_4124">
<rect width="242.135" height="255.636" fill="white"/>
</clipPath>
</defs>
</svg>
