<svg width="243" height="256" viewBox="0 0 243 256" fill="none" xmlns="http://www.w3.org/2000/svg">
<g clip-path="url(#clip0_229_6604)">
<path d="M77.4873 203.942C77.8842 202.524 77.7825 201.014 77.1992 199.662C76.6159 198.311 75.5863 197.2 74.2826 196.517C75.0624 197.978 75.2565 199.681 74.8254 201.28C74.4139 202.684 74.5034 204.187 75.0784 205.532C75.6535 206.877 76.6784 207.98 77.9776 208.653C77.2204 207.202 77.0451 205.517 77.4873 203.942ZM74.948 15.3055C74.0063 14.008 72.6236 13.0987 71.0592 12.7482C69.4948 12.3976 67.8563 12.6298 66.4509 13.4012C65.0456 14.1727 63.97 15.4304 63.4258 16.9384C62.8817 18.4464 62.9064 20.1011 63.4953 21.5922C64.0306 22.95 64.0996 24.4472 63.6914 25.8484C63.2833 27.2497 62.4211 28.4757 61.2404 29.3336C60.0597 30.1916 58.6273 30.6329 57.1685 30.5883C55.7097 30.5437 54.3071 30.0157 53.181 29.0872C51.9438 28.0754 50.3809 27.5481 48.7836 27.6036C47.1864 27.6591 45.6639 28.2937 44.5 29.389C43.3361 30.4843 42.6103 31.9655 42.458 33.5565C42.3056 35.1474 42.7372 36.7394 43.6721 38.0357C44.5327 39.2188 44.9748 40.6548 44.9286 42.1171C44.8823 43.5793 44.3504 44.9845 43.4168 46.1109C42.4832 47.2373 41.201 48.0206 39.7727 48.3373C38.3444 48.654 36.8513 48.486 35.5291 47.8598C34.0778 47.1729 32.4255 47.04 30.8831 47.4861C29.3407 47.9322 28.0144 48.9265 27.1538 50.282C26.2932 51.6375 25.9575 53.2608 26.2099 54.8465C26.4623 56.4321 27.2854 57.8709 28.5244 58.8922C29.656 59.8196 30.4454 61.0983 30.7675 62.5254C31.0896 63.9526 30.9259 65.4464 30.3024 66.7699C29.6788 68.0935 28.6312 69.1709 27.3256 69.8312C26.0201 70.4915 24.5314 70.6969 23.0958 70.4149C21.5291 70.0417 19.8798 70.2574 18.4617 71.0208C17.0435 71.7842 15.9553 73.0421 15.4041 74.5554C14.8528 76.0687 14.8769 77.7318 15.4717 79.2285C16.0666 80.7252 17.1907 81.9511 18.6303 82.6731C18.0663 81.5716 17.8232 80.3338 17.9288 79.1008C18.0343 77.8678 18.4843 76.6894 19.2274 75.6998C19.9705 74.7103 20.9767 73.9495 22.1314 73.5042C23.286 73.059 24.5425 72.9473 25.7576 73.1817C27.1952 73.4561 28.6832 73.2437 29.9866 72.578C31.29 71.9124 32.3345 70.8314 32.9551 69.5059C33.5757 68.1805 33.7369 66.686 33.4134 65.2586C33.0899 63.8313 32.3001 62.5524 31.1687 61.624C29.9297 60.6027 29.1066 59.1639 28.8541 57.5783C28.6017 55.9926 28.9374 54.3693 29.798 53.0138C30.6587 51.6583 31.985 50.664 33.5274 50.2179C35.0698 49.7719 36.7221 49.9047 38.1734 50.5916C39.4955 51.2276 40.9925 51.4025 42.4256 51.0885C43.8587 50.7745 45.1454 49.9897 46.0804 48.8592C47.0154 47.7286 47.545 46.3176 47.5846 44.851C47.6242 43.3844 47.1716 41.9468 46.2989 40.7675C45.3655 39.4695 44.9363 37.8763 45.0914 36.2851C45.2464 34.6939 45.975 33.2134 47.1414 32.12C48.3077 31.0266 49.832 30.3948 51.4299 30.3427C53.0278 30.2905 54.59 30.8215 55.8252 31.8365C56.9508 32.8125 58.3741 33.3779 59.8625 33.4403C61.3509 33.5028 62.8166 33.0587 64.02 32.1806C65.2234 31.3024 66.0934 30.0421 66.488 28.6055C66.8825 27.169 66.7782 25.6411 66.1922 24.2715C65.6694 22.9914 65.5617 21.5796 65.8842 20.235C66.2068 18.8905 66.9434 17.6812 67.9901 16.7777C69.0367 15.8742 70.3406 15.3221 71.7178 15.1994C73.095 15.0766 74.4761 15.3894 75.666 16.0935C75.4092 15.8473 75.1693 15.584 74.948 15.3055ZM86.8035 10.6123C86.958 11.8443 86.7619 13.0949 86.2378 14.2205C85.7137 15.3461 84.8829 16.3011 83.8406 16.9758C82.7983 17.6506 81.5868 18.0177 80.3453 18.0351C79.1038 18.0525 77.8826 17.7194 76.8218 17.0742C77.1113 17.3534 77.375 17.6582 77.6098 17.9848C78.4694 19.1646 79.6966 20.0253 81.0986 20.4316C82.5006 20.838 83.9979 20.7669 85.3551 20.2297C86.7124 19.6924 87.8526 18.7193 88.5966 17.4635C89.3406 16.2076 89.6462 14.7401 89.4653 13.2916C89.3107 12.096 89.4856 10.8808 89.9711 9.77731C90.4566 8.67379 91.2343 7.72382 92.2201 7.02992C93.206 6.33602 94.3627 5.92454 95.5653 5.83989C96.7679 5.75524 97.9708 6.00064 99.0442 6.5496C98.2927 5.22956 97.1069 4.21085 95.6886 3.66698C94.2704 3.12311 92.7074 3.08771 91.266 3.5668C89.8246 4.0459 88.5938 5.00986 87.7833 6.29452C86.9728 7.57918 86.6328 9.10507 86.821 10.6123H86.8035ZM101.969 211.997C101.993 210.812 101.687 209.643 101.084 208.622C100.48 207.601 99.6042 206.769 98.5539 206.218C99.0485 207.177 99.3067 208.24 99.3069 209.318C99.2609 210.512 99.5581 211.694 100.163 212.725C100.768 213.755 101.656 214.591 102.722 215.132C102.215 214.166 101.956 213.088 101.969 211.997ZM25.2848 137.415C26.1269 138.877 26.3657 140.609 25.9503 142.244C25.535 143.879 24.4984 145.288 23.0608 146.171C22.0746 146.788 21.269 147.655 20.7257 148.684C20.1823 149.712 19.9205 150.867 19.9667 152.029C20.0129 153.192 20.3655 154.321 20.9888 155.304C21.6121 156.286 22.484 157.086 23.5161 157.623C22.6541 156.168 22.4024 154.431 22.8157 152.791C23.229 151.151 24.2739 149.74 25.7226 148.867C26.7322 148.261 27.5608 147.396 28.1221 146.361C28.6833 145.325 28.9568 144.159 28.9138 142.982C28.8709 141.805 28.5132 140.662 27.878 139.67C27.2428 138.679 26.3533 137.876 25.3023 137.345L25.2848 137.415ZM20.4515 111.813C20.9121 112.663 21.1792 113.604 21.2341 114.569C21.2889 115.534 21.13 116.499 20.7687 117.396C20.4074 118.292 19.8525 119.098 19.1439 119.756C18.4352 120.413 17.5901 120.906 16.669 121.199C15.4331 121.597 14.342 122.35 13.532 123.365C12.7221 124.379 12.2292 125.61 12.1152 126.904C12.0012 128.197 12.2711 129.495 12.891 130.636C13.511 131.777 14.4535 132.709 15.6007 133.317C15.1131 132.471 14.8225 131.525 14.7508 130.551C14.6791 129.576 14.828 128.599 15.1865 127.69C15.5449 126.781 16.1037 125.965 16.8212 125.302C17.5388 124.639 18.3965 124.146 19.3308 123.861C20.5767 123.478 21.681 122.734 22.5038 121.723C23.3267 120.712 23.831 119.48 23.9529 118.182C24.0748 116.885 23.8087 115.58 23.1885 114.434C22.5684 113.287 21.6219 112.351 20.4691 111.743L20.4515 111.813ZM13.9022 107.785C13.3839 106.808 13.1195 105.716 13.1331 104.61C13.1467 103.504 13.438 102.419 13.9801 101.455C14.5223 100.491 15.298 99.679 16.236 99.0928C17.1739 98.5067 18.2441 98.1657 19.3483 98.101C20.7543 98.0015 22.0909 97.4524 23.1607 96.5347C24.2305 95.617 24.9766 94.3794 25.2888 93.005C25.601 91.6305 25.4628 90.1921 24.8944 88.9023C24.326 87.6125 23.3577 86.5398 22.1326 85.8427C22.6391 86.818 22.8941 87.9042 22.8745 89.003C22.8549 90.1017 22.5613 91.1782 22.0204 92.1348C21.4795 93.0913 20.7084 93.8977 19.7769 94.4809C18.8455 95.064 17.7833 95.4055 16.6865 95.4742C15.2941 95.5937 13.9758 96.1531 12.9224 97.0715C11.869 97.9899 11.1352 99.2197 10.8271 100.583C10.519 101.946 10.6525 103.372 11.2085 104.654C11.7645 105.936 12.714 107.008 13.9196 107.715L13.9022 107.785ZM53.1284 181.334C53.6718 182.293 53.9574 183.376 53.9574 184.478C53.9574 185.579 53.6718 186.662 53.1284 187.621C52.7069 188.367 52.4384 189.19 52.3389 190.042C52.2394 190.893 52.3108 191.756 52.5489 192.58C52.787 193.403 53.187 194.171 53.7255 194.838C54.2641 195.505 54.9303 196.058 55.6851 196.464C55.1481 195.504 54.8735 194.419 54.8889 193.318C54.9043 192.218 55.2091 191.141 55.7727 190.195C56.2124 189.435 56.4935 188.594 56.5991 187.723C56.7047 186.851 56.6326 185.967 56.3871 185.124C56.1416 184.282 55.7278 183.497 55.1708 182.819C54.6137 182.14 53.9249 181.582 53.1459 181.177L53.1284 181.334ZM112.125 5.76157C112 6.82397 111.619 7.84003 111.014 8.72228C110.409 9.60454 109.598 10.3266 108.653 10.8262C107.707 11.3259 106.653 11.5882 105.584 11.5906C104.514 11.593 103.46 11.3354 102.511 10.84C103.183 12.0511 104.221 13.0188 105.475 13.6049C106.73 14.191 108.138 14.3653 109.498 14.1031C110.858 13.8408 112.1 13.1554 113.047 12.1447C113.994 11.134 114.597 9.84992 114.77 8.47589C114.894 7.40821 115.278 6.38727 115.888 5.5027C116.499 4.61812 117.317 3.89695 118.272 3.40248C119.226 2.908 120.287 2.65535 121.362 2.66669C122.437 2.67804 123.493 2.95303 124.436 3.46754C123.764 2.25696 122.728 1.28835 121.475 0.698747C120.223 0.109142 118.816 -0.0716159 117.455 0.18204C116.094 0.435697 114.847 1.11092 113.89 2.11221C112.934 3.1135 112.316 4.39015 112.125 5.76157ZM36.4222 160.986C37.1226 162.197 37.4076 163.603 37.2337 164.991C37.0598 166.379 36.4366 167.673 35.4591 168.673C34.7591 169.409 34.2402 170.298 33.9438 171.269C33.6474 172.241 33.5815 173.268 33.7515 174.269C33.9215 175.27 34.3227 176.218 34.9231 177.037C35.5235 177.856 36.3066 178.524 37.2103 178.988C36.5024 177.783 36.2161 176.376 36.3969 174.99C36.5777 173.604 37.2151 172.318 38.2084 171.335C38.9037 170.592 39.4174 169.698 39.7091 168.723C40.0008 167.748 40.0625 166.719 39.8894 165.716C39.7163 164.713 39.3132 163.764 38.7116 162.943C38.11 162.123 37.3264 161.453 36.4222 160.986ZM221.171 73.6896C220.531 72.4455 219.495 71.4491 218.228 70.8564C216.96 70.2638 215.532 70.1085 214.166 70.4149C212.705 70.7245 211.181 70.5139 209.858 69.8195C210.51 71.0535 211.547 72.0411 212.811 72.6321C214.076 73.2232 215.498 73.3854 216.863 73.0942C218.325 72.7948 219.845 73.0049 221.171 73.6896ZM214.639 146.398C215.102 147.218 215.742 147.924 216.513 148.465C216.045 147.648 215.406 146.943 214.639 146.398ZM201.733 47.8598C200.809 48.3199 199.788 48.5476 198.756 48.5232C197.725 48.4988 196.715 48.223 195.814 47.7197C196.602 49.2122 197.941 50.3392 199.546 50.8622C201.151 51.3851 202.896 51.263 204.412 50.5216C205.318 50.049 206.324 49.8021 207.346 49.8021C208.367 49.8021 209.373 50.049 210.279 50.5216C209.483 49.0508 208.144 47.9491 206.547 47.4518C204.951 46.9545 203.223 47.1009 201.733 47.8598ZM223.255 98.0309C224.201 98.0851 225.125 98.3356 225.969 98.7664C225.46 97.7698 224.693 96.9284 223.747 96.3307C222.801 95.7329 221.712 95.4008 220.593 95.3691C219.638 95.3096 218.707 95.0469 217.861 94.5986C218.366 95.6104 219.133 96.4687 220.081 97.0845C221.029 97.7003 222.125 98.0513 223.255 98.101V98.0309ZM220.611 121.164C220.222 121.046 219.846 120.887 219.49 120.691C219.881 121.438 220.417 122.1 221.066 122.639C221.716 123.177 222.466 123.58 223.272 123.826C223.684 123.96 224.082 124.13 224.463 124.334C224.067 123.573 223.522 122.901 222.86 122.356C222.198 121.812 221.433 121.406 220.611 121.164ZM137.833 7.33763C137.493 8.2106 136.971 9.00064 136.3 9.65444C135.629 10.3082 134.826 10.8106 133.945 11.1276C133.064 11.4446 132.125 11.5689 131.191 11.4921C130.258 11.4153 129.352 11.1392 128.534 10.6824C129.128 11.793 130.027 12.7106 131.125 13.3269C132.223 13.9432 133.475 14.2325 134.732 14.1607C135.99 14.089 137.2 13.659 138.221 12.9217C139.242 12.1844 140.031 11.1704 140.494 9.99941C140.826 9.11442 141.348 8.31276 142.022 7.65067C142.697 6.98859 143.508 6.4821 144.399 6.16674C145.29 5.85137 146.24 5.73477 147.18 5.82511C148.121 5.91545 149.031 6.21055 149.846 6.68969C149.256 5.56891 148.357 4.64087 147.255 4.01571C146.154 3.39055 144.896 3.09451 143.632 3.16272C142.367 3.23094 141.148 3.66054 140.12 4.40054C139.093 5.14055 138.299 6.1599 137.833 7.33763ZM184.099 29.0522C183.096 29.9222 181.846 30.4573 180.525 30.5829C179.203 30.7084 177.875 30.4182 176.726 29.7526C177.171 30.6308 177.807 31.3977 178.588 31.9967C179.37 32.5957 180.275 33.0115 181.239 33.2132C182.202 33.415 183.199 33.3976 184.154 33.1623C185.11 32.9271 186.001 32.48 186.76 31.8541C187.753 30.971 189.001 30.4271 190.323 30.3011C191.646 30.1752 192.974 30.4737 194.115 31.1536C193.674 30.2737 193.04 29.5051 192.259 28.9057C191.478 28.3063 190.572 27.8916 189.608 27.6927C188.644 27.4939 187.647 27.516 186.693 27.7575C185.739 27.9991 184.852 28.4537 184.099 29.0872V29.0522ZM152.998 208.723C152.394 207.587 151.468 206.655 150.336 206.043C150.947 207.209 151.892 208.166 153.05 208.793L152.998 208.723ZM127.693 213.521C127.481 212.626 127.078 211.788 126.513 211.063C125.948 210.338 125.234 209.743 124.419 209.318C124.678 209.808 124.884 210.325 125.032 210.859C125.235 211.759 125.634 212.604 126.2 213.333C126.766 214.062 127.485 214.659 128.306 215.079C128.039 214.587 127.833 214.063 127.693 213.521ZM162.332 15.3055C161.406 16.6214 160.023 17.5458 158.453 17.8986C156.883 18.2514 155.238 18.0075 153.838 17.2142C154.368 18.199 155.139 19.0335 156.079 19.6398C157.018 20.2461 158.096 20.6045 159.212 20.6814C160.328 20.7583 161.445 20.5514 162.459 20.0798C163.473 19.6083 164.351 18.8875 165.011 17.9848C165.918 16.6454 167.303 15.7035 168.882 15.3519C170.461 15.0003 172.114 15.2656 173.504 16.0935C172.983 15.1 172.216 14.2563 171.277 13.6424C170.337 13.0285 169.257 12.6649 168.137 12.5859C167.018 12.507 165.897 12.7154 164.881 13.1913C163.865 13.6673 162.987 14.395 162.332 15.3055Z" fill="#F2EFEF"/>
<path d="M223.273 123.791C221.879 123.345 220.673 122.447 219.848 121.239C219.022 120.03 218.624 118.58 218.717 117.12C218.81 115.659 219.387 114.271 220.359 113.176C221.33 112.082 222.639 111.343 224.079 111.077C225.66 110.782 227.079 109.919 228.067 108.65C229.055 107.382 229.545 105.795 229.444 104.19C229.343 102.584 228.657 101.072 227.517 99.9371C226.377 98.8025 224.861 98.1245 223.256 98.0309C221.792 97.9491 220.398 97.3799 219.295 96.4141C218.193 95.4483 217.445 94.1413 217.171 92.7013C216.897 91.2613 217.113 89.771 217.784 88.4678C218.455 87.1646 219.543 86.1234 220.874 85.51C222.313 84.8211 223.453 83.6333 224.082 82.1673C224.711 80.7013 224.786 79.0568 224.294 77.5395C223.801 76.0221 222.775 74.735 221.405 73.9174C220.036 73.0998 218.416 72.8073 216.846 73.0942C215.426 73.3451 213.963 73.123 212.682 72.4618C211.4 71.8007 210.371 70.7371 209.752 69.4344C209.134 68.1317 208.96 66.662 209.258 65.251C209.555 63.84 210.308 62.5658 211.4 61.624C212.639 60.6027 213.462 59.1639 213.715 57.5782C213.967 55.9926 213.631 54.3693 212.771 53.0138C211.91 51.6583 210.584 50.664 209.042 50.2179C207.499 49.7718 205.847 49.9047 204.396 50.5916C203.073 51.2276 201.576 51.4025 200.143 51.0885C198.71 50.7745 197.424 49.9897 196.488 48.8591C195.553 47.7286 195.024 46.3175 194.984 44.851C194.945 43.3844 195.397 41.9468 196.27 40.7675C197.203 39.4695 197.633 37.8762 197.478 36.2851C197.323 34.6939 196.594 33.2134 195.427 32.12C194.261 31.0265 192.737 30.3948 191.139 30.3427C189.541 30.2905 187.979 30.8215 186.744 31.8365C185.609 32.7394 184.209 33.2427 182.76 33.2683C181.31 33.294 179.893 32.8406 178.727 31.9785C177.562 31.1164 176.713 29.8937 176.314 28.5002C175.914 27.1067 175.985 25.6202 176.517 24.2714C177.129 22.7792 177.17 21.1138 176.633 19.593C176.096 18.0721 175.018 16.8021 173.605 16.025C172.191 15.248 170.541 15.0183 168.97 15.3797C167.398 15.7411 166.014 16.6684 165.082 17.9847C164.225 19.1738 162.997 20.0432 161.591 20.4554C160.184 20.8675 158.681 20.7988 157.318 20.2602C155.955 19.7215 154.811 18.7437 154.067 17.4815C153.323 16.2192 153.021 14.7448 153.209 13.2916C153.402 11.7058 153.012 10.1038 152.112 8.78416C151.212 7.46448 149.862 6.51712 148.315 6.11858C146.768 5.72005 145.129 5.89753 143.703 6.61795C142.277 7.33838 141.162 8.55261 140.565 10.0344C140.024 11.3876 139.05 12.5232 137.794 13.2632C136.539 14.0031 135.074 14.3057 133.628 14.1235C132.182 13.9412 130.837 13.2845 129.805 12.2561C128.772 11.2278 128.11 9.88594 127.922 8.44084C127.72 6.8511 126.945 5.3896 125.742 4.33028C124.54 3.27096 122.992 2.68652 121.39 2.68652C119.787 2.68652 118.24 3.27096 117.037 4.33028C115.835 5.3896 115.06 6.8511 114.858 8.44084C114.67 9.88594 114.008 11.2278 112.975 12.2561C111.942 13.2845 110.598 13.9412 109.152 14.1235C107.706 14.3057 106.241 14.0031 104.985 13.2632C103.73 12.5232 102.755 11.3876 102.215 10.0344C101.629 8.53551 100.515 7.30289 99.0828 6.56936C97.6506 5.83583 95.9992 5.65219 94.4408 6.05311C92.8824 6.45403 91.5247 7.41177 90.6243 8.74541C89.7238 10.079 89.3429 11.6963 89.5535 13.2916C89.7344 14.74 89.4288 16.2075 88.6848 17.4634C87.9409 18.7193 86.8006 19.6924 85.4434 20.2296C84.0862 20.7669 82.5889 20.838 81.1869 20.4316C79.7849 20.0252 78.5577 19.1645 77.6981 17.9847C76.8097 16.5655 75.4127 15.5392 73.7928 15.1157C72.1728 14.6922 70.4523 14.9035 68.983 15.7064C67.5136 16.5093 66.4065 17.8431 65.8879 19.4351C65.3693 21.0272 65.4784 22.7572 66.1929 24.2714C66.7646 25.6341 66.8613 27.1496 66.4674 28.5739C66.0735 29.9982 65.2118 31.2486 64.0212 32.1239C62.8305 32.9992 61.38 33.4485 59.9031 33.3995C58.4261 33.3506 57.0085 32.8062 55.8785 31.854C54.6433 30.839 53.081 30.308 51.4831 30.3602C49.8853 30.4123 48.361 31.0441 47.1946 32.1375C46.0283 33.2309 45.2996 34.7114 45.1446 36.3026C44.9896 37.8937 45.4188 39.487 46.3521 40.785C47.1966 41.9703 47.6234 43.4025 47.5656 44.8567C47.5077 46.311 46.9684 47.7047 46.0323 48.8192C45.0963 49.9336 43.8166 50.7055 42.3942 51.0136C40.9719 51.3218 39.4874 51.1487 38.1741 50.5215C36.7228 49.8347 35.0705 49.7018 33.5281 50.1479C31.9857 50.5939 30.6594 51.5883 29.7987 52.9438C28.9381 54.2993 28.6024 55.9225 28.8549 57.5082C29.1073 59.0939 29.9304 60.5327 31.1694 61.5539C32.2945 62.4855 33.0779 63.7646 33.3963 65.1901C33.7147 66.6157 33.5501 68.1066 32.9283 69.4283C32.3066 70.75 31.263 71.8275 29.9619 72.4911C28.6607 73.1548 27.1757 73.3669 25.7408 73.0942C24.1716 72.8073 22.5516 73.0998 21.1818 73.9174C19.8121 74.735 18.7857 76.0221 18.2935 77.5395C17.8012 79.0568 17.8766 80.7013 18.5056 82.1673C19.1345 83.6333 20.2743 84.8211 21.7131 85.51C23.0316 86.1349 24.1051 87.18 24.7651 88.4812C25.4252 89.7824 25.6344 91.266 25.3598 92.699C25.0853 94.132 24.3425 95.4332 23.2482 96.3983C22.1539 97.3633 20.7701 97.9376 19.314 98.0309C17.7093 98.1277 16.1954 98.8082 15.0579 99.9442C13.9203 101.08 13.2376 102.593 13.1385 104.198C13.0394 105.802 13.5308 107.388 14.52 108.655C15.5092 109.922 16.9278 110.784 18.5084 111.077C19.9469 111.345 21.2546 112.086 22.224 113.182C23.1935 114.278 23.7692 115.666 23.8597 117.127C23.9502 118.587 23.5504 120.036 22.7237 121.243C21.897 122.45 20.6908 123.347 19.2965 123.791C17.7687 124.284 16.4738 125.319 15.6555 126.7C14.8372 128.082 14.5519 129.714 14.8531 131.291C15.1543 132.869 16.0213 134.281 17.2911 135.264C18.5609 136.246 20.1459 136.731 21.7481 136.627C23.2094 136.525 24.6628 136.914 25.8773 137.733C27.0917 138.552 27.9974 139.754 28.4504 141.147C28.9033 142.54 28.8775 144.045 28.377 145.421C27.8765 146.798 26.9301 147.968 25.6882 148.745C24.3332 149.604 23.3384 150.928 22.8908 152.469C22.4432 154.01 22.5735 155.661 23.2572 157.112C23.941 158.563 25.1312 159.715 26.6042 160.351C28.0773 160.987 29.7318 161.063 31.257 160.565C32.6464 160.115 34.1459 160.14 35.5197 160.636C36.8934 161.132 38.0633 162.07 38.8454 163.303C39.6276 164.537 39.9775 165.995 39.8401 167.449C39.7027 168.903 39.0859 170.27 38.0866 171.335C36.9932 172.504 36.363 174.031 36.3137 175.63C36.2644 177.23 36.7993 178.793 37.8186 180.027C38.8379 181.261 40.2717 182.081 41.8519 182.334C43.4321 182.588 45.0505 182.257 46.4046 181.404C47.6404 180.613 49.1049 180.257 50.5658 180.394C52.0267 180.53 53.4003 181.15 54.4685 182.156C55.5367 183.162 56.2384 184.496 56.4621 185.946C56.6858 187.396 56.4188 188.879 55.7034 190.16C54.9539 191.557 54.7349 193.177 55.0868 194.723C55.4386 196.268 56.3376 197.635 57.6179 198.569C58.8981 199.504 60.4732 199.944 62.0524 199.808C63.6317 199.672 65.1085 198.97 66.2104 197.83C67.2114 196.767 68.5372 196.067 69.9795 195.84C71.4218 195.613 72.8987 195.871 74.178 196.575C75.4572 197.279 76.4663 198.388 77.0464 199.728C77.6266 201.068 77.745 202.562 77.3829 203.977C76.9752 205.533 77.1512 207.184 77.8778 208.62C78.6044 210.055 79.8312 211.174 81.3267 211.767C82.8222 212.36 84.4829 212.384 85.9953 211.836C87.5077 211.288 88.7672 210.206 89.536 208.793C90.2323 207.502 91.3403 206.482 92.6836 205.895C94.0268 205.307 95.528 205.186 96.9481 205.551C98.3681 205.915 99.6254 206.745 100.519 207.907C101.414 209.068 101.893 210.496 101.882 211.962C101.887 213.563 102.475 215.106 103.536 216.305C104.596 217.503 106.057 218.274 107.645 218.474C109.233 218.673 110.839 218.288 112.164 217.389C113.488 216.49 114.439 215.14 114.84 213.591C115.206 212.178 116.031 210.927 117.184 210.034C118.338 209.141 119.756 208.657 121.215 208.657C122.674 208.657 124.091 209.141 125.245 210.034C126.399 210.927 127.223 212.178 127.589 213.591C127.99 215.14 128.942 216.49 130.266 217.389C131.59 218.288 133.196 218.673 134.784 218.474C136.372 218.274 137.833 217.503 138.894 216.305C139.955 215.106 140.542 213.563 140.548 211.962C140.536 210.496 141.016 209.068 141.91 207.907C142.804 206.745 144.061 205.915 145.481 205.551C146.901 205.186 148.403 205.307 149.746 205.895C151.089 206.482 152.197 207.502 152.894 208.793C153.671 210.188 154.93 211.253 156.435 211.789C157.94 212.325 159.588 212.295 161.073 211.706C162.558 211.117 163.778 210.008 164.506 208.586C165.233 207.164 165.42 205.526 165.029 203.977C164.66 202.559 164.774 201.058 165.354 199.712C165.934 198.366 166.947 197.253 168.231 196.547C169.516 195.842 170.999 195.585 172.445 195.817C173.892 196.05 175.22 196.758 176.219 197.83C177.321 198.97 178.798 199.672 180.377 199.808C181.956 199.944 183.531 199.504 184.812 198.569C186.092 197.635 186.991 196.268 187.343 194.723C187.695 193.177 187.476 191.557 186.726 190.16C185.993 188.88 185.712 187.39 185.929 185.93C186.146 184.471 186.848 183.127 187.923 182.115C188.997 181.104 190.381 180.483 191.85 180.354C193.32 180.225 194.791 180.595 196.025 181.404C197.379 182.257 198.997 182.588 200.578 182.334C202.158 182.081 203.592 181.261 204.611 180.027C205.63 178.793 206.165 177.23 206.116 175.63C206.067 174.031 205.436 172.504 204.343 171.335C203.344 170.27 202.727 168.903 202.589 167.449C202.452 165.995 202.802 164.537 203.584 163.303C204.366 162.07 205.536 161.132 206.91 160.636C208.284 160.14 209.783 160.115 211.173 160.565C212.698 161.063 214.352 160.987 215.825 160.351C217.298 159.715 218.489 158.563 219.172 157.112C219.856 155.661 219.986 154.01 219.539 152.469C219.091 150.928 218.096 149.604 216.741 148.745C215.499 147.968 214.553 146.798 214.053 145.421C213.552 144.045 213.526 142.54 213.979 141.147C214.432 139.754 215.338 138.552 216.552 137.733C217.767 136.914 219.22 136.525 220.681 136.627C222.3 136.778 223.918 136.326 225.223 135.356C226.528 134.386 227.428 132.968 227.75 131.374C228.071 129.78 227.792 128.124 226.966 126.724C226.139 125.324 224.824 124.279 223.273 123.791ZM121.705 195.939C104.643 195.929 87.9665 190.86 73.7846 181.373C59.6028 171.886 48.5522 158.407 42.0299 142.64C35.5076 126.874 33.8065 109.527 37.1416 92.794C40.4766 76.0607 48.6982 60.692 60.7668 48.6307C72.8354 36.5694 88.2092 28.3573 104.944 25.0324C121.68 21.7075 139.025 23.4192 154.788 29.9511C170.55 36.483 184.022 47.5418 193.501 61.7293C202.979 75.9169 208.038 92.5963 208.038 109.659C208.038 132.542 198.948 154.487 182.767 170.668C166.586 186.849 144.641 195.939 121.758 195.939H121.705Z" fill="#F2EFEF"/>
<path d="M121.319 21.3467C103.655 21.3467 86.3877 26.5846 71.7007 36.3981C57.0138 46.2116 45.5668 60.1599 38.8071 76.4791C32.0475 92.7984 30.2789 110.756 33.7249 128.08C37.1709 145.404 45.6768 161.318 58.167 173.808C70.6572 186.298 86.5708 194.804 103.895 198.25C121.22 201.696 139.177 199.928 155.496 193.168C171.815 186.408 185.764 174.961 195.577 160.274C205.391 145.587 210.629 128.32 210.629 110.657C210.629 86.9701 201.219 64.2538 184.47 47.5049C167.721 30.7561 145.005 21.3467 121.319 21.3467ZM121.319 195.588C104.507 195.592 88.0727 190.609 74.0936 181.271C60.1145 171.932 49.2192 158.658 42.7858 143.126C36.3523 127.594 34.6699 110.504 37.9514 94.0158C41.2328 77.5278 49.3306 62.3835 61.2205 50.4985C73.1103 38.6136 88.258 30.522 104.747 27.2474C121.237 23.9727 138.327 25.6622 153.856 32.102C169.385 38.5418 182.655 49.4427 191.987 63.4256C201.32 77.4085 206.296 93.8452 206.286 110.657C206.272 133.182 197.314 154.78 181.381 170.703C165.448 186.626 143.844 195.571 121.319 195.571V195.588Z" fill="#F2EFEF"/>
<path d="M219.56 223.695L242.325 191.666L0.295699 191.648L23.061 223.677L0.243164 255.619L242.378 255.636L219.56 223.695Z" fill="#F2EFEF"/>
</g>
<path d="M92.477 96.33C91.333 96.33 90.3063 96.154 89.397 95.802C88.4877 95.45 87.7177 94.9367 87.087 94.262C86.4563 93.5727 85.9723 92.7367 85.635 91.754C85.2977 90.7713 85.129 89.642 85.129 88.366C85.129 87.09 85.3197 85.9607 85.701 84.978C86.097 83.9953 86.6323 83.1667 87.307 82.492C87.9817 81.8027 88.7737 81.282 89.683 80.93C90.5923 80.578 91.5677 80.402 92.609 80.402C93.2397 80.402 93.8117 80.4533 94.325 80.556C94.8383 80.644 95.2857 80.7467 95.667 80.864C96.0483 80.9813 96.3637 81.106 96.613 81.238C96.8623 81.37 97.0383 81.4653 97.141 81.524L96.327 83.79C95.975 83.57 95.469 83.3647 94.809 83.174C94.1637 82.9687 93.4597 82.866 92.697 82.866C92.037 82.866 91.421 82.9833 90.849 83.218C90.277 83.438 89.7783 83.7753 89.353 84.23C88.9423 84.6847 88.6197 85.2567 88.385 85.946C88.1503 86.6353 88.033 87.4347 88.033 88.344C88.033 89.1507 88.121 89.8913 88.297 90.566C88.4877 91.2407 88.7737 91.8273 89.155 92.326C89.5363 92.81 90.0203 93.1913 90.607 93.47C91.1937 93.734 91.8977 93.866 92.719 93.866C93.7017 93.866 94.501 93.7707 95.117 93.58C95.733 93.3747 96.2097 93.184 96.547 93.008L97.295 95.274C97.119 95.3913 96.877 95.5087 96.569 95.626C96.2757 95.7433 95.9237 95.8607 95.513 95.978C95.1023 96.0807 94.6403 96.1613 94.127 96.22C93.6137 96.2933 93.0637 96.33 92.477 96.33ZM103.602 96.22C102.81 96.2053 102.15 96.1173 101.622 95.956C101.109 95.7947 100.698 95.5673 100.39 95.274C100.082 94.966 99.8623 94.592 99.7303 94.152C99.613 93.6973 99.5543 93.184 99.5543 92.612V79.368L102.216 78.928V92.106C102.216 92.4287 102.238 92.7 102.282 92.92C102.341 93.14 102.436 93.3307 102.568 93.492C102.7 93.6387 102.876 93.756 103.096 93.844C103.331 93.9173 103.624 93.976 103.976 94.02L103.602 96.22ZM108.814 96H106.152V84.494H108.814V96ZM109.1 81.128C109.1 81.6267 108.938 82.0227 108.616 82.316C108.293 82.6093 107.912 82.756 107.472 82.756C107.017 82.756 106.628 82.6093 106.306 82.316C105.983 82.0227 105.822 81.6267 105.822 81.128C105.822 80.6147 105.983 80.2113 106.306 79.918C106.628 79.6247 107.017 79.478 107.472 79.478C107.912 79.478 108.293 79.6247 108.616 79.918C108.938 80.2113 109.1 80.6147 109.1 81.128ZM112.21 84.868C112.723 84.7213 113.39 84.582 114.212 84.45C115.033 84.318 115.942 84.252 116.94 84.252C117.878 84.252 118.663 84.384 119.294 84.648C119.924 84.8973 120.423 85.2567 120.79 85.726C121.171 86.1807 121.435 86.738 121.582 87.398C121.743 88.0433 121.824 88.7547 121.824 89.532V96H119.162V89.95C119.162 89.334 119.118 88.8133 119.03 88.388C118.956 87.948 118.824 87.596 118.634 87.332C118.458 87.0533 118.208 86.8553 117.886 86.738C117.578 86.606 117.196 86.54 116.742 86.54C116.404 86.54 116.052 86.562 115.686 86.606C115.319 86.65 115.048 86.6867 114.872 86.716V96H112.21V84.868ZM127.763 96H125.101V84.494H127.763V96ZM128.049 81.128C128.049 81.6267 127.887 82.0227 127.565 82.316C127.242 82.6093 126.861 82.756 126.421 82.756C125.966 82.756 125.577 82.6093 125.255 82.316C124.932 82.0227 124.771 81.6267 124.771 81.128C124.771 80.6147 124.932 80.2113 125.255 79.918C125.577 79.6247 125.966 79.478 126.421 79.478C126.861 79.478 127.242 79.6247 127.565 79.918C127.887 80.2113 128.049 80.6147 128.049 81.128ZM130.521 90.258C130.521 89.4073 130.653 88.6153 130.917 87.882C131.181 87.134 131.555 86.4887 132.039 85.946C132.538 85.4033 133.139 84.978 133.843 84.67C134.547 84.362 135.339 84.208 136.219 84.208C137.304 84.208 138.331 84.406 139.299 84.802L138.727 86.98C138.419 86.848 138.067 86.738 137.671 86.65C137.29 86.562 136.879 86.518 136.439 86.518C135.398 86.518 134.606 86.848 134.063 87.508C133.52 88.1533 133.249 89.07 133.249 90.258C133.249 91.402 133.506 92.3113 134.019 92.986C134.532 93.646 135.398 93.976 136.615 93.976C137.07 93.976 137.517 93.932 137.957 93.844C138.397 93.756 138.778 93.646 139.101 93.514L139.475 95.714C139.182 95.8607 138.734 95.9927 138.133 96.11C137.546 96.2273 136.938 96.286 136.307 96.286C135.324 96.286 134.466 96.1393 133.733 95.846C133.014 95.538 132.413 95.12 131.929 94.592C131.46 94.0493 131.108 93.4113 130.873 92.678C130.638 91.93 130.521 91.1233 130.521 90.258ZM145.584 94.13C146.405 94.13 147.028 94.086 147.454 93.998V91.05C147.307 91.006 147.094 90.962 146.816 90.918C146.537 90.874 146.229 90.852 145.892 90.852C145.598 90.852 145.298 90.874 144.99 90.918C144.696 90.962 144.425 91.0427 144.176 91.16C143.941 91.2773 143.75 91.446 143.604 91.666C143.457 91.8713 143.384 92.1353 143.384 92.458C143.384 93.0887 143.582 93.5287 143.978 93.778C144.374 94.0127 144.909 94.13 145.584 94.13ZM145.364 84.208C146.244 84.208 146.984 84.318 147.586 84.538C148.187 84.758 148.664 85.066 149.016 85.462C149.382 85.858 149.639 86.342 149.786 86.914C149.947 87.4713 150.028 88.0873 150.028 88.762V95.736C149.617 95.824 148.994 95.9267 148.158 96.044C147.336 96.176 146.405 96.242 145.364 96.242C144.674 96.242 144.044 96.176 143.472 96.044C142.9 95.912 142.408 95.6993 141.998 95.406C141.602 95.1127 141.286 94.7313 141.052 94.262C140.832 93.7927 140.722 93.2133 140.722 92.524C140.722 91.864 140.846 91.3067 141.096 90.852C141.36 90.3973 141.712 90.0307 142.152 89.752C142.592 89.4587 143.098 89.2533 143.67 89.136C144.256 89.004 144.865 88.938 145.496 88.938C145.789 88.938 146.097 88.96 146.42 89.004C146.742 89.0333 147.087 89.092 147.454 89.18V88.74C147.454 88.432 147.417 88.1387 147.344 87.86C147.27 87.5813 147.138 87.3393 146.948 87.134C146.772 86.914 146.53 86.7453 146.222 86.628C145.928 86.5107 145.554 86.452 145.1 86.452C144.484 86.452 143.919 86.496 143.406 86.584C142.892 86.672 142.474 86.7747 142.152 86.892L141.822 84.736C142.159 84.6187 142.65 84.5013 143.296 84.384C143.941 84.2667 144.63 84.208 145.364 84.208ZM157.292 96.22C156.5 96.2053 155.84 96.1173 155.312 95.956C154.798 95.7947 154.388 95.5673 154.08 95.274C153.772 94.966 153.552 94.592 153.42 94.152C153.302 93.6973 153.244 93.184 153.244 92.612V79.368L155.906 78.928V92.106C155.906 92.4287 155.928 92.7 155.972 92.92C156.03 93.14 156.126 93.3307 156.258 93.492C156.39 93.6387 156.566 93.756 156.786 93.844C157.02 93.9173 157.314 93.976 157.666 94.02L157.292 96.22ZM89.3348 119.302C89.3348 120.417 89.5548 121.304 89.9948 121.964C90.4494 122.624 91.1608 122.954 92.1288 122.954C92.5688 122.954 92.9794 122.888 93.3608 122.756C93.7568 122.609 94.0721 122.455 94.3068 122.294V115.716C94.1161 115.672 93.8741 115.635 93.5808 115.606C93.3021 115.562 92.9354 115.54 92.4808 115.54C91.4981 115.54 90.7281 115.877 90.1708 116.552C89.6134 117.212 89.3348 118.129 89.3348 119.302ZM86.6068 119.258C86.6068 118.349 86.7388 117.527 87.0028 116.794C87.2814 116.046 87.6701 115.415 88.1688 114.902C88.6821 114.374 89.2981 113.971 90.0168 113.692C90.7354 113.399 91.5494 113.252 92.4588 113.252C93.3681 113.252 94.2188 113.318 95.0108 113.45C95.8028 113.582 96.4554 113.721 96.9688 113.868V129.07H94.3068V124.604C93.9988 124.765 93.6174 124.912 93.1628 125.044C92.7228 125.176 92.2314 125.242 91.6888 125.242C90.8674 125.242 90.1414 125.103 89.5108 124.824C88.8801 124.531 88.3521 124.12 87.9268 123.592C87.5014 123.064 87.1714 122.433 86.9368 121.7C86.7168 120.967 86.6068 120.153 86.6068 119.258ZM109.788 124.648C109.275 124.78 108.608 124.912 107.786 125.044C106.965 125.191 106.063 125.264 105.08 125.264C104.156 125.264 103.379 125.132 102.748 124.868C102.132 124.604 101.634 124.237 101.252 123.768C100.886 123.299 100.622 122.741 100.46 122.096C100.299 121.436 100.218 120.717 100.218 119.94V113.494H102.88V119.522C102.88 120.754 103.056 121.634 103.408 122.162C103.775 122.69 104.406 122.954 105.3 122.954C105.623 122.954 105.96 122.939 106.312 122.91C106.679 122.881 106.95 122.844 107.126 122.8V113.494H109.788V124.648ZM117.224 123.13C118.046 123.13 118.669 123.086 119.094 122.998V120.05C118.948 120.006 118.735 119.962 118.456 119.918C118.178 119.874 117.87 119.852 117.532 119.852C117.239 119.852 116.938 119.874 116.63 119.918C116.337 119.962 116.066 120.043 115.816 120.16C115.582 120.277 115.391 120.446 115.244 120.666C115.098 120.871 115.024 121.135 115.024 121.458C115.024 122.089 115.222 122.529 115.618 122.778C116.014 123.013 116.55 123.13 117.224 123.13ZM117.004 113.208C117.884 113.208 118.625 113.318 119.226 113.538C119.828 113.758 120.304 114.066 120.656 114.462C121.023 114.858 121.28 115.342 121.426 115.914C121.588 116.471 121.668 117.087 121.668 117.762V124.736C121.258 124.824 120.634 124.927 119.798 125.044C118.977 125.176 118.046 125.242 117.004 125.242C116.315 125.242 115.684 125.176 115.112 125.044C114.54 124.912 114.049 124.699 113.638 124.406C113.242 124.113 112.927 123.731 112.692 123.262C112.472 122.793 112.362 122.213 112.362 121.524C112.362 120.864 112.487 120.307 112.736 119.852C113 119.397 113.352 119.031 113.792 118.752C114.232 118.459 114.738 118.253 115.31 118.136C115.897 118.004 116.506 117.938 117.136 117.938C117.43 117.938 117.738 117.96 118.06 118.004C118.383 118.033 118.728 118.092 119.094 118.18V117.74C119.094 117.432 119.058 117.139 118.984 116.86C118.911 116.581 118.779 116.339 118.588 116.134C118.412 115.914 118.17 115.745 117.862 115.628C117.569 115.511 117.195 115.452 116.74 115.452C116.124 115.452 115.56 115.496 115.046 115.584C114.533 115.672 114.115 115.775 113.792 115.892L113.462 113.736C113.8 113.619 114.291 113.501 114.936 113.384C115.582 113.267 116.271 113.208 117.004 113.208ZM128.932 125.22C128.14 125.205 127.48 125.117 126.952 124.956C126.439 124.795 126.028 124.567 125.72 124.274C125.412 123.966 125.192 123.592 125.06 123.152C124.943 122.697 124.884 122.184 124.884 121.612V108.368L127.546 107.928V121.106C127.546 121.429 127.568 121.7 127.612 121.92C127.671 122.14 127.766 122.331 127.898 122.492C128.03 122.639 128.206 122.756 128.426 122.844C128.661 122.917 128.954 122.976 129.306 123.02L128.932 125.22ZM134.144 125H131.482V113.494H134.144V125ZM134.43 110.128C134.43 110.627 134.268 111.023 133.946 111.316C133.623 111.609 133.242 111.756 132.802 111.756C132.347 111.756 131.958 111.609 131.636 111.316C131.313 111.023 131.152 110.627 131.152 110.128C131.152 109.615 131.313 109.211 131.636 108.918C131.958 108.625 132.347 108.478 132.802 108.478C133.242 108.478 133.623 108.625 133.946 108.918C134.268 109.211 134.43 109.615 134.43 110.128ZM137.408 110.458L140.07 110.018V113.494H144.162V115.716H140.07V120.402C140.07 121.326 140.216 121.986 140.51 122.382C140.803 122.778 141.302 122.976 142.006 122.976C142.49 122.976 142.915 122.925 143.282 122.822C143.663 122.719 143.964 122.624 144.184 122.536L144.624 124.648C144.316 124.78 143.912 124.912 143.414 125.044C142.915 125.191 142.328 125.264 141.654 125.264C140.832 125.264 140.143 125.154 139.586 124.934C139.043 124.714 138.61 124.399 138.288 123.988C137.965 123.563 137.738 123.057 137.606 122.47C137.474 121.869 137.408 121.187 137.408 120.424V110.458ZM156.129 113.494C154.941 117.865 153.562 121.825 151.993 125.374C151.7 126.034 151.399 126.599 151.091 127.068C150.783 127.537 150.438 127.926 150.057 128.234C149.676 128.542 149.25 128.762 148.781 128.894C148.312 129.041 147.769 129.114 147.153 129.114C146.742 129.114 146.332 129.07 145.921 128.982C145.525 128.894 145.224 128.799 145.019 128.696L145.503 126.562C146.031 126.767 146.552 126.87 147.065 126.87C147.754 126.87 148.29 126.701 148.671 126.364C149.067 126.041 149.412 125.535 149.705 124.846C148.869 123.233 148.062 121.473 147.285 119.566C146.522 117.659 145.84 115.635 145.239 113.494H148.077C148.224 114.11 148.4 114.777 148.605 115.496C148.825 116.215 149.06 116.948 149.309 117.696C149.558 118.429 149.822 119.163 150.101 119.896C150.38 120.629 150.658 121.311 150.937 121.942C151.406 120.637 151.846 119.251 152.257 117.784C152.668 116.303 153.042 114.873 153.379 113.494H156.129ZM95.5252 152.13C96.3465 152.13 96.9699 152.086 97.3952 151.998V149.05C97.2485 149.006 97.0359 148.962 96.7572 148.918C96.4785 148.874 96.1705 148.852 95.8332 148.852C95.5399 148.852 95.2392 148.874 94.9312 148.918C94.6379 148.962 94.3665 149.043 94.1172 149.16C93.8825 149.277 93.6919 149.446 93.5452 149.666C93.3985 149.871 93.3252 150.135 93.3252 150.458C93.3252 151.089 93.5232 151.529 93.9192 151.778C94.3152 152.013 94.8505 152.13 95.5252 152.13ZM95.3052 142.208C96.1852 142.208 96.9259 142.318 97.5272 142.538C98.1285 142.758 98.6052 143.066 98.9572 143.462C99.3239 143.858 99.5805 144.342 99.7272 144.914C99.8885 145.471 99.9692 146.087 99.9692 146.762V153.736C99.5585 153.824 98.9352 153.927 98.0992 154.044C97.2779 154.176 96.3465 154.242 95.3052 154.242C94.6159 154.242 93.9852 154.176 93.4132 154.044C92.8412 153.912 92.3499 153.699 91.9392 153.406C91.5432 153.113 91.2279 152.731 90.9932 152.262C90.7732 151.793 90.6632 151.213 90.6632 150.524C90.6632 149.864 90.7879 149.307 91.0372 148.852C91.3012 148.397 91.6532 148.031 92.0932 147.752C92.5332 147.459 93.0392 147.253 93.6112 147.136C94.1979 147.004 94.8065 146.938 95.4372 146.938C95.7305 146.938 96.0385 146.96 96.3612 147.004C96.6839 147.033 97.0285 147.092 97.3952 147.18V146.74C97.3952 146.432 97.3585 146.139 97.2852 145.86C97.2119 145.581 97.0799 145.339 96.8892 145.134C96.7132 144.914 96.4712 144.745 96.1632 144.628C95.8699 144.511 95.4959 144.452 95.0412 144.452C94.4252 144.452 93.8605 144.496 93.3472 144.584C92.8339 144.672 92.4159 144.775 92.0932 144.892L91.7632 142.736C92.1005 142.619 92.5919 142.501 93.2372 142.384C93.8825 142.267 94.5719 142.208 95.3052 142.208ZM109.878 146.762C109.541 148.053 109.174 149.314 108.778 150.546C108.397 151.763 108.016 152.915 107.634 154H105.456C105.163 153.325 104.855 152.555 104.532 151.69C104.21 150.825 103.887 149.901 103.564 148.918C103.242 147.935 102.919 146.901 102.596 145.816C102.274 144.731 101.958 143.623 101.65 142.494H104.466C104.598 143.11 104.752 143.777 104.928 144.496C105.104 145.2 105.288 145.926 105.478 146.674C105.669 147.407 105.867 148.126 106.072 148.83C106.278 149.534 106.483 150.179 106.688 150.766C106.908 150.091 107.121 149.395 107.326 148.676C107.546 147.957 107.752 147.239 107.942 146.52C108.133 145.801 108.309 145.105 108.47 144.43C108.646 143.741 108.8 143.095 108.932 142.494H110.978C111.11 143.095 111.257 143.741 111.418 144.43C111.58 145.105 111.748 145.801 111.924 146.52C112.115 147.239 112.313 147.957 112.518 148.676C112.738 149.395 112.958 150.091 113.178 150.766C113.369 150.179 113.567 149.534 113.772 148.83C113.978 148.126 114.176 147.407 114.366 146.674C114.572 145.926 114.762 145.2 114.938 144.496C115.114 143.777 115.268 143.11 115.4 142.494H118.15C117.842 143.623 117.527 144.731 117.204 145.816C116.882 146.901 116.559 147.935 116.236 148.918C115.914 149.901 115.591 150.825 115.268 151.69C114.946 152.555 114.63 153.325 114.322 154H112.166C111.785 152.915 111.389 151.763 110.978 150.546C110.582 149.314 110.216 148.053 109.878 146.762ZM124.228 152.13C125.05 152.13 125.673 152.086 126.098 151.998V149.05C125.952 149.006 125.739 148.962 125.46 148.918C125.182 148.874 124.874 148.852 124.536 148.852C124.243 148.852 123.942 148.874 123.634 148.918C123.341 148.962 123.07 149.043 122.82 149.16C122.586 149.277 122.395 149.446 122.248 149.666C122.102 149.871 122.028 150.135 122.028 150.458C122.028 151.089 122.226 151.529 122.622 151.778C123.018 152.013 123.554 152.13 124.228 152.13ZM124.008 142.208C124.888 142.208 125.629 142.318 126.23 142.538C126.832 142.758 127.308 143.066 127.66 143.462C128.027 143.858 128.284 144.342 128.43 144.914C128.592 145.471 128.672 146.087 128.672 146.762V153.736C128.262 153.824 127.638 153.927 126.802 154.044C125.981 154.176 125.05 154.242 124.008 154.242C123.319 154.242 122.688 154.176 122.116 154.044C121.544 153.912 121.053 153.699 120.642 153.406C120.246 153.113 119.931 152.731 119.696 152.262C119.476 151.793 119.366 151.213 119.366 150.524C119.366 149.864 119.491 149.307 119.74 148.852C120.004 148.397 120.356 148.031 120.796 147.752C121.236 147.459 121.742 147.253 122.314 147.136C122.901 147.004 123.51 146.938 124.14 146.938C124.434 146.938 124.742 146.96 125.064 147.004C125.387 147.033 125.732 147.092 126.098 147.18V146.74C126.098 146.432 126.062 146.139 125.988 145.86C125.915 145.581 125.783 145.339 125.592 145.134C125.416 144.914 125.174 144.745 124.866 144.628C124.573 144.511 124.199 144.452 123.744 144.452C123.128 144.452 122.564 144.496 122.05 144.584C121.537 144.672 121.119 144.775 120.796 144.892L120.466 142.736C120.804 142.619 121.295 142.501 121.94 142.384C122.586 142.267 123.275 142.208 124.008 142.208ZM138.488 144.892C138.268 144.819 137.96 144.745 137.564 144.672C137.183 144.584 136.736 144.54 136.222 144.54C135.929 144.54 135.614 144.569 135.276 144.628C134.954 144.687 134.726 144.738 134.594 144.782V154H131.932V143.044C132.446 142.853 133.084 142.677 133.846 142.516C134.624 142.34 135.482 142.252 136.42 142.252C136.596 142.252 136.802 142.267 137.036 142.296C137.271 142.311 137.506 142.34 137.74 142.384C137.975 142.413 138.202 142.457 138.422 142.516C138.642 142.56 138.818 142.604 138.95 142.648L138.488 144.892ZM142.895 148.214C142.895 149.387 143.174 150.311 143.731 150.986C144.289 151.646 145.059 151.976 146.041 151.976C146.467 151.976 146.826 151.961 147.119 151.932C147.427 151.888 147.677 151.844 147.867 151.8V145.2C147.633 145.039 147.317 144.892 146.921 144.76C146.54 144.613 146.129 144.54 145.689 144.54C144.721 144.54 144.01 144.87 143.555 145.53C143.115 146.19 142.895 147.085 142.895 148.214ZM150.529 153.648C150.001 153.809 149.334 153.956 148.527 154.088C147.735 154.22 146.899 154.286 146.019 154.286C145.11 154.286 144.296 154.147 143.577 153.868C142.859 153.589 142.243 153.193 141.729 152.68C141.231 152.152 140.842 151.521 140.563 150.788C140.299 150.04 140.167 149.204 140.167 148.28C140.167 147.371 140.277 146.549 140.497 145.816C140.732 145.068 141.069 144.43 141.509 143.902C141.949 143.374 142.485 142.971 143.115 142.692C143.746 142.399 144.472 142.252 145.293 142.252C145.851 142.252 146.342 142.318 146.767 142.45C147.193 142.582 147.559 142.729 147.867 142.89V137.368L150.529 136.928V153.648Z" fill="#1D5292"/>
<path d="M108.649 220.712C108.649 221.144 108.559 221.564 108.379 221.972C108.211 222.368 107.983 222.764 107.695 223.16C107.407 223.544 107.083 223.928 106.723 224.312C106.363 224.684 106.003 225.05 105.643 225.41C105.439 225.614 105.199 225.854 104.923 226.13C104.659 226.406 104.407 226.694 104.167 226.994C103.927 227.294 103.723 227.582 103.555 227.858C103.399 228.134 103.321 228.374 103.321 228.578H109.063V230H101.503C101.491 229.928 101.485 229.856 101.485 229.784C101.485 229.712 101.485 229.646 101.485 229.586C101.485 229.022 101.575 228.5 101.755 228.02C101.947 227.528 102.193 227.066 102.493 226.634C102.793 226.202 103.129 225.794 103.501 225.41C103.873 225.026 104.239 224.654 104.599 224.294C104.899 224.006 105.181 223.724 105.445 223.448C105.721 223.16 105.961 222.878 106.165 222.602C106.381 222.314 106.549 222.02 106.669 221.72C106.801 221.42 106.867 221.102 106.867 220.766C106.867 220.406 106.807 220.1 106.687 219.848C106.579 219.596 106.429 219.386 106.237 219.218C106.045 219.05 105.817 218.93 105.553 218.858C105.301 218.774 105.031 218.732 104.743 218.732C104.395 218.732 104.077 218.78 103.789 218.876C103.501 218.972 103.243 219.086 103.015 219.218C102.787 219.338 102.595 219.47 102.439 219.614C102.283 219.746 102.163 219.848 102.079 219.92L101.251 218.732C101.359 218.612 101.521 218.468 101.737 218.3C101.953 218.12 102.211 217.952 102.511 217.796C102.811 217.64 103.147 217.508 103.519 217.4C103.891 217.292 104.293 217.238 104.725 217.238C106.033 217.238 107.011 217.544 107.659 218.156C108.319 218.756 108.649 219.608 108.649 220.712ZM111.303 223.754C111.303 221.666 111.669 220.058 112.401 218.93C113.145 217.802 114.171 217.238 115.479 217.238C116.787 217.238 117.807 217.802 118.539 218.93C119.283 220.058 119.655 221.666 119.655 223.754C119.655 225.842 119.283 227.45 118.539 228.578C117.807 229.706 116.787 230.27 115.479 230.27C114.171 230.27 113.145 229.706 112.401 228.578C111.669 227.45 111.303 225.842 111.303 223.754ZM117.891 223.754C117.891 223.07 117.849 222.422 117.765 221.81C117.693 221.198 117.561 220.664 117.369 220.208C117.189 219.752 116.943 219.392 116.631 219.128C116.319 218.852 115.935 218.714 115.479 218.714C115.023 218.714 114.639 218.852 114.327 219.128C114.015 219.392 113.763 219.752 113.571 220.208C113.391 220.664 113.259 221.198 113.175 221.81C113.103 222.422 113.067 223.07 113.067 223.754C113.067 224.438 113.103 225.086 113.175 225.698C113.259 226.31 113.391 226.844 113.571 227.3C113.763 227.756 114.015 228.122 114.327 228.398C114.639 228.662 115.023 228.794 115.479 228.794C115.935 228.794 116.319 228.662 116.631 228.398C116.943 228.122 117.189 227.756 117.369 227.3C117.561 226.844 117.693 226.31 117.765 225.698C117.849 225.086 117.891 224.438 117.891 223.754ZM128.969 220.712C128.969 221.144 128.879 221.564 128.699 221.972C128.531 222.368 128.303 222.764 128.015 223.16C127.727 223.544 127.403 223.928 127.043 224.312C126.683 224.684 126.323 225.05 125.963 225.41C125.759 225.614 125.519 225.854 125.243 226.13C124.979 226.406 124.727 226.694 124.487 226.994C124.247 227.294 124.043 227.582 123.875 227.858C123.719 228.134 123.641 228.374 123.641 228.578H129.383V230H121.823C121.811 229.928 121.805 229.856 121.805 229.784C121.805 229.712 121.805 229.646 121.805 229.586C121.805 229.022 121.895 228.5 122.075 228.02C122.267 227.528 122.513 227.066 122.813 226.634C123.113 226.202 123.449 225.794 123.821 225.41C124.193 225.026 124.559 224.654 124.919 224.294C125.219 224.006 125.501 223.724 125.765 223.448C126.041 223.16 126.281 222.878 126.485 222.602C126.701 222.314 126.869 222.02 126.989 221.72C127.121 221.42 127.187 221.102 127.187 220.766C127.187 220.406 127.127 220.1 127.007 219.848C126.899 219.596 126.749 219.386 126.557 219.218C126.365 219.05 126.137 218.93 125.873 218.858C125.621 218.774 125.351 218.732 125.063 218.732C124.715 218.732 124.397 218.78 124.109 218.876C123.821 218.972 123.563 219.086 123.335 219.218C123.107 219.338 122.915 219.47 122.759 219.614C122.603 219.746 122.483 219.848 122.399 219.92L121.571 218.732C121.679 218.612 121.841 218.468 122.057 218.3C122.273 218.12 122.531 217.952 122.831 217.796C123.131 217.64 123.467 217.508 123.839 217.4C124.211 217.292 124.613 217.238 125.045 217.238C126.353 217.238 127.331 217.544 127.979 218.156C128.639 218.756 128.969 219.608 128.969 220.712ZM131.624 223.754C131.624 221.666 131.99 220.058 132.722 218.93C133.466 217.802 134.492 217.238 135.8 217.238C137.108 217.238 138.128 217.802 138.86 218.93C139.604 220.058 139.976 221.666 139.976 223.754C139.976 225.842 139.604 227.45 138.86 228.578C138.128 229.706 137.108 230.27 135.8 230.27C134.492 230.27 133.466 229.706 132.722 228.578C131.99 227.45 131.624 225.842 131.624 223.754ZM138.212 223.754C138.212 223.07 138.17 222.422 138.086 221.81C138.014 221.198 137.882 220.664 137.69 220.208C137.51 219.752 137.264 219.392 136.952 219.128C136.64 218.852 136.256 218.714 135.8 218.714C135.344 218.714 134.96 218.852 134.648 219.128C134.336 219.392 134.084 219.752 133.892 220.208C133.712 220.664 133.58 221.198 133.496 221.81C133.424 222.422 133.388 223.07 133.388 223.754C133.388 224.438 133.424 225.086 133.496 225.698C133.58 226.31 133.712 226.844 133.892 227.3C134.084 227.756 134.336 228.122 134.648 228.398C134.96 228.662 135.344 228.794 135.8 228.794C136.256 228.794 136.64 228.662 136.952 228.398C137.264 228.122 137.51 227.756 137.69 227.3C137.882 226.844 138.014 226.31 138.086 225.698C138.17 225.086 138.212 224.438 138.212 223.754Z" fill="#FF8761"/>
<defs>
<clipPath id="clip0_229_6604">
<rect width="242.135" height="255.636" fill="white" transform="translate(0.243164)"/>
</clipPath>
</defs>
</svg>
