<svg width="57" height="57" viewBox="0 0 57 57" fill="none" xmlns="http://www.w3.org/2000/svg">
<path d="M13.3594 13.2623C11.718 12.768 10.708 12.4812 10.6875 12.4688C8.98017 11.4445 1.78125 5.34375 1.78125 5.34375" stroke="#FF8761" stroke-width="1.5" stroke-linecap="round" stroke-linejoin="round"/>
<path d="M1.78125 26.7187C1.78125 26.7187 8.01562 30.2812 8.90625 32.0625C9.79688 33.8437 11.962 39.7637 13.3594 41.8594C14.9924 44.342 16.7771 46.7215 18.7031 48.9844C20.4844 50.7656 21.375 55.2187 24.0469 55.2187C25.8281 55.2187 26.7188 53.4375 25.8281 50.7656C25.2652 49.0734 20.3766 42.8578 22.2656 40.9687C24.0469 39.1875 40.0781 54.3281 43.6406 54.3281C46.3125 54.3281 46.3125 52.5469 46.3125 51.6562C46.3125 50.7656 34.7344 40.9687 34.7344 40.9687C34.7344 40.9687 48.9844 48.9844 50.7656 48.9844C53.4375 48.9844 53.4375 47.2031 53.4375 46.3125C53.295 44.867 41.8594 39.1875 37.4062 35.625C37.4062 35.625 50.7656 40.0781 52.5469 40.0781C55.2188 40.0781 55.2188 38.2969 55.2188 37.4062C55.2188 36.5156 45.8672 33.5133 39.1875 30.2812C45.4219 31.1719 50.7656 32.9531 52.5469 32.9531C55.2188 32.9531 55.2188 31.1719 55.2188 30.2812C55.2188 28.5 45.4219 26.7187 38.2969 23.1562C36.3119 21.9015 34.2266 20.8127 32.0625 19.901" stroke="#FF8761" stroke-width="1.5" stroke-linecap="round" stroke-linejoin="round"/>
<path d="M23.1562 1.78125C23.1562 1.78125 29.3906 9.79688 29.3906 14.25C29.3906 18.7031 27.0527 21.375 23.1562 21.375C19.2598 21.375 16.9219 18.7031 16.9219 14.25C16.9219 9.79688 23.1562 1.78125 23.1562 1.78125Z" stroke="#FF8761" stroke-width="1.5" stroke-linecap="round" stroke-linejoin="round"/>
<path d="M22.2656 17.7341C21.4186 17.532 20.4844 16.8132 20.4844 14.25" stroke="#FF8761" stroke-width="1.5" stroke-linecap="round" stroke-linejoin="round"/>
</svg>
