<svg width="46" height="50" viewBox="0 0 46 50" fill="none" xmlns="http://www.w3.org/2000/svg">
<path d="M9.97913 50C9.68702 50 9.40347 49.8461 9.25058 49.5737C5.84835 43.5001 2.50457 30.0039 8.0158 19.6424C13.2293 9.84216 8.09669 1.35948 8.04424 1.27548C7.80146 0.884262 7.92102 0.369817 8.3118 0.126039C8.70235 -0.116406 9.21702 0.000927344 9.46024 0.392039C9.69591 0.768928 15.1678 9.7515 9.48924 20.4261C4.0969 30.5646 7.98069 43.892 10.7065 48.7574C10.9318 49.1597 10.7887 49.6681 10.3864 49.8938C10.2572 49.9661 10.1175 50 9.97913 50Z" fill="#FF8761"/>
<path d="M36.4465 50.0001C36.3082 50.0001 36.1683 49.9662 36.0392 49.8938C35.637 49.6682 35.4939 49.1597 35.7191 48.7575C38.445 43.8919 42.3287 30.5646 36.9363 20.4261C31.258 9.75167 36.7296 0.768991 36.9652 0.392102C37.2097 0.000989968 37.7251 -0.116343 38.1154 0.126768C38.5058 0.370657 38.6248 0.884991 38.381 1.27555C38.3102 1.39088 33.2065 9.86045 38.4097 19.6425C43.921 30.0039 40.5771 43.5002 37.1749 49.5737C37.0221 49.8462 36.7385 50.0001 36.4465 50.0001Z" fill="#FF8761"/>
<path d="M45.1431 34.396C44.6516 34.3784 44.2917 33.9917 44.3087 33.5308C44.4902 28.5439 43.582 24.1348 41.6096 20.4258C39.3091 16.1013 38.5473 11.3401 39.4067 6.65643C39.4898 6.20332 39.9257 5.90599 40.378 5.98621C40.8315 6.06965 41.1313 6.50454 41.0482 6.95754C40.2463 11.329 40.9309 15.596 43.083 19.6421C45.1953 23.6138 46.169 28.3072 45.9763 33.592C45.9599 34.042 45.5897 34.396 45.1431 34.396Z" fill="#FF8761"/>
<path d="M1.28289 34.3961C0.83589 34.3961 0.465889 34.0421 0.449667 33.5922C0.257 28.3074 1.23067 23.614 3.34312 19.6423C5.49523 15.5968 6.17968 11.3292 5.37812 6.95772C5.29501 6.50461 5.59523 6.06916 6.04834 5.98638C6.50279 5.90549 6.93657 6.20349 7.01968 6.65661C7.87868 11.3403 7.1169 16.1022 4.81634 20.426C2.84389 24.1349 1.93567 28.5441 2.11722 33.531C2.13422 33.9919 1.77434 34.3785 1.31367 34.3955C1.30345 34.3961 1.29333 34.3961 1.28289 34.3961Z" fill="#FF8761"/>
<path d="M23.2123 38.7271C22.9763 38.7271 22.7511 38.6274 22.5929 38.452L16.5138 31.7192C15.3621 30.4433 15.0397 28.6466 15.6731 27.0291C16.2843 25.4683 17.6267 24.4486 19.264 24.3007C19.4143 24.2869 19.5686 24.2798 19.724 24.2798C21.035 24.2798 22.2799 24.7877 23.2122 25.6743C24.255 24.6828 25.7281 24.1722 27.1623 24.3007C28.7991 24.4492 30.1405 25.469 30.7514 27.0291C31.3848 28.6466 31.0624 30.4433 29.9107 31.7192L23.8316 38.452C23.6737 38.6272 23.4483 38.7271 23.2123 38.7271ZM19.7241 25.9487C19.6204 25.9487 19.5173 25.9533 19.416 25.963C18.4201 26.0523 17.6027 26.6789 17.2274 27.6372C16.8261 28.6621 17.0273 29.7971 17.7524 30.6004L23.2123 36.6474L28.6721 30.6005C29.3975 29.7972 29.5986 28.6622 29.1972 27.6373C28.822 26.6789 28.0045 26.0525 27.0106 25.9631C25.8126 25.8458 24.5943 26.4149 23.9 27.4261C23.5891 27.8787 22.8355 27.8787 22.5245 27.4261C21.8892 26.5009 20.8424 25.9487 19.7241 25.9487Z" fill="#FF8761"/>
<path d="M24.8669 16.2464C25.0156 15.3292 24.3926 14.4652 23.4755 14.3165C22.5583 14.1678 21.6943 14.7908 21.5456 15.708C21.3969 16.6251 22.0199 17.4892 22.9371 17.6379C23.8542 17.7865 24.7183 17.1636 24.8669 16.2464Z" fill="#FF8761"/>
<path d="M23.2124 49.9999C22.7514 49.9999 22.3779 49.6263 22.3779 49.1654V37.8924C22.3779 37.4314 22.7515 37.0579 23.2124 37.0579C23.6733 37.0579 24.0468 37.4314 24.0468 37.8924V49.1654C24.0469 49.6263 23.6733 49.9999 23.2124 49.9999Z" fill="#FF8761"/>
</svg>
