<svg width="243" height="256" viewBox="0 0 243 256" fill="none" xmlns="http://www.w3.org/2000/svg">
<g clip-path="url(#clip0_229_6108)">
<path d="M78.1093 203.942C78.5062 202.524 78.4045 201.014 77.8212 199.662C77.2379 198.311 76.2084 197.2 74.9047 196.517C75.6845 197.978 75.8786 199.681 75.4475 201.28C75.036 202.684 75.1254 204.187 75.7005 205.532C76.2756 206.877 77.3005 207.98 78.5997 208.653C77.8425 207.202 77.6671 205.517 78.1093 203.942ZM75.5701 15.3055C74.6284 14.008 73.2456 13.0987 71.6813 12.7482C70.1169 12.3976 68.4784 12.6298 67.073 13.4012C65.6676 14.1727 64.592 15.4304 64.0479 16.9384C63.5038 18.4464 63.5285 20.1011 64.1174 21.5922C64.6527 22.95 64.7217 24.4472 64.3135 25.8484C63.9053 27.2497 63.0432 28.4757 61.8625 29.3336C60.6818 30.1916 59.2494 30.6329 57.7906 30.5883C56.3318 30.5437 54.9291 30.0157 53.803 29.0872C52.5659 28.0754 51.003 27.5481 49.4057 27.6036C47.8085 27.6591 46.2859 28.2937 45.122 29.389C43.9582 30.4843 43.2324 31.9655 43.08 33.5565C42.9277 35.1474 43.3593 36.7394 44.2942 38.0357C45.1548 39.2188 45.5969 40.6548 45.5506 42.1171C45.5044 43.5793 44.9725 44.9845 44.0389 46.1109C43.1053 47.2373 41.8231 48.0206 40.3948 48.3373C38.9665 48.654 37.4734 48.486 36.1512 47.8598C34.6999 47.1729 33.0476 47.04 31.5052 47.4861C29.9628 47.9322 28.6365 48.9265 27.7759 50.282C26.9152 51.6375 26.5796 53.2608 26.832 54.8465C27.0844 56.4321 27.9075 57.8709 29.1465 58.8922C30.278 59.8196 31.0675 61.0983 31.3896 62.5254C31.7117 63.9526 31.548 65.4464 30.9244 66.7699C30.3009 68.0935 29.2532 69.1709 27.9477 69.8312C26.6421 70.4915 25.1535 70.6969 23.7179 70.4149C22.1511 70.0417 20.5019 70.2574 19.0838 71.0208C17.6656 71.7842 16.5774 73.0421 16.0262 74.5554C15.4749 76.0687 15.499 77.7318 16.0938 79.2285C16.6886 80.7252 17.8127 81.9511 19.2524 82.6731C18.6883 81.5716 18.4453 80.3338 18.5508 79.1008C18.6564 77.8678 19.1064 76.6894 19.8495 75.6998C20.5925 74.7103 21.5988 73.9495 22.7534 73.5042C23.9081 73.059 25.1646 72.9473 26.3797 73.1817C27.8173 73.4561 29.3053 73.2437 30.6087 72.578C31.9121 71.9124 32.9566 70.8314 33.5772 69.5059C34.1977 68.1805 34.359 66.686 34.0355 65.2586C33.712 63.8313 32.9222 62.5524 31.7908 61.624C30.5518 60.6027 29.7286 59.1639 29.4762 57.5783C29.2238 55.9926 29.5595 54.3693 30.4201 53.0138C31.2807 51.6583 32.607 50.664 34.1495 50.2179C35.6919 49.7719 37.3442 49.9047 38.7955 50.5916C40.1176 51.2276 41.6145 51.4025 43.0477 51.0885C44.4808 50.7745 45.7674 49.9897 46.7025 48.8592C47.6375 47.7286 48.1671 46.3176 48.2067 44.851C48.2463 43.3844 47.7936 41.9468 46.9209 40.7675C45.9876 39.4695 45.5584 37.8763 45.7134 36.2851C45.8685 34.6939 46.5971 33.2134 47.7634 32.12C48.9298 31.0266 50.4541 30.3948 52.052 30.3427C53.6498 30.2905 55.2121 30.8215 56.4473 31.8365C57.5728 32.8125 58.9961 33.3779 60.4846 33.4403C61.973 33.5028 63.4387 33.0587 64.6421 32.1806C65.8455 31.3024 66.7155 30.0421 67.11 28.6055C67.5046 27.169 67.4003 25.6411 66.8142 24.2715C66.2914 22.9914 66.1837 21.5796 66.5063 20.235C66.8289 18.8905 67.5655 17.6812 68.6121 16.7777C69.6588 15.8742 70.9627 15.3221 72.3399 15.1994C73.7171 15.0766 75.0981 15.3894 76.2881 16.0935C76.0313 15.8473 75.7914 15.584 75.5701 15.3055ZM87.4255 10.6123C87.58 11.8443 87.384 13.0949 86.8599 14.2205C86.3358 15.3461 85.505 16.3011 84.4627 16.9758C83.4204 17.6506 82.2089 18.0177 80.9674 18.0351C79.7259 18.0525 78.5047 17.7194 77.4439 17.0742C77.7334 17.3534 77.9971 17.6582 78.2319 17.9848C79.0914 19.1646 80.3187 20.0253 81.7207 20.4316C83.1227 20.838 84.62 20.7669 85.9772 20.2297C87.3344 19.6924 88.4747 18.7193 89.2187 17.4635C89.9626 16.2076 90.2682 14.7401 90.0873 13.2916C89.9328 12.096 90.1077 10.8808 90.5932 9.77731C91.0787 8.67379 91.8563 7.72382 92.8422 7.02992C93.8281 6.33602 94.9848 5.92454 96.1874 5.83989C97.39 5.75524 98.5929 6.00064 99.6663 6.5496C98.9148 5.22956 97.7289 4.21085 96.3107 3.66698C94.8924 3.12311 93.3295 3.08771 91.8881 3.5668C90.4466 4.0459 89.2159 5.00986 88.4054 6.29452C87.5949 7.57918 87.2548 9.10507 87.4431 10.6123H87.4255ZM102.591 211.997C102.615 210.812 102.309 209.643 101.706 208.622C101.102 207.601 100.226 206.769 99.1759 206.218C99.6706 207.177 99.9288 208.24 99.9289 209.318C99.8829 210.512 100.18 211.694 100.785 212.725C101.391 213.755 102.278 214.591 103.344 215.132C102.837 214.166 102.578 213.088 102.591 211.997ZM25.9069 137.415C26.749 138.877 26.9877 140.609 26.5724 142.244C26.1571 143.879 25.1204 145.288 23.6828 146.171C22.6966 146.788 21.8911 147.655 21.3478 148.684C20.8044 149.712 20.5426 150.867 20.5888 152.029C20.635 153.192 20.9876 154.321 21.6109 155.304C22.2342 156.286 23.1061 157.086 24.1382 157.623C23.2762 156.168 23.0244 154.431 23.4377 152.791C23.8511 151.151 24.8959 149.74 26.3447 148.867C27.3542 148.261 28.1828 147.396 28.7441 146.361C29.3054 145.325 29.5788 144.159 29.5359 142.982C29.493 141.805 29.1353 140.662 28.5001 139.67C27.8649 138.679 26.9754 137.876 25.9243 137.345L25.9069 137.415ZM21.0736 111.813C21.5341 112.663 21.8013 113.604 21.8561 114.569C21.911 115.534 21.7521 116.499 21.3908 117.396C21.0295 118.292 20.4746 119.098 19.7659 119.756C19.0573 120.413 18.2122 120.906 17.2911 121.199C16.0552 121.597 14.9641 122.35 14.1541 123.365C13.3441 124.379 12.8513 125.61 12.7373 126.904C12.6233 128.197 12.8932 129.495 13.5131 130.636C14.1331 131.777 15.0756 132.709 16.2228 133.317C15.7351 132.471 15.4446 131.525 15.3729 130.551C15.3012 129.576 15.4501 128.599 15.8085 127.69C16.167 126.781 16.7258 125.965 17.4433 125.302C18.1608 124.639 19.0186 124.146 19.9528 123.861C21.1988 123.478 22.3031 122.734 23.1259 121.723C23.9487 120.712 24.453 119.48 24.5749 118.182C24.6968 116.885 24.4308 115.58 23.8106 114.434C23.1904 113.287 22.244 112.351 21.0911 111.743L21.0736 111.813ZM14.5242 107.785C14.006 106.808 13.7415 105.716 13.7552 104.61C13.7688 103.504 14.06 102.419 14.6022 101.455C15.1444 100.491 15.9201 99.679 16.858 99.0928C17.796 98.5067 18.8662 98.1657 19.9704 98.101C21.3763 98.0015 22.713 97.4524 23.7828 96.5347C24.8526 95.617 25.5987 94.3794 25.9109 93.005C26.2231 91.6305 26.0848 90.1921 25.5165 88.9023C24.9481 87.6125 23.9798 86.5398 22.7547 85.8427C23.2611 86.818 23.5161 87.9042 23.4965 89.003C23.4769 90.1017 23.1833 91.1782 22.6424 92.1348C22.1015 93.0913 21.3304 93.8977 20.399 94.4809C19.4676 95.064 18.4053 95.4055 17.3086 95.4742C15.9162 95.5937 14.5979 96.1531 13.5445 97.0715C12.4911 97.9899 11.7573 99.2197 11.4491 100.583C11.141 101.946 11.2746 103.372 11.8306 104.654C12.3865 105.936 13.336 107.008 14.5417 107.715L14.5242 107.785ZM53.7505 181.334C54.2938 182.293 54.5794 183.376 54.5794 184.478C54.5794 185.579 54.2938 186.662 53.7505 187.621C53.3289 188.367 53.0605 189.19 52.961 190.042C52.8615 190.893 52.9329 191.756 53.171 192.58C53.4091 193.403 53.8091 194.171 54.3476 194.838C54.8861 195.505 55.5523 196.058 56.3072 196.464C55.7702 195.504 55.4956 194.419 55.511 193.318C55.5263 192.218 55.8311 191.141 56.3947 190.195C56.8344 189.435 57.1156 188.594 57.2212 187.723C57.3268 186.851 57.2547 185.967 57.0092 185.124C56.7637 184.282 56.3499 183.497 55.7928 182.819C55.2358 182.14 54.5469 181.582 53.768 181.177L53.7505 181.334ZM112.748 5.76157C112.622 6.82397 112.241 7.84003 111.636 8.72228C111.031 9.60454 110.22 10.3266 109.275 10.8262C108.329 11.3259 107.276 11.5882 106.206 11.5906C105.136 11.593 104.082 11.3354 103.134 10.84C103.805 12.0511 104.843 13.0188 106.097 13.6049C107.352 14.191 108.76 14.3653 110.12 14.1031C111.48 13.8408 112.722 13.1554 113.669 12.1447C114.616 11.134 115.219 9.84992 115.392 8.47589C115.516 7.40821 115.9 6.38727 116.511 5.5027C117.121 4.61812 117.939 3.89695 118.894 3.40248C119.848 2.908 120.909 2.65535 121.984 2.66669C123.059 2.67804 124.115 2.95303 125.058 3.46754C124.386 2.25696 123.35 1.28835 122.098 0.698747C120.845 0.109142 119.438 -0.0716159 118.077 0.18204C116.716 0.435697 115.469 1.11092 114.512 2.11221C113.556 3.1135 112.939 4.39015 112.748 5.76157ZM37.0443 160.986C37.7447 162.197 38.0297 163.603 37.8558 164.991C37.6819 166.379 37.0587 167.673 36.0812 168.673C35.3811 169.409 34.8622 170.298 34.5658 171.269C34.2694 172.241 34.2036 173.268 34.3736 174.269C34.5436 175.27 34.9447 176.218 35.5452 177.037C36.1456 177.856 36.9287 178.524 37.8323 178.988C37.1244 177.783 36.8382 176.376 37.019 174.99C37.1997 173.604 37.8371 172.318 38.8305 171.335C39.5258 170.592 40.0395 169.698 40.3312 168.723C40.6228 167.748 40.6845 166.719 40.5115 165.716C40.3384 164.713 39.9353 163.764 39.3337 162.943C38.7321 162.123 37.9485 161.453 37.0443 160.986ZM221.793 73.6896C221.153 72.4455 220.117 71.4491 218.85 70.8564C217.582 70.2638 216.154 70.1085 214.788 70.4149C213.327 70.7245 211.803 70.5139 210.481 69.8195C211.132 71.0535 212.169 72.0411 213.433 72.6321C214.698 73.2232 216.12 73.3854 217.485 73.0942C218.947 72.7948 220.467 73.0049 221.793 73.6896ZM215.261 146.398C215.724 147.218 216.364 147.924 217.135 148.465C216.667 147.648 216.028 146.943 215.261 146.398ZM202.355 47.8598C201.432 48.3199 200.41 48.5476 199.378 48.5232C198.347 48.4988 197.337 48.223 196.436 47.7197C197.225 49.2122 198.563 50.3392 200.168 50.8622C201.773 51.3851 203.518 51.263 205.034 50.5216C205.94 50.049 206.946 49.8021 207.968 49.8021C208.989 49.8021 209.995 50.049 210.901 50.5216C210.105 49.0508 208.766 47.9491 207.17 47.4518C205.573 46.9545 203.845 47.1009 202.355 47.8598ZM223.877 98.0309C224.823 98.0851 225.747 98.3356 226.591 98.7664C226.083 97.7698 225.315 96.9284 224.369 96.3307C223.423 95.7329 222.334 95.4008 221.215 95.3691C220.26 95.3096 219.329 95.0469 218.483 94.5986C218.988 95.6104 219.755 96.4687 220.703 97.0845C221.651 97.7003 222.747 98.0513 223.877 98.101V98.0309ZM221.233 121.164C220.844 121.046 220.468 120.887 220.112 120.691C220.503 121.438 221.039 122.1 221.688 122.639C222.338 123.177 223.088 123.58 223.895 123.826C224.306 123.96 224.704 124.13 225.085 124.334C224.689 123.573 224.144 122.901 223.482 122.356C222.82 121.812 222.055 121.406 221.233 121.164ZM138.455 7.33763C138.115 8.2106 137.593 9.00064 136.922 9.65444C136.252 10.3082 135.448 10.8106 134.567 11.1276C133.686 11.4446 132.747 11.5689 131.813 11.4921C130.88 11.4153 129.974 11.1392 129.156 10.6824C129.75 11.793 130.649 12.7106 131.747 13.3269C132.845 13.9432 134.097 14.2325 135.354 14.1607C136.612 14.089 137.822 13.659 138.843 12.9217C139.864 12.1844 140.653 11.1704 141.117 9.99941C141.448 9.11442 141.97 8.31276 142.645 7.65067C143.319 6.98859 144.13 6.4821 145.021 6.16674C145.912 5.85137 146.862 5.73477 147.802 5.82511C148.743 5.91545 149.653 6.21055 150.468 6.68969C149.878 5.56891 148.979 4.64087 147.877 4.01571C146.776 3.39055 145.518 3.09451 144.254 3.16272C142.989 3.23094 141.77 3.66054 140.742 4.40054C139.715 5.14055 138.921 6.1599 138.455 7.33763ZM184.721 29.0522C183.718 29.9222 182.468 30.4573 181.147 30.5829C179.825 30.7084 178.497 30.4182 177.348 29.7526C177.793 30.6308 178.429 31.3977 179.211 31.9967C179.992 32.5957 180.897 33.0115 181.861 33.2132C182.824 33.415 183.821 33.3976 184.776 33.1623C185.732 32.9271 186.623 32.48 187.383 31.8541C188.375 30.971 189.623 30.4271 190.945 30.3011C192.268 30.1752 193.596 30.4737 194.737 31.1536C194.296 30.2737 193.662 29.5051 192.881 28.9057C192.1 28.3063 191.194 27.8916 190.23 27.6927C189.266 27.4939 188.269 27.516 187.315 27.7575C186.361 27.9991 185.474 28.4537 184.721 29.0872V29.0522ZM153.62 208.723C153.016 207.587 152.09 206.655 150.958 206.043C151.569 207.209 152.514 208.166 153.672 208.793L153.62 208.723ZM128.315 213.521C128.103 212.626 127.701 211.788 127.136 211.063C126.57 210.338 125.856 209.743 125.041 209.318C125.3 209.808 125.506 210.325 125.654 210.859C125.857 211.759 126.256 212.604 126.822 213.333C127.388 214.062 128.107 214.659 128.928 215.079C128.661 214.587 128.456 214.063 128.315 213.521ZM162.954 15.3055C162.028 16.6214 160.645 17.5458 159.075 17.8986C157.505 18.2514 155.86 18.0075 154.46 17.2142C154.99 18.199 155.761 19.0335 156.701 19.6398C157.641 20.2461 158.719 20.6045 159.834 20.6814C160.95 20.7583 162.067 20.5514 163.081 20.0798C164.095 19.6083 164.973 18.8875 165.633 17.9848C166.54 16.6454 167.925 15.7035 169.504 15.3519C171.083 15.0003 172.736 15.2656 174.126 16.0935C173.605 15.1 172.838 14.2563 171.899 13.6424C170.959 13.0285 169.879 12.6649 168.759 12.5859C167.64 12.507 166.519 12.7154 165.503 13.1913C164.487 13.6673 163.609 14.395 162.954 15.3055Z" fill="#F2EFEF"/>
<path d="M223.895 123.791C222.501 123.345 221.295 122.447 220.47 121.239C219.645 120.03 219.246 118.58 219.339 117.12C219.432 115.659 220.009 114.271 220.981 113.176C221.952 112.082 223.261 111.343 224.701 111.077C226.282 110.782 227.701 109.919 228.689 108.65C229.677 107.382 230.167 105.795 230.066 104.19C229.965 102.584 229.279 101.072 228.139 99.9371C226.999 98.8025 225.483 98.1245 223.878 98.0309C222.414 97.9491 221.02 97.3799 219.917 96.4141C218.815 95.4483 218.067 94.1413 217.793 92.7013C217.519 91.2613 217.735 89.771 218.406 88.4678C219.077 87.1646 220.165 86.1234 221.496 85.51C222.935 84.8211 224.075 83.6333 224.704 82.1673C225.333 80.7013 225.408 79.0568 224.916 77.5395C224.423 76.0221 223.397 74.735 222.027 73.9174C220.658 73.0998 219.038 72.8073 217.468 73.0942C216.048 73.3451 214.585 73.123 213.304 72.4618C212.022 71.8007 210.993 70.7371 210.374 69.4344C209.756 68.1317 209.582 66.662 209.88 65.251C210.178 63.84 210.93 62.5658 212.022 61.624C213.261 60.6027 214.084 59.1639 214.337 57.5782C214.589 55.9926 214.254 54.3693 213.393 53.0138C212.532 51.6583 211.206 50.664 209.664 50.2179C208.121 49.7718 206.469 49.9047 205.018 50.5916C203.695 51.2276 202.199 51.4025 200.765 51.0885C199.332 50.7745 198.046 49.9897 197.111 48.8591C196.175 47.7286 195.646 46.3175 195.606 44.851C195.567 43.3844 196.019 41.9468 196.892 40.7675C197.825 39.4695 198.255 37.8762 198.1 36.2851C197.945 34.6939 197.216 33.2134 196.05 32.12C194.883 31.0265 193.359 30.3948 191.761 30.3427C190.163 30.2905 188.601 30.8215 187.366 31.8365C186.232 32.7394 184.831 33.2427 183.382 33.2683C181.932 33.294 180.515 32.8406 179.349 31.9785C178.184 31.1164 177.335 29.8937 176.936 28.5002C176.536 27.1067 176.607 25.6202 177.139 24.2714C177.751 22.7792 177.792 21.1138 177.255 19.593C176.718 18.0721 175.64 16.8021 174.227 16.025C172.813 15.248 171.163 15.0183 169.592 15.3797C168.02 15.7411 166.636 16.6684 165.704 17.9847C164.847 19.1738 163.619 20.0432 162.213 20.4554C160.806 20.8675 159.303 20.7988 157.94 20.2602C156.578 19.7215 155.433 18.7437 154.689 17.4815C153.945 16.2192 153.643 14.7448 153.831 13.2916C154.024 11.7058 153.634 10.1038 152.734 8.78416C151.834 7.46448 150.484 6.51712 148.937 6.11858C147.39 5.72005 145.751 5.89753 144.325 6.61795C142.9 7.33838 141.784 8.55261 141.187 10.0344C140.646 11.3876 139.672 12.5232 138.417 13.2632C137.161 14.0031 135.696 14.3057 134.25 14.1235C132.804 13.9412 131.459 13.2845 130.427 12.2561C129.394 11.2278 128.732 9.88594 128.544 8.44084C128.342 6.8511 127.567 5.3896 126.364 4.33028C125.162 3.27096 123.614 2.68652 122.012 2.68652C120.409 2.68652 118.862 3.27096 117.659 4.33028C116.457 5.3896 115.682 6.8511 115.48 8.44084C115.292 9.88594 114.63 11.2278 113.597 12.2561C112.565 13.2845 111.22 13.9412 109.774 14.1235C108.328 14.3057 106.863 14.0031 105.607 13.2632C104.352 12.5232 103.377 11.3876 102.837 10.0344C102.251 8.53551 101.137 7.30289 99.7049 6.56936C98.2726 5.83583 96.6213 5.65219 95.0629 6.05311C93.5045 6.45403 92.1468 7.41177 91.2464 8.74541C90.3459 10.079 89.965 11.6963 90.1756 13.2916C90.3565 14.74 90.0509 16.2075 89.3069 17.4634C88.5629 18.7193 87.4227 19.6924 86.0655 20.2296C84.7082 20.7669 83.211 20.838 81.809 20.4316C80.407 20.0252 79.1797 19.1645 78.3202 17.9847C77.4318 16.5655 76.0348 15.5392 74.4148 15.1157C72.7949 14.6922 71.0744 14.9035 69.605 15.7064C68.1357 16.5093 67.0286 17.8431 66.51 19.4351C65.9914 21.0272 66.1004 22.7572 66.815 24.2714C67.3867 25.6341 67.4833 27.1496 67.0894 28.5739C66.6955 29.9982 65.8339 31.2486 64.6433 32.1239C63.4526 32.9992 62.0021 33.4485 60.5252 33.3995C59.0482 33.3506 57.6306 32.8062 56.5005 31.854C55.2654 30.839 53.7031 30.308 52.1052 30.3602C50.5073 30.4123 48.983 31.0441 47.8167 32.1375C46.6504 33.2309 45.9217 34.7114 45.7667 36.3026C45.6116 37.8937 46.0409 39.487 46.9742 40.785C47.8187 41.9703 48.2455 43.4025 48.1876 44.8567C48.1298 46.311 47.5904 47.7047 46.6544 48.8192C45.7184 49.9336 44.4387 50.7055 43.0163 51.0136C41.5939 51.3218 40.1095 51.1487 38.7962 50.5215C37.3449 49.8347 35.6926 49.7018 34.1502 50.1479C32.6078 50.5939 31.2815 51.5883 30.4208 52.9438C29.5602 54.2993 29.2245 55.9225 29.4769 57.5082C29.7294 59.0939 30.5525 60.5327 31.7915 61.5539C32.9165 62.4855 33.6999 63.7646 34.0183 65.1901C34.3368 66.6157 34.1722 68.1066 33.5504 69.4283C32.9287 70.75 31.8851 71.8275 30.5839 72.4911C29.2827 73.1548 27.7978 73.3669 26.3628 73.0942C24.7936 72.8073 23.1737 73.0998 21.8039 73.9174C20.4341 74.735 19.4078 76.0221 18.9155 77.5395C18.4233 79.0568 18.4987 80.7013 19.1277 82.1673C19.7566 83.6333 20.8964 84.8211 22.3352 85.51C23.6536 86.1349 24.7272 87.18 25.3872 88.4812C26.0473 89.7824 26.2565 91.266 25.9819 92.699C25.7073 94.132 24.9646 95.4332 23.8703 96.3983C22.776 97.3633 21.3921 97.9376 19.9361 98.0309C18.3314 98.1277 16.8175 98.8082 15.6799 99.9442C14.5424 101.08 13.8596 102.593 13.7606 104.198C13.6615 105.802 14.1529 107.388 15.1421 108.655C16.1313 109.922 17.5499 110.784 19.1305 111.077C20.5689 111.345 21.8767 112.086 22.8461 113.182C23.8156 114.278 24.3912 115.666 24.4818 117.127C24.5723 118.587 24.1724 120.036 23.3457 121.243C22.5191 122.45 21.3129 123.347 19.9185 123.791C18.3907 124.284 17.0959 125.319 16.2776 126.7C15.4593 128.082 15.1739 129.714 15.4751 131.291C15.7763 132.869 16.6434 134.281 17.9132 135.264C19.183 136.246 20.768 136.731 22.3702 136.627C23.8315 136.525 25.2849 136.914 26.4993 137.733C27.7138 138.552 28.6195 139.754 29.0724 141.147C29.5254 142.54 29.4996 144.045 28.9991 145.421C28.4986 146.798 27.5521 147.968 26.3103 148.745C24.9553 149.604 23.9605 150.928 23.5129 152.469C23.0652 154.01 23.1955 155.661 23.8793 157.112C24.5631 158.563 25.7533 159.715 27.2263 160.351C28.6993 160.987 30.3538 161.063 31.879 160.565C33.2685 160.115 34.768 160.14 36.1417 160.636C37.5155 161.132 38.6854 162.07 39.4675 163.303C40.2496 164.537 40.5996 165.995 40.4622 167.449C40.3248 168.903 39.7079 170.27 38.7086 171.335C37.6153 172.504 36.9851 174.031 36.9358 175.63C36.8865 177.23 37.4214 178.793 38.4407 180.027C39.46 181.261 40.8937 182.081 42.4739 182.334C44.0541 182.588 45.6726 182.257 47.0267 181.404C48.2624 180.613 49.727 180.257 51.1879 180.394C52.6488 180.53 54.0224 181.15 55.0906 182.156C56.1588 183.162 56.8604 184.496 57.0842 185.946C57.3079 187.396 57.0408 188.879 56.3254 190.16C55.576 191.557 55.357 193.177 55.7088 194.723C56.0607 196.268 56.9597 197.635 58.2399 198.569C59.5202 199.504 61.0953 199.944 62.6745 199.808C64.2538 199.672 65.7306 198.97 66.8325 197.83C67.8334 196.767 69.1593 196.067 70.6016 195.84C72.0439 195.613 73.5208 195.871 74.8 196.575C76.0793 197.279 77.0884 198.388 77.6685 199.728C78.2487 201.068 78.3671 202.562 78.005 203.977C77.5973 205.533 77.7733 207.184 78.4999 208.62C79.2264 210.055 80.4533 211.174 81.9488 211.767C83.4443 212.36 85.1049 212.384 86.6174 211.836C88.1298 211.288 89.3893 210.206 90.1581 208.793C90.8544 207.502 91.9624 206.482 93.3056 205.895C94.6489 205.307 96.1501 205.186 97.5702 205.551C98.9902 205.915 100.247 206.745 101.142 207.907C102.036 209.068 102.515 210.496 102.504 211.962C102.509 213.563 103.097 215.106 104.158 216.305C105.218 217.503 106.679 218.274 108.267 218.474C109.855 218.673 111.461 218.288 112.786 217.389C114.11 216.49 115.062 215.14 115.463 213.591C115.828 212.178 116.653 210.927 117.806 210.034C118.96 209.141 120.378 208.657 121.837 208.657C123.296 208.657 124.714 209.141 125.867 210.034C127.021 210.927 127.845 212.178 128.211 213.591C128.612 215.14 129.564 216.49 130.888 217.389C132.212 218.288 133.819 218.673 135.406 218.474C136.994 218.274 138.455 217.503 139.516 216.305C140.577 215.106 141.165 213.563 141.17 211.962C141.158 210.496 141.638 209.068 142.532 207.907C143.426 206.745 144.683 205.915 146.104 205.551C147.524 205.186 149.025 205.307 150.368 205.895C151.711 206.482 152.819 207.502 153.516 208.793C154.294 210.188 155.552 211.253 157.057 211.789C158.562 212.325 160.21 212.295 161.695 211.706C163.18 211.117 164.4 210.008 165.128 208.586C165.856 207.164 166.042 205.526 165.651 203.977C165.282 202.559 165.397 201.058 165.977 199.712C166.557 198.366 167.569 197.253 168.853 196.547C170.138 195.842 171.621 195.585 173.068 195.817C174.514 196.05 175.842 196.758 176.841 197.83C177.943 198.97 179.42 199.672 180.999 199.808C182.578 199.944 184.153 199.504 185.434 198.569C186.714 197.635 187.613 196.268 187.965 194.723C188.317 193.177 188.098 191.557 187.348 190.16C186.615 188.88 186.334 187.39 186.551 185.93C186.768 184.471 187.47 183.127 188.545 182.115C189.619 181.104 191.003 180.483 192.473 180.354C193.942 180.225 195.413 180.595 196.647 181.404C198.001 182.257 199.62 182.588 201.2 182.334C202.78 182.081 204.214 181.261 205.233 180.027C206.252 178.793 206.787 177.23 206.738 175.63C206.689 174.031 206.058 172.504 204.965 171.335C203.966 170.27 203.349 168.903 203.212 167.449C203.074 165.995 203.424 164.537 204.206 163.303C204.988 162.07 206.158 161.132 207.532 160.636C208.906 160.14 210.405 160.115 211.795 160.565C213.32 161.063 214.974 160.987 216.447 160.351C217.92 159.715 219.111 158.563 219.794 157.112C220.478 155.661 220.608 154.01 220.161 152.469C219.713 150.928 218.718 149.604 217.363 148.745C216.122 147.968 215.175 146.798 214.675 145.421C214.174 144.045 214.148 142.54 214.601 141.147C215.054 139.754 215.96 138.552 217.174 137.733C218.389 136.914 219.842 136.525 221.303 136.627C222.922 136.778 224.54 136.326 225.845 135.356C227.15 134.386 228.05 132.968 228.372 131.374C228.693 129.78 228.414 128.124 227.588 126.724C226.761 125.324 225.446 124.279 223.895 123.791ZM122.327 195.939C105.265 195.929 88.5885 190.86 74.4067 181.373C60.2249 171.886 49.1743 158.407 42.652 142.64C36.1297 126.874 34.4286 109.527 37.7636 92.794C41.0987 76.0607 49.3203 60.692 61.3889 48.6307C73.4575 36.5694 88.8313 28.3573 105.567 25.0324C122.302 21.7075 139.647 23.4192 155.41 29.9511C171.172 36.483 184.645 47.5418 194.123 61.7293C203.601 75.9169 208.66 92.5963 208.66 109.659C208.66 132.542 199.57 154.487 183.389 170.668C167.208 186.849 145.263 195.939 122.38 195.939H122.327Z" fill="#F2EFEF"/>
<path d="M121.941 21.3467C104.277 21.3467 87.0097 26.5846 72.3228 36.3981C57.6359 46.2116 46.1889 60.1599 39.4292 76.4791C32.6696 92.7984 30.9009 110.756 34.347 128.08C37.793 145.404 46.2989 161.318 58.7891 173.808C71.2793 186.298 87.1928 194.804 104.517 198.25C121.842 201.696 139.799 199.928 156.118 193.168C172.437 186.408 186.386 174.961 196.199 160.274C206.013 145.587 211.251 128.32 211.251 110.657C211.251 86.9701 201.841 64.2538 185.092 47.5049C168.343 30.7561 145.627 21.3467 121.941 21.3467ZM121.941 195.588C105.129 195.592 88.6947 190.609 74.7157 181.271C60.7366 171.932 49.8412 158.658 43.4078 143.126C36.9744 127.594 35.292 110.504 38.5734 94.0158C41.8549 77.5278 49.9527 62.3835 61.8425 50.4985C73.7324 38.6136 88.8801 30.522 105.369 27.2474C121.859 23.9727 138.949 25.6622 154.478 32.102C170.007 38.5418 183.277 49.4427 192.61 63.4256C201.942 77.4085 206.918 93.8452 206.908 110.657C206.894 133.182 197.936 154.78 182.003 170.703C166.07 186.626 144.466 195.571 121.941 195.571V195.588Z" fill="#F2EFEF"/>
<path d="M220.182 223.695L242.947 191.666L0.91777 191.648L23.683 223.677L0.865234 255.619L243 255.636L220.182 223.695Z" fill="#F2EFEF"/>
</g>
<path d="M57.4285 96V80.754H67.2185V83.108H60.2005V86.87H66.4485V89.18H60.2005V93.646H67.7465V96H57.4285ZM74.495 88.256L76.937 84.494H79.731L75.947 89.928C76.739 90.9547 77.4944 91.996 78.213 93.052C78.9464 94.0933 79.5477 95.076 80.017 96H77.135C77.003 95.7213 76.827 95.406 76.607 95.054C76.4017 94.6873 76.1744 94.3133 75.925 93.932C75.6904 93.536 75.441 93.1473 75.177 92.766C74.913 92.3847 74.6564 92.0253 74.407 91.688C73.8937 92.348 73.3877 93.0813 72.889 93.888C72.405 94.68 72.0017 95.384 71.679 96H68.951C69.171 95.56 69.435 95.0907 69.743 94.592C70.051 94.0933 70.381 93.5873 70.733 93.074C71.085 92.546 71.4444 92.0253 71.811 91.512C72.1924 90.984 72.5664 90.4853 72.933 90.016L69.127 84.494H72.053L74.495 88.256ZM80.9789 90.258C80.9789 89.4073 81.1109 88.6153 81.3749 87.882C81.6389 87.134 82.0129 86.4887 82.4969 85.946C82.9955 85.4033 83.5969 84.978 84.3009 84.67C85.0049 84.362 85.7969 84.208 86.6769 84.208C87.7622 84.208 88.7889 84.406 89.7569 84.802L89.1849 86.98C88.8769 86.848 88.5249 86.738 88.1289 86.65C87.7475 86.562 87.3369 86.518 86.8969 86.518C85.8555 86.518 85.0635 86.848 84.5209 87.508C83.9782 88.1533 83.7069 89.07 83.7069 90.258C83.7069 91.402 83.9635 92.3113 84.4769 92.986C84.9902 93.646 85.8555 93.976 87.0729 93.976C87.5275 93.976 87.9749 93.932 88.4149 93.844C88.8549 93.756 89.2362 93.646 89.5589 93.514L89.9329 95.714C89.6395 95.8607 89.1922 95.9927 88.5909 96.11C88.0042 96.2273 87.3955 96.286 86.7649 96.286C85.7822 96.286 84.9242 96.1393 84.1909 95.846C83.4722 95.538 82.8709 95.12 82.3869 94.592C81.9175 94.0493 81.5655 93.4113 81.3309 92.678C81.0962 91.93 80.9789 91.1233 80.9789 90.258ZM91.3558 90.302C91.3558 89.29 91.5025 88.4027 91.7958 87.64C92.1038 86.8773 92.5071 86.2467 93.0058 85.748C93.5045 85.2347 94.0765 84.8533 94.7218 84.604C95.3671 84.34 96.0271 84.208 96.7018 84.208C98.2858 84.208 99.5178 84.6993 100.398 85.682C101.292 86.6647 101.74 88.1313 101.74 90.082C101.74 90.2287 101.732 90.3973 101.718 90.588C101.718 90.764 101.71 90.9253 101.696 91.072H94.1058C94.1791 91.996 94.5018 92.7147 95.0738 93.228C95.6605 93.7267 96.5038 93.976 97.6038 93.976C98.2491 93.976 98.8358 93.9173 99.3638 93.8C99.9065 93.6827 100.332 93.558 100.64 93.426L100.992 95.604C100.845 95.6773 100.64 95.758 100.376 95.846C100.126 95.9193 99.8331 95.9853 99.4958 96.044C99.1731 96.1173 98.8211 96.176 98.4398 96.22C98.0585 96.264 97.6698 96.286 97.2738 96.286C96.2618 96.286 95.3818 96.1393 94.6338 95.846C93.8858 95.538 93.2698 95.12 92.7858 94.592C92.3018 94.0493 91.9425 93.4187 91.7078 92.7C91.4731 91.9667 91.3558 91.1673 91.3558 90.302ZM99.0778 89.114C99.0778 88.7473 99.0265 88.4027 98.9238 88.08C98.8211 87.7427 98.6671 87.4567 98.4618 87.222C98.2711 86.9727 98.0291 86.782 97.7358 86.65C97.4571 86.5033 97.1198 86.43 96.7238 86.43C96.3131 86.43 95.9538 86.5107 95.6458 86.672C95.3378 86.8187 95.0738 87.0167 94.8538 87.266C94.6485 87.5153 94.4871 87.8013 94.3698 88.124C94.2525 88.4467 94.1718 88.7767 94.1278 89.114H99.0778ZM108.566 96.22C107.774 96.2053 107.114 96.1173 106.586 95.956C106.073 95.7947 105.662 95.5673 105.354 95.274C105.046 94.966 104.826 94.592 104.694 94.152C104.577 93.6973 104.518 93.184 104.518 92.612V79.368L107.18 78.928V92.106C107.18 92.4287 107.202 92.7 107.246 92.92C107.305 93.14 107.4 93.3307 107.532 93.492C107.664 93.6387 107.84 93.756 108.06 93.844C108.295 93.9173 108.588 93.976 108.94 94.02L108.566 96.22ZM115.097 96.22C114.305 96.2053 113.645 96.1173 113.117 95.956C112.604 95.7947 112.193 95.5673 111.885 95.274C111.577 94.966 111.357 94.592 111.225 94.152C111.108 93.6973 111.049 93.184 111.049 92.612V79.368L113.711 78.928V92.106C113.711 92.4287 113.733 92.7 113.777 92.92C113.836 93.14 113.931 93.3307 114.063 93.492C114.195 93.6387 114.371 93.756 114.591 93.844C114.826 93.9173 115.119 93.976 115.471 94.02L115.097 96.22ZM116.987 90.302C116.987 89.29 117.133 88.4027 117.427 87.64C117.735 86.8773 118.138 86.2467 118.637 85.748C119.135 85.2347 119.707 84.8533 120.353 84.604C120.998 84.34 121.658 84.208 122.333 84.208C123.917 84.208 125.149 84.6993 126.029 85.682C126.923 86.6647 127.371 88.1313 127.371 90.082C127.371 90.2287 127.363 90.3973 127.349 90.588C127.349 90.764 127.341 90.9253 127.327 91.072H119.737C119.81 91.996 120.133 92.7147 120.705 93.228C121.291 93.7267 122.135 93.976 123.235 93.976C123.88 93.976 124.467 93.9173 124.995 93.8C125.537 93.6827 125.963 93.558 126.271 93.426L126.623 95.604C126.476 95.6773 126.271 95.758 126.007 95.846C125.757 95.9193 125.464 95.9853 125.127 96.044C124.804 96.1173 124.452 96.176 124.071 96.22C123.689 96.264 123.301 96.286 122.905 96.286C121.893 96.286 121.013 96.1393 120.265 95.846C119.517 95.538 118.901 95.12 118.417 94.592C117.933 94.0493 117.573 93.4187 117.339 92.7C117.104 91.9667 116.987 91.1673 116.987 90.302ZM124.709 89.114C124.709 88.7473 124.657 88.4027 124.555 88.08C124.452 87.7427 124.298 87.4567 124.093 87.222C123.902 86.9727 123.66 86.782 123.367 86.65C123.088 86.5033 122.751 86.43 122.355 86.43C121.944 86.43 121.585 86.5107 121.277 86.672C120.969 86.8187 120.705 87.0167 120.485 87.266C120.279 87.5153 120.118 87.8013 120.001 88.124C119.883 88.4467 119.803 88.7767 119.759 89.114H124.709ZM130.193 84.868C130.706 84.7213 131.374 84.582 132.195 84.45C133.016 84.318 133.926 84.252 134.923 84.252C135.862 84.252 136.646 84.384 137.277 84.648C137.908 84.8973 138.406 85.2567 138.773 85.726C139.154 86.1807 139.418 86.738 139.565 87.398C139.726 88.0433 139.807 88.7547 139.807 89.532V96H137.145V89.95C137.145 89.334 137.101 88.8133 137.013 88.388C136.94 87.948 136.808 87.596 136.617 87.332C136.441 87.0533 136.192 86.8553 135.869 86.738C135.561 86.606 135.18 86.54 134.725 86.54C134.388 86.54 134.036 86.562 133.669 86.606C133.302 86.65 133.031 86.6867 132.855 86.716V96H130.193V84.868ZM142.424 90.258C142.424 89.4073 142.556 88.6153 142.82 87.882C143.084 87.134 143.458 86.4887 143.942 85.946C144.441 85.4033 145.042 84.978 145.746 84.67C146.45 84.362 147.242 84.208 148.122 84.208C149.207 84.208 150.234 84.406 151.202 84.802L150.63 86.98C150.322 86.848 149.97 86.738 149.574 86.65C149.193 86.562 148.782 86.518 148.342 86.518C147.301 86.518 146.509 86.848 145.966 87.508C145.423 88.1533 145.152 89.07 145.152 90.258C145.152 91.402 145.409 92.3113 145.922 92.986C146.435 93.646 147.301 93.976 148.518 93.976C148.973 93.976 149.42 93.932 149.86 93.844C150.3 93.756 150.681 93.646 151.004 93.514L151.378 95.714C151.085 95.8607 150.637 95.9927 150.036 96.11C149.449 96.2273 148.841 96.286 148.21 96.286C147.227 96.286 146.369 96.1393 145.636 95.846C144.917 95.538 144.316 95.12 143.832 94.592C143.363 94.0493 143.011 93.4113 142.776 92.678C142.541 91.93 142.424 91.1233 142.424 90.258ZM152.801 90.302C152.801 89.29 152.948 88.4027 153.241 87.64C153.549 86.8773 153.952 86.2467 154.451 85.748C154.95 85.2347 155.522 84.8533 156.167 84.604C156.812 84.34 157.472 84.208 158.147 84.208C159.731 84.208 160.963 84.6993 161.843 85.682C162.738 86.6647 163.185 88.1313 163.185 90.082C163.185 90.2287 163.178 90.3973 163.163 90.588C163.163 90.764 163.156 90.9253 163.141 91.072H155.551C155.624 91.996 155.947 92.7147 156.519 93.228C157.106 93.7267 157.949 93.976 159.049 93.976C159.694 93.976 160.281 93.9173 160.809 93.8C161.352 93.6827 161.777 93.558 162.085 93.426L162.437 95.604C162.29 95.6773 162.085 95.758 161.821 95.846C161.572 95.9193 161.278 95.9853 160.941 96.044C160.618 96.1173 160.266 96.176 159.885 96.22C159.504 96.264 159.115 96.286 158.719 96.286C157.707 96.286 156.827 96.1393 156.079 95.846C155.331 95.538 154.715 95.12 154.231 94.592C153.747 94.0493 153.388 93.4187 153.153 92.7C152.918 91.9667 152.801 91.1673 152.801 90.302ZM160.523 89.114C160.523 88.7473 160.472 88.4027 160.369 88.08C160.266 87.7427 160.112 87.4567 159.907 87.222C159.716 86.9727 159.474 86.782 159.181 86.65C158.902 86.5033 158.565 86.43 158.169 86.43C157.758 86.43 157.399 86.5107 157.091 86.672C156.783 86.8187 156.519 87.0167 156.299 87.266C156.094 87.5153 155.932 87.8013 155.815 88.124C155.698 88.4467 155.617 88.7767 155.573 89.114H160.523ZM173.826 96H171.164V84.494H173.826V96ZM174.112 81.128C174.112 81.6267 173.951 82.0227 173.628 82.316C173.306 82.6093 172.924 82.756 172.484 82.756C172.03 82.756 171.641 82.6093 171.318 82.316C170.996 82.0227 170.834 81.6267 170.834 81.128C170.834 80.6147 170.996 80.2113 171.318 79.918C171.641 79.6247 172.03 79.478 172.484 79.478C172.924 79.478 173.306 79.6247 173.628 79.918C173.951 80.2113 174.112 80.6147 174.112 81.128ZM177.222 84.868C177.736 84.7213 178.403 84.582 179.224 84.45C180.046 84.318 180.955 84.252 181.952 84.252C182.891 84.252 183.676 84.384 184.306 84.648C184.937 84.8973 185.436 85.2567 185.802 85.726C186.184 86.1807 186.448 86.738 186.594 87.398C186.756 88.0433 186.836 88.7547 186.836 89.532V96H184.174V89.95C184.174 89.334 184.13 88.8133 184.042 88.388C183.969 87.948 183.837 87.596 183.646 87.332C183.47 87.0533 183.221 86.8553 182.898 86.738C182.59 86.606 182.209 86.54 181.754 86.54C181.417 86.54 181.065 86.562 180.698 86.606C180.332 86.65 180.06 86.6867 179.884 86.716V96H177.222V84.868ZM77.9998 123.086C78.7038 123.086 79.2172 123.005 79.5398 122.844C79.8625 122.668 80.0238 122.375 80.0238 121.964C80.0238 121.583 79.8478 121.267 79.4958 121.018C79.1585 120.769 78.5938 120.497 77.8018 120.204C77.3178 120.028 76.8705 119.845 76.4598 119.654C76.0638 119.449 75.7192 119.214 75.4258 118.95C75.1325 118.686 74.8978 118.371 74.7218 118.004C74.5605 117.623 74.4798 117.161 74.4798 116.618C74.4798 115.562 74.8685 114.733 75.6458 114.132C76.4232 113.516 77.4792 113.208 78.8138 113.208C79.4885 113.208 80.1338 113.274 80.7498 113.406C81.3658 113.523 81.8278 113.641 82.1358 113.758L81.6518 115.914C81.3585 115.782 80.9845 115.665 80.5298 115.562C80.0752 115.445 79.5472 115.386 78.9458 115.386C78.4032 115.386 77.9632 115.481 77.6258 115.672C77.2885 115.848 77.1198 116.127 77.1198 116.508C77.1198 116.699 77.1492 116.867 77.2078 117.014C77.2812 117.161 77.3985 117.3 77.5598 117.432C77.7212 117.549 77.9338 117.674 78.1978 117.806C78.4618 117.923 78.7845 118.048 79.1658 118.18C79.7965 118.415 80.3318 118.649 80.7718 118.884C81.2118 119.104 81.5712 119.361 81.8498 119.654C82.1432 119.933 82.3558 120.255 82.4878 120.622C82.6198 120.989 82.6858 121.429 82.6858 121.942C82.6858 123.042 82.2752 123.878 81.4538 124.45C80.6472 125.007 79.4885 125.286 77.9778 125.286C76.9658 125.286 76.1518 125.198 75.5358 125.022C74.9198 124.861 74.4872 124.729 74.2378 124.626L74.6998 122.404C75.0958 122.565 75.5652 122.719 76.1078 122.866C76.6652 123.013 77.2958 123.086 77.9998 123.086ZM92.8065 119.302C92.8065 118.114 92.5352 117.19 91.9925 116.53C91.4645 115.87 90.6065 115.54 89.4185 115.54C89.1692 115.54 88.9052 115.555 88.6265 115.584C88.3625 115.599 88.0985 115.643 87.8345 115.716V122.294C88.0692 122.455 88.3772 122.609 88.7585 122.756C89.1545 122.888 89.5725 122.954 90.0125 122.954C90.9805 122.954 91.6845 122.624 92.1245 121.964C92.5792 121.304 92.8065 120.417 92.8065 119.302ZM95.5345 119.258C95.5345 120.138 95.4172 120.945 95.1825 121.678C94.9625 122.411 94.6398 123.042 94.2145 123.57C93.7892 124.098 93.2538 124.509 92.6085 124.802C91.9778 125.095 91.2592 125.242 90.4525 125.242C89.9098 125.242 89.4112 125.176 88.9565 125.044C88.5018 124.912 88.1278 124.765 87.8345 124.604V129.07H85.1725V113.868C85.7152 113.721 86.3825 113.582 87.1745 113.45C87.9665 113.318 88.8025 113.252 89.6825 113.252C90.5918 113.252 91.4058 113.391 92.1245 113.67C92.8432 113.949 93.4518 114.352 93.9505 114.88C94.4638 115.393 94.8525 116.024 95.1165 116.772C95.3952 117.505 95.5345 118.334 95.5345 119.258ZM97.64 119.302C97.64 118.29 97.7867 117.403 98.08 116.64C98.388 115.877 98.7913 115.247 99.29 114.748C99.7887 114.235 100.361 113.853 101.006 113.604C101.651 113.34 102.311 113.208 102.986 113.208C104.57 113.208 105.802 113.699 106.682 114.682C107.577 115.665 108.024 117.131 108.024 119.082C108.024 119.229 108.017 119.397 108.002 119.588C108.002 119.764 107.995 119.925 107.98 120.072H100.39C100.463 120.996 100.786 121.715 101.358 122.228C101.945 122.727 102.788 122.976 103.888 122.976C104.533 122.976 105.12 122.917 105.648 122.8C106.191 122.683 106.616 122.558 106.924 122.426L107.276 124.604C107.129 124.677 106.924 124.758 106.66 124.846C106.411 124.919 106.117 124.985 105.78 125.044C105.457 125.117 105.105 125.176 104.724 125.22C104.343 125.264 103.954 125.286 103.558 125.286C102.546 125.286 101.666 125.139 100.918 124.846C100.17 124.538 99.554 124.12 99.07 123.592C98.586 123.049 98.2267 122.419 97.992 121.7C97.7573 120.967 97.64 120.167 97.64 119.302ZM105.362 118.114C105.362 117.747 105.311 117.403 105.208 117.08C105.105 116.743 104.951 116.457 104.746 116.222C104.555 115.973 104.313 115.782 104.02 115.65C103.741 115.503 103.404 115.43 103.008 115.43C102.597 115.43 102.238 115.511 101.93 115.672C101.622 115.819 101.358 116.017 101.138 116.266C100.933 116.515 100.771 116.801 100.654 117.124C100.537 117.447 100.456 117.777 100.412 118.114H105.362ZM110.208 119.258C110.208 118.407 110.34 117.615 110.604 116.882C110.868 116.134 111.242 115.489 111.726 114.946C112.225 114.403 112.826 113.978 113.53 113.67C114.234 113.362 115.026 113.208 115.906 113.208C116.992 113.208 118.018 113.406 118.986 113.802L118.414 115.98C118.106 115.848 117.754 115.738 117.358 115.65C116.977 115.562 116.566 115.518 116.126 115.518C115.085 115.518 114.293 115.848 113.75 116.508C113.208 117.153 112.936 118.07 112.936 119.258C112.936 120.402 113.193 121.311 113.706 121.986C114.22 122.646 115.085 122.976 116.302 122.976C116.757 122.976 117.204 122.932 117.644 122.844C118.084 122.756 118.466 122.646 118.788 122.514L119.162 124.714C118.869 124.861 118.422 124.993 117.82 125.11C117.234 125.227 116.625 125.286 115.994 125.286C115.012 125.286 114.154 125.139 113.42 124.846C112.702 124.538 112.1 124.12 111.616 123.592C111.147 123.049 110.795 122.411 110.56 121.678C110.326 120.93 110.208 120.123 110.208 119.258ZM123.907 125H121.245V113.494H123.907V125ZM124.193 110.128C124.193 110.627 124.032 111.023 123.709 111.316C123.387 111.609 123.005 111.756 122.565 111.756C122.111 111.756 121.722 111.609 121.399 111.316C121.077 111.023 120.915 110.627 120.915 110.128C120.915 109.615 121.077 109.211 121.399 108.918C121.722 108.625 122.111 108.478 122.565 108.478C123.005 108.478 123.387 108.625 123.709 108.918C124.032 109.211 124.193 109.615 124.193 110.128ZM131.351 123.13C132.173 123.13 132.796 123.086 133.221 122.998V120.05C133.075 120.006 132.862 119.962 132.583 119.918C132.305 119.874 131.997 119.852 131.659 119.852C131.366 119.852 131.065 119.874 130.757 119.918C130.464 119.962 130.193 120.043 129.943 120.16C129.709 120.277 129.518 120.446 129.371 120.666C129.225 120.871 129.151 121.135 129.151 121.458C129.151 122.089 129.349 122.529 129.745 122.778C130.141 123.013 130.677 123.13 131.351 123.13ZM131.131 113.208C132.011 113.208 132.752 113.318 133.353 113.538C133.955 113.758 134.431 114.066 134.783 114.462C135.15 114.858 135.407 115.342 135.553 115.914C135.715 116.471 135.795 117.087 135.795 117.762V124.736C135.385 124.824 134.761 124.927 133.925 125.044C133.104 125.176 132.173 125.242 131.131 125.242C130.442 125.242 129.811 125.176 129.239 125.044C128.667 124.912 128.176 124.699 127.765 124.406C127.369 124.113 127.054 123.731 126.819 123.262C126.599 122.793 126.489 122.213 126.489 121.524C126.489 120.864 126.614 120.307 126.863 119.852C127.127 119.397 127.479 119.031 127.919 118.752C128.359 118.459 128.865 118.253 129.437 118.136C130.024 118.004 130.633 117.938 131.263 117.938C131.557 117.938 131.865 117.96 132.187 118.004C132.51 118.033 132.855 118.092 133.221 118.18V117.74C133.221 117.432 133.185 117.139 133.111 116.86C133.038 116.581 132.906 116.339 132.715 116.134C132.539 115.914 132.297 115.745 131.989 115.628C131.696 115.511 131.322 115.452 130.867 115.452C130.251 115.452 129.687 115.496 129.173 115.584C128.66 115.672 128.242 115.775 127.919 115.892L127.589 113.736C127.927 113.619 128.418 113.501 129.063 113.384C129.709 113.267 130.398 113.208 131.131 113.208ZM143.059 125.22C142.267 125.205 141.607 125.117 141.079 124.956C140.566 124.795 140.155 124.567 139.847 124.274C139.539 123.966 139.319 123.592 139.187 123.152C139.07 122.697 139.011 122.184 139.011 121.612V108.368L141.673 107.928V121.106C141.673 121.429 141.695 121.7 141.739 121.92C141.798 122.14 141.893 122.331 142.025 122.492C142.157 122.639 142.333 122.756 142.553 122.844C142.788 122.917 143.081 122.976 143.433 123.02L143.059 125.22ZM148.271 125H145.609V113.494H148.271V125ZM148.557 110.128C148.557 110.627 148.395 111.023 148.073 111.316C147.75 111.609 147.369 111.756 146.929 111.756C146.474 111.756 146.085 111.609 145.763 111.316C145.44 111.023 145.279 110.627 145.279 110.128C145.279 109.615 145.44 109.211 145.763 108.918C146.085 108.625 146.474 108.478 146.929 108.478C147.369 108.478 147.75 108.625 148.073 108.918C148.395 109.211 148.557 109.615 148.557 110.128ZM151.535 110.458L154.197 110.018V113.494H158.289V115.716H154.197V120.402C154.197 121.326 154.343 121.986 154.637 122.382C154.93 122.778 155.429 122.976 156.133 122.976C156.617 122.976 157.042 122.925 157.409 122.822C157.79 122.719 158.091 122.624 158.311 122.536L158.751 124.648C158.443 124.78 158.039 124.912 157.541 125.044C157.042 125.191 156.455 125.264 155.781 125.264C154.959 125.264 154.27 125.154 153.713 124.934C153.17 124.714 152.737 124.399 152.415 123.988C152.092 123.563 151.865 123.057 151.733 122.47C151.601 121.869 151.535 121.187 151.535 120.424V110.458ZM170.256 113.494C169.068 117.865 167.689 121.825 166.12 125.374C165.827 126.034 165.526 126.599 165.218 127.068C164.91 127.537 164.565 127.926 164.184 128.234C163.803 128.542 163.377 128.762 162.908 128.894C162.439 129.041 161.896 129.114 161.28 129.114C160.869 129.114 160.459 129.07 160.048 128.982C159.652 128.894 159.351 128.799 159.146 128.696L159.63 126.562C160.158 126.767 160.679 126.87 161.192 126.87C161.881 126.87 162.417 126.701 162.798 126.364C163.194 126.041 163.539 125.535 163.832 124.846C162.996 123.233 162.189 121.473 161.412 119.566C160.649 117.659 159.967 115.635 159.366 113.494H162.204C162.351 114.11 162.527 114.777 162.732 115.496C162.952 116.215 163.187 116.948 163.436 117.696C163.685 118.429 163.949 119.163 164.228 119.896C164.507 120.629 164.785 121.311 165.064 121.942C165.533 120.637 165.973 119.251 166.384 117.784C166.795 116.303 167.169 114.873 167.506 113.494H170.256ZM101.271 148.258C101.271 147.407 101.403 146.615 101.667 145.882C101.931 145.134 102.305 144.489 102.789 143.946C103.288 143.403 103.889 142.978 104.593 142.67C105.297 142.362 106.089 142.208 106.969 142.208C108.054 142.208 109.081 142.406 110.049 142.802L109.477 144.98C109.169 144.848 108.817 144.738 108.421 144.65C108.04 144.562 107.629 144.518 107.189 144.518C106.148 144.518 105.356 144.848 104.813 145.508C104.27 146.153 103.999 147.07 103.999 148.258C103.999 149.402 104.256 150.311 104.769 150.986C105.282 151.646 106.148 151.976 107.365 151.976C107.82 151.976 108.267 151.932 108.707 151.844C109.147 151.756 109.528 151.646 109.851 151.514L110.225 153.714C109.932 153.861 109.484 153.993 108.883 154.11C108.296 154.227 107.688 154.286 107.057 154.286C106.074 154.286 105.216 154.139 104.483 153.846C103.764 153.538 103.163 153.12 102.679 152.592C102.21 152.049 101.858 151.411 101.623 150.678C101.388 149.93 101.271 149.123 101.271 148.258ZM116.334 152.13C117.155 152.13 117.778 152.086 118.204 151.998V149.05C118.057 149.006 117.844 148.962 117.566 148.918C117.287 148.874 116.979 148.852 116.642 148.852C116.348 148.852 116.048 148.874 115.74 148.918C115.446 148.962 115.175 149.043 114.926 149.16C114.691 149.277 114.5 149.446 114.354 149.666C114.207 149.871 114.134 150.135 114.134 150.458C114.134 151.089 114.332 151.529 114.728 151.778C115.124 152.013 115.659 152.13 116.334 152.13ZM116.114 142.208C116.994 142.208 117.734 142.318 118.336 142.538C118.937 142.758 119.414 143.066 119.766 143.462C120.132 143.858 120.389 144.342 120.536 144.914C120.697 145.471 120.778 146.087 120.778 146.762V153.736C120.367 153.824 119.744 153.927 118.908 154.044C118.086 154.176 117.155 154.242 116.114 154.242C115.424 154.242 114.794 154.176 114.222 154.044C113.65 153.912 113.158 153.699 112.748 153.406C112.352 153.113 112.036 152.731 111.802 152.262C111.582 151.793 111.472 151.213 111.472 150.524C111.472 149.864 111.596 149.307 111.846 148.852C112.11 148.397 112.462 148.031 112.902 147.752C113.342 147.459 113.848 147.253 114.42 147.136C115.006 147.004 115.615 146.938 116.246 146.938C116.539 146.938 116.847 146.96 117.17 147.004C117.492 147.033 117.837 147.092 118.204 147.18V146.74C118.204 146.432 118.167 146.139 118.094 145.86C118.02 145.581 117.888 145.339 117.698 145.134C117.522 144.914 117.28 144.745 116.972 144.628C116.678 144.511 116.304 144.452 115.85 144.452C115.234 144.452 114.669 144.496 114.156 144.584C113.642 144.672 113.224 144.775 112.902 144.892L112.572 142.736C112.909 142.619 113.4 142.501 114.046 142.384C114.691 142.267 115.38 142.208 116.114 142.208ZM130.594 144.892C130.374 144.819 130.066 144.745 129.67 144.672C129.288 144.584 128.841 144.54 128.328 144.54C128.034 144.54 127.719 144.569 127.382 144.628C127.059 144.687 126.832 144.738 126.7 144.782V154H124.038V143.044C124.551 142.853 125.189 142.677 125.952 142.516C126.729 142.34 127.587 142.252 128.526 142.252C128.702 142.252 128.907 142.267 129.142 142.296C129.376 142.311 129.611 142.34 129.846 142.384C130.08 142.413 130.308 142.457 130.528 142.516C130.748 142.56 130.924 142.604 131.056 142.648L130.594 144.892ZM132.273 148.302C132.273 147.29 132.419 146.403 132.713 145.64C133.021 144.877 133.424 144.247 133.923 143.748C134.421 143.235 134.993 142.853 135.639 142.604C136.284 142.34 136.944 142.208 137.619 142.208C139.203 142.208 140.435 142.699 141.315 143.682C142.209 144.665 142.657 146.131 142.657 148.082C142.657 148.229 142.649 148.397 142.635 148.588C142.635 148.764 142.627 148.925 142.613 149.072H135.023C135.096 149.996 135.419 150.715 135.991 151.228C136.577 151.727 137.421 151.976 138.521 151.976C139.166 151.976 139.753 151.917 140.281 151.8C140.823 151.683 141.249 151.558 141.557 151.426L141.909 153.604C141.762 153.677 141.557 153.758 141.293 153.846C141.043 153.919 140.75 153.985 140.413 154.044C140.09 154.117 139.738 154.176 139.357 154.22C138.975 154.264 138.587 154.286 138.191 154.286C137.179 154.286 136.299 154.139 135.551 153.846C134.803 153.538 134.187 153.12 133.703 152.592C133.219 152.049 132.859 151.419 132.625 150.7C132.39 149.967 132.273 149.167 132.273 148.302ZM139.995 147.114C139.995 146.747 139.943 146.403 139.841 146.08C139.738 145.743 139.584 145.457 139.379 145.222C139.188 144.973 138.946 144.782 138.653 144.65C138.374 144.503 138.037 144.43 137.641 144.43C137.23 144.43 136.871 144.511 136.563 144.672C136.255 144.819 135.991 145.017 135.771 145.266C135.565 145.515 135.404 145.801 135.287 146.124C135.169 146.447 135.089 146.777 135.045 147.114H139.995Z" fill="#1D5292"/>
<path d="M109.406 220.712C109.406 221.144 109.316 221.564 109.136 221.972C108.968 222.368 108.74 222.764 108.452 223.16C108.164 223.544 107.84 223.928 107.48 224.312C107.12 224.684 106.76 225.05 106.4 225.41C106.196 225.614 105.956 225.854 105.68 226.13C105.416 226.406 105.164 226.694 104.924 226.994C104.684 227.294 104.48 227.582 104.312 227.858C104.156 228.134 104.078 228.374 104.078 228.578H109.82V230H102.26C102.248 229.928 102.242 229.856 102.242 229.784C102.242 229.712 102.242 229.646 102.242 229.586C102.242 229.022 102.332 228.5 102.512 228.02C102.704 227.528 102.95 227.066 103.25 226.634C103.55 226.202 103.886 225.794 104.258 225.41C104.63 225.026 104.996 224.654 105.356 224.294C105.656 224.006 105.938 223.724 106.202 223.448C106.478 223.16 106.718 222.878 106.922 222.602C107.138 222.314 107.306 222.02 107.426 221.72C107.558 221.42 107.624 221.102 107.624 220.766C107.624 220.406 107.564 220.1 107.444 219.848C107.336 219.596 107.186 219.386 106.994 219.218C106.802 219.05 106.574 218.93 106.31 218.858C106.058 218.774 105.788 218.732 105.5 218.732C105.152 218.732 104.834 218.78 104.546 218.876C104.258 218.972 104 219.086 103.772 219.218C103.544 219.338 103.352 219.47 103.196 219.614C103.04 219.746 102.92 219.848 102.836 219.92L102.008 218.732C102.116 218.612 102.278 218.468 102.494 218.3C102.71 218.12 102.968 217.952 103.268 217.796C103.568 217.64 103.904 217.508 104.276 217.4C104.648 217.292 105.05 217.238 105.482 217.238C106.79 217.238 107.768 217.544 108.416 218.156C109.076 218.756 109.406 219.608 109.406 220.712ZM112.06 223.754C112.06 221.666 112.426 220.058 113.158 218.93C113.902 217.802 114.928 217.238 116.236 217.238C117.544 217.238 118.564 217.802 119.296 218.93C120.04 220.058 120.412 221.666 120.412 223.754C120.412 225.842 120.04 227.45 119.296 228.578C118.564 229.706 117.544 230.27 116.236 230.27C114.928 230.27 113.902 229.706 113.158 228.578C112.426 227.45 112.06 225.842 112.06 223.754ZM118.648 223.754C118.648 223.07 118.606 222.422 118.522 221.81C118.45 221.198 118.318 220.664 118.126 220.208C117.946 219.752 117.7 219.392 117.388 219.128C117.076 218.852 116.692 218.714 116.236 218.714C115.78 218.714 115.396 218.852 115.084 219.128C114.772 219.392 114.52 219.752 114.328 220.208C114.148 220.664 114.016 221.198 113.932 221.81C113.86 222.422 113.824 223.07 113.824 223.754C113.824 224.438 113.86 225.086 113.932 225.698C114.016 226.31 114.148 226.844 114.328 227.3C114.52 227.756 114.772 228.122 115.084 228.398C115.396 228.662 115.78 228.794 116.236 228.794C116.692 228.794 117.076 228.662 117.388 228.398C117.7 228.122 117.946 227.756 118.126 227.3C118.318 226.844 118.45 226.31 118.522 225.698C118.606 225.086 118.648 224.438 118.648 223.754ZM129.726 220.712C129.726 221.144 129.636 221.564 129.456 221.972C129.288 222.368 129.06 222.764 128.772 223.16C128.484 223.544 128.16 223.928 127.8 224.312C127.44 224.684 127.08 225.05 126.72 225.41C126.516 225.614 126.276 225.854 126 226.13C125.736 226.406 125.484 226.694 125.244 226.994C125.004 227.294 124.8 227.582 124.632 227.858C124.476 228.134 124.398 228.374 124.398 228.578H130.14V230H122.58C122.568 229.928 122.562 229.856 122.562 229.784C122.562 229.712 122.562 229.646 122.562 229.586C122.562 229.022 122.652 228.5 122.832 228.02C123.024 227.528 123.27 227.066 123.57 226.634C123.87 226.202 124.206 225.794 124.578 225.41C124.95 225.026 125.316 224.654 125.676 224.294C125.976 224.006 126.258 223.724 126.522 223.448C126.798 223.16 127.038 222.878 127.242 222.602C127.458 222.314 127.626 222.02 127.746 221.72C127.878 221.42 127.944 221.102 127.944 220.766C127.944 220.406 127.884 220.1 127.764 219.848C127.656 219.596 127.506 219.386 127.314 219.218C127.122 219.05 126.894 218.93 126.63 218.858C126.378 218.774 126.108 218.732 125.82 218.732C125.472 218.732 125.154 218.78 124.866 218.876C124.578 218.972 124.32 219.086 124.092 219.218C123.864 219.338 123.672 219.47 123.516 219.614C123.36 219.746 123.24 219.848 123.156 219.92L122.328 218.732C122.436 218.612 122.598 218.468 122.814 218.3C123.03 218.12 123.288 217.952 123.588 217.796C123.888 217.64 124.224 217.508 124.596 217.4C124.968 217.292 125.37 217.238 125.802 217.238C127.11 217.238 128.088 217.544 128.736 218.156C129.396 218.756 129.726 219.608 129.726 220.712ZM132.38 223.754C132.38 221.666 132.746 220.058 133.478 218.93C134.222 217.802 135.248 217.238 136.556 217.238C137.864 217.238 138.884 217.802 139.616 218.93C140.36 220.058 140.732 221.666 140.732 223.754C140.732 225.842 140.36 227.45 139.616 228.578C138.884 229.706 137.864 230.27 136.556 230.27C135.248 230.27 134.222 229.706 133.478 228.578C132.746 227.45 132.38 225.842 132.38 223.754ZM138.968 223.754C138.968 223.07 138.926 222.422 138.842 221.81C138.77 221.198 138.638 220.664 138.446 220.208C138.266 219.752 138.02 219.392 137.708 219.128C137.396 218.852 137.012 218.714 136.556 218.714C136.1 218.714 135.716 218.852 135.404 219.128C135.092 219.392 134.84 219.752 134.648 220.208C134.468 220.664 134.336 221.198 134.252 221.81C134.18 222.422 134.144 223.07 134.144 223.754C134.144 224.438 134.18 225.086 134.252 225.698C134.336 226.31 134.468 226.844 134.648 227.3C134.84 227.756 135.092 228.122 135.404 228.398C135.716 228.662 136.1 228.794 136.556 228.794C137.012 228.794 137.396 228.662 137.708 228.398C138.02 228.122 138.266 227.756 138.446 227.3C138.638 226.844 138.77 226.31 138.842 225.698C138.926 225.086 138.968 224.438 138.968 223.754Z" fill="#FF8761"/>
<defs>
<clipPath id="clip0_229_6108">
<rect width="242.135" height="255.636" fill="white" transform="translate(0.865234)"/>
</clipPath>
</defs>
</svg>
