<svg width="243" height="256" viewBox="0 0 243 256" fill="none" xmlns="http://www.w3.org/2000/svg">
<g clip-path="url(#clip0_229_7100)">
<path d="M77.8662 203.942C78.2631 202.524 78.1614 201.014 77.5781 199.662C76.9948 198.311 75.9652 197.2 74.6615 196.517C75.4413 197.978 75.6354 199.681 75.2043 201.28C74.7928 202.684 74.8823 204.187 75.4573 205.532C76.0324 206.877 77.0573 207.98 78.3565 208.653C77.5993 207.202 77.424 205.517 77.8662 203.942ZM75.3269 15.3055C74.3852 14.008 73.0025 13.0987 71.4381 12.7482C69.8737 12.3976 68.2352 12.6298 66.8298 13.4012C65.4245 14.1727 64.3489 15.4304 63.8047 16.9384C63.2606 18.4464 63.2853 20.1011 63.8743 21.5922C64.4095 22.95 64.4785 24.4472 64.0703 25.8484C63.6622 27.2497 62.8 28.4757 61.6193 29.3336C60.4386 30.1916 59.0062 30.6329 57.5474 30.5883C56.0886 30.5437 54.686 30.0157 53.5599 29.0872C52.3227 28.0754 50.7598 27.5481 49.1625 27.6036C47.5653 27.6591 46.0428 28.2937 44.8789 29.389C43.715 30.4843 42.9892 31.9655 42.8369 33.5565C42.6845 35.1474 43.1161 36.7394 44.051 38.0357C44.9116 39.2188 45.3537 40.6548 45.3075 42.1171C45.2613 43.5793 44.7293 44.9845 43.7957 46.1109C42.8621 47.2373 41.58 48.0206 40.1516 48.3373C38.7233 48.654 37.2302 48.486 35.908 47.8598C34.4567 47.1729 32.8044 47.04 31.262 47.4861C29.7196 47.9322 28.3933 48.9265 27.5327 50.282C26.6721 51.6375 26.3364 53.2608 26.5888 54.8465C26.8412 56.4321 27.6643 57.8709 28.9033 58.8922C30.0349 59.8196 30.8243 61.0983 31.1464 62.5254C31.4685 63.9526 31.3048 65.4464 30.6813 66.7699C30.0577 68.0935 29.0101 69.1709 27.7045 69.8312C26.399 70.4915 24.9103 70.6969 23.4747 70.4149C21.908 70.0417 20.2587 70.2574 18.8406 71.0208C17.4224 71.7842 16.3343 73.0421 15.783 74.5554C15.2317 76.0687 15.2558 77.7318 15.8506 79.2285C16.4455 80.7252 17.5696 81.9511 19.0092 82.6731C18.4452 81.5716 18.2021 80.3338 18.3077 79.1008C18.4133 77.8678 18.8632 76.6894 19.6063 75.6998C20.3494 74.7103 21.3556 73.9495 22.5103 73.5042C23.6649 73.059 24.9214 72.9473 26.1365 73.1817C27.5741 73.4561 29.0621 73.2437 30.3655 72.578C31.6689 71.9124 32.7134 70.8314 33.334 69.5059C33.9546 68.1805 34.1158 66.686 33.7923 65.2586C33.4688 63.8313 32.679 62.5524 31.5476 61.624C30.3086 60.6027 29.4855 59.1639 29.2331 57.5783C28.9806 55.9926 29.3163 54.3693 30.1769 53.0138C31.0376 51.6583 32.3639 50.664 33.9063 50.2179C35.4487 49.7719 37.101 49.9047 38.5523 50.5916C39.8744 51.2276 41.3714 51.4025 42.8045 51.0885C44.2376 50.7745 45.5243 49.9897 46.4593 48.8592C47.3944 47.7286 47.9239 46.3176 47.9635 44.851C48.0031 43.3844 47.5505 41.9468 46.6778 40.7675C45.7444 39.4695 45.3152 37.8763 45.4703 36.2851C45.6253 34.6939 46.354 33.2134 47.5203 32.12C48.6866 31.0266 50.2109 30.3948 51.8088 30.3427C53.4067 30.2905 54.9689 30.8215 56.2041 31.8365C57.3297 32.8125 58.753 33.3779 60.2414 33.4403C61.7298 33.5028 63.1955 33.0587 64.3989 32.1806C65.6023 31.3024 66.4723 30.0421 66.8669 28.6055C67.2614 27.169 67.1571 25.6411 66.5711 24.2715C66.0483 22.9914 65.9406 21.5796 66.2631 20.235C66.5857 18.8905 67.3223 17.6812 68.369 16.7777C69.4156 15.8742 70.7195 15.3221 72.0967 15.1994C73.4739 15.0766 74.855 15.3894 76.0449 16.0935C75.7881 15.8473 75.5482 15.584 75.3269 15.3055ZM87.1824 10.6123C87.3369 11.8443 87.1408 13.0949 86.6167 14.2205C86.0927 15.3461 85.2618 16.3011 84.2195 16.9758C83.1772 17.6506 81.9657 18.0177 80.7242 18.0351C79.4827 18.0525 78.2615 17.7194 77.2007 17.0742C77.4902 17.3534 77.7539 17.6582 77.9887 17.9848C78.8483 19.1646 80.0755 20.0253 81.4775 20.4316C82.8795 20.838 84.3768 20.7669 85.734 20.2297C87.0913 19.6924 88.2315 18.7193 88.9755 17.4635C89.7195 16.2076 90.0251 14.7401 89.8442 13.2916C89.6896 12.096 89.8645 10.8808 90.35 9.77731C90.8355 8.67379 91.6132 7.72382 92.599 7.02992C93.5849 6.33602 94.7416 5.92454 95.9442 5.83989C97.1468 5.75524 98.3497 6.00064 99.4231 6.5496C98.6716 5.22956 97.4858 4.21085 96.0675 3.66698C94.6493 3.12311 93.0863 3.08771 91.6449 3.5668C90.2035 4.0459 88.9727 5.00986 88.1622 6.29452C87.3517 7.57918 87.0117 9.10507 87.1999 10.6123H87.1824ZM102.348 211.997C102.372 210.812 102.066 209.643 101.462 208.622C100.859 207.601 99.9832 206.769 98.9328 206.218C99.4275 207.177 99.6856 208.24 99.6858 209.318C99.6398 210.512 99.937 211.694 100.542 212.725C101.147 213.755 102.035 214.591 103.101 215.132C102.594 214.166 102.335 213.088 102.348 211.997ZM25.6637 137.415C26.5058 138.877 26.7446 140.609 26.3293 142.244C25.9139 143.879 24.8773 145.288 23.4397 146.171C22.4535 146.788 21.6479 147.655 21.1046 148.684C20.5613 149.712 20.2994 150.867 20.3456 152.029C20.3918 153.192 20.7444 154.321 21.3677 155.304C21.991 156.286 22.8629 157.086 23.895 157.623C23.033 156.168 22.7813 154.431 23.1946 152.791C23.6079 151.151 24.6528 149.74 26.1015 148.867C27.1111 148.261 27.9397 147.396 28.501 146.361C29.0622 145.325 29.3357 144.159 29.2927 142.982C29.2498 141.805 28.8921 140.662 28.2569 139.67C27.6217 138.679 26.7322 137.876 25.6812 137.345L25.6637 137.415ZM20.8304 111.813C21.291 112.663 21.5582 113.604 21.613 114.569C21.6678 115.534 21.5089 116.499 21.1476 117.396C20.7863 118.292 20.2315 119.098 19.5228 119.756C18.8141 120.413 17.969 120.906 17.0479 121.199C15.812 121.597 14.7209 122.35 13.9109 123.365C13.101 124.379 12.6081 125.61 12.4941 126.904C12.3801 128.197 12.65 129.495 13.27 130.636C13.8899 131.777 14.8324 132.709 15.9797 133.317C15.492 132.471 15.2014 131.525 15.1297 130.551C15.058 129.576 15.2069 128.599 15.5654 127.69C15.9238 126.781 16.4826 125.965 17.2002 125.302C17.9177 124.639 18.7754 124.146 19.7097 123.861C20.9556 123.478 22.0599 122.734 22.8828 121.723C23.7056 120.712 24.2099 119.48 24.3318 118.182C24.4537 116.885 24.1876 115.58 23.5674 114.434C22.9473 113.287 22.0008 112.351 20.848 111.743L20.8304 111.813ZM14.2811 107.785C13.7628 106.808 13.4984 105.716 13.512 104.61C13.5256 103.504 13.8169 102.419 14.359 101.455C14.9012 100.491 15.6769 99.679 16.6149 99.0928C17.5528 98.5067 18.623 98.1657 19.7272 98.101C21.1332 98.0015 22.4698 97.4524 23.5396 96.5347C24.6094 95.617 25.3556 94.3794 25.6678 93.005C25.98 91.6305 25.8417 90.1921 25.2733 88.9023C24.7049 87.6125 23.7366 86.5398 22.5115 85.8427C23.018 86.818 23.273 87.9042 23.2534 89.003C23.2338 90.1017 22.9402 91.1782 22.3993 92.1348C21.8584 93.0913 21.0873 93.8977 20.1558 94.4809C19.2244 95.064 18.1622 95.4055 17.0654 95.4742C15.673 95.5937 14.3547 96.1531 13.3013 97.0715C12.2479 97.9899 11.5141 99.2197 11.206 100.583C10.8979 101.946 11.0314 103.372 11.5874 104.654C12.1434 105.936 13.0929 107.008 14.2985 107.715L14.2811 107.785ZM53.5073 181.334C54.0507 182.293 54.3363 183.376 54.3363 184.478C54.3363 185.579 54.0507 186.662 53.5073 187.621C53.0858 188.367 52.8174 189.19 52.7178 190.042C52.6183 190.893 52.6897 191.756 52.9278 192.58C53.1659 193.403 53.5659 194.171 54.1044 194.838C54.643 195.505 55.3092 196.058 56.064 196.464C55.5271 195.504 55.2524 194.419 55.2678 193.318C55.2832 192.218 55.588 191.141 56.1516 190.195C56.5913 189.435 56.8724 188.594 56.9781 187.723C57.0837 186.851 57.0115 185.967 56.766 185.124C56.5205 184.282 56.1067 183.497 55.5497 182.819C54.9926 182.14 54.3038 181.582 53.5248 181.177L53.5073 181.334ZM112.504 5.76157C112.379 6.82397 111.998 7.84003 111.393 8.72228C110.788 9.60454 109.977 10.3266 109.031 10.8262C108.086 11.3259 107.032 11.5882 105.963 11.5906C104.893 11.593 103.839 11.3354 102.89 10.84C103.562 12.0511 104.599 13.0188 105.854 13.6049C107.109 14.191 108.517 14.3653 109.877 14.1031C111.237 13.8408 112.479 13.1554 113.426 12.1447C114.372 11.134 114.975 9.84992 115.149 8.47589C115.273 7.40821 115.657 6.38727 116.267 5.5027C116.878 4.61812 117.696 3.89695 118.651 3.40248C119.605 2.908 120.666 2.65535 121.741 2.66669C122.816 2.67804 123.871 2.95303 124.815 3.46754C124.143 2.25696 123.107 1.28835 121.854 0.698747C120.602 0.109142 119.195 -0.0716159 117.834 0.18204C116.473 0.435697 115.226 1.11092 114.269 2.11221C113.313 3.1135 112.695 4.39015 112.504 5.76157ZM36.8011 160.986C37.5016 162.197 37.7865 163.603 37.6126 164.991C37.4387 166.379 36.8155 167.673 35.838 168.673C35.138 169.409 34.6191 170.298 34.3227 171.269C34.0263 172.241 33.9604 173.268 34.1304 174.269C34.3004 175.27 34.7016 176.218 35.302 177.037C35.9024 177.856 36.6855 178.524 37.5892 178.988C36.8813 177.783 36.595 176.376 36.7758 174.99C36.9566 173.604 37.594 172.318 38.5873 171.335C39.2826 170.592 39.7963 169.698 40.088 168.723C40.3797 167.748 40.4414 166.719 40.2683 165.716C40.0952 164.713 39.6921 163.764 39.0905 162.943C38.4889 162.123 37.7053 161.453 36.8011 160.986ZM221.55 73.6896C220.909 72.4455 219.874 71.4491 218.607 70.8564C217.339 70.2638 215.911 70.1085 214.545 70.4149C213.084 70.7245 211.56 70.5139 210.237 69.8195C210.889 71.0535 211.926 72.0411 213.19 72.6321C214.454 73.2232 215.877 73.3854 217.242 73.0942C218.704 72.7948 220.224 73.0049 221.55 73.6896ZM215.018 146.398C215.48 147.218 216.121 147.924 216.892 148.465C216.424 147.648 215.785 146.943 215.018 146.398ZM202.112 47.8598C201.188 48.3199 200.167 48.5476 199.135 48.5232C198.104 48.4988 197.094 48.223 196.193 47.7197C196.981 49.2122 198.32 50.3392 199.925 50.8622C201.529 51.3851 203.275 51.263 204.791 50.5216C205.697 50.049 206.703 49.8021 207.724 49.8021C208.746 49.8021 209.752 50.049 210.658 50.5216C209.862 49.0508 208.523 47.9491 206.926 47.4518C205.33 46.9545 203.602 47.1009 202.112 47.8598ZM223.634 98.0309C224.58 98.0851 225.504 98.3356 226.348 98.7664C225.839 97.7698 225.072 96.9284 224.126 96.3307C223.18 95.7329 222.091 95.4008 220.972 95.3691C220.017 95.3096 219.086 95.0469 218.24 94.5986C218.745 95.6104 219.512 96.4687 220.46 97.0845C221.408 97.7003 222.504 98.0513 223.634 98.101V98.0309ZM220.99 121.164C220.6 121.046 220.225 120.887 219.869 120.691C220.26 121.438 220.796 122.1 221.445 122.639C222.094 123.177 222.844 123.58 223.651 123.826C224.062 123.96 224.461 124.13 224.842 124.334C224.446 123.573 223.901 122.901 223.239 122.356C222.577 121.812 221.812 121.406 220.99 121.164ZM138.212 7.33763C137.872 8.2106 137.35 9.00064 136.679 9.65444C136.008 10.3082 135.205 10.8106 134.324 11.1276C133.443 11.4446 132.504 11.5689 131.57 11.4921C130.637 11.4153 129.731 11.1392 128.913 10.6824C129.507 11.793 130.406 12.7106 131.504 13.3269C132.602 13.9432 133.854 14.2325 135.111 14.1607C136.369 14.089 137.579 13.659 138.6 12.9217C139.621 12.1844 140.41 11.1704 140.873 9.99941C141.205 9.11442 141.727 8.31276 142.401 7.65067C143.076 6.98859 143.887 6.4821 144.778 6.16674C145.669 5.85137 146.618 5.73477 147.559 5.82511C148.5 5.91545 149.41 6.21055 150.225 6.68969C149.635 5.56891 148.736 4.64087 147.634 4.01571C146.533 3.39055 145.275 3.09451 144.01 3.16272C142.746 3.23094 141.527 3.66054 140.499 4.40054C139.471 5.14055 138.677 6.1599 138.212 7.33763ZM184.478 29.0522C183.475 29.9222 182.225 30.4573 180.904 30.5829C179.582 30.7084 178.254 30.4182 177.105 29.7526C177.55 30.6308 178.186 31.3977 178.967 31.9967C179.748 32.5957 180.654 33.0115 181.618 33.2132C182.581 33.415 183.577 33.3976 184.533 33.1623C185.489 32.9271 186.38 32.48 187.139 31.8541C188.132 30.971 189.38 30.4271 190.702 30.3011C192.025 30.1752 193.353 30.4737 194.494 31.1536C194.053 30.2737 193.419 29.5051 192.638 28.9057C191.857 28.3063 190.951 27.8916 189.987 27.6927C189.023 27.4939 188.026 27.516 187.072 27.7575C186.118 27.9991 185.231 28.4537 184.478 29.0872V29.0522ZM153.377 208.723C152.773 207.587 151.847 206.655 150.715 206.043C151.326 207.209 152.271 208.166 153.429 208.793L153.377 208.723ZM128.072 213.521C127.86 212.626 127.457 211.788 126.892 211.063C126.327 210.338 125.613 209.743 124.798 209.318C125.057 209.808 125.263 210.325 125.411 210.859C125.614 211.759 126.013 212.604 126.579 213.333C127.145 214.062 127.864 214.659 128.685 215.079C128.418 214.587 128.212 214.063 128.072 213.521ZM162.71 15.3055C161.785 16.6214 160.402 17.5458 158.832 17.8986C157.262 18.2514 155.617 18.0075 154.217 17.2142C154.747 18.199 155.518 19.0335 156.458 19.6398C157.397 20.2461 158.475 20.6045 159.591 20.6814C160.707 20.7583 161.824 20.5514 162.838 20.0798C163.852 19.6083 164.73 18.8875 165.39 17.9848C166.297 16.6454 167.682 15.7035 169.261 15.3519C170.84 15.0003 172.493 15.2656 173.883 16.0935C173.361 15.1 172.595 14.2563 171.655 13.6424C170.716 13.0285 169.636 12.6649 168.516 12.5859C167.397 12.507 166.276 12.7154 165.26 13.1913C164.244 13.6673 163.366 14.395 162.71 15.3055Z" fill="#F2EFEF"/>
<path d="M223.652 123.791C222.258 123.345 221.052 122.447 220.227 121.239C219.401 120.03 219.003 118.58 219.096 117.12C219.188 115.659 219.766 114.271 220.738 113.176C221.709 112.082 223.018 111.343 224.458 111.077C226.039 110.782 227.457 109.919 228.446 108.65C229.434 107.382 229.924 105.795 229.823 104.19C229.721 102.584 229.036 101.072 227.896 99.9371C226.756 98.8025 225.24 98.1245 223.635 98.0309C222.171 97.9491 220.777 97.3799 219.674 96.4141C218.572 95.4483 217.824 94.1413 217.55 92.7013C217.276 91.2613 217.492 89.771 218.163 88.4678C218.834 87.1646 219.922 86.1234 221.253 85.51C222.692 84.8211 223.832 83.6333 224.46 82.1673C225.089 80.7013 225.165 79.0568 224.673 77.5395C224.18 76.0221 223.154 74.735 221.784 73.9174C220.414 73.0998 218.794 72.8073 217.225 73.0942C215.805 73.3451 214.342 73.123 213.06 72.4618C211.779 71.8007 210.75 70.7371 210.131 69.4344C209.513 68.1317 209.339 66.662 209.637 65.251C209.934 63.84 210.687 62.5658 211.779 61.624C213.018 60.6027 213.841 59.1639 214.094 57.5782C214.346 55.9926 214.01 54.3693 213.15 53.0138C212.289 51.6583 210.963 50.664 209.42 50.2179C207.878 49.7718 206.226 49.9047 204.774 50.5916C203.452 51.2276 201.955 51.4025 200.522 51.0885C199.089 50.7745 197.802 49.9897 196.867 48.8591C195.932 47.7286 195.403 46.3175 195.363 44.851C195.324 43.3844 195.776 41.9468 196.649 40.7675C197.582 39.4695 198.012 37.8762 197.856 36.2851C197.701 34.6939 196.973 33.2134 195.806 32.12C194.64 31.0265 193.116 30.3948 191.518 30.3427C189.92 30.2905 188.358 30.8215 187.123 31.8365C185.988 32.7394 184.588 33.2427 183.138 33.2683C181.689 33.294 180.272 32.8406 179.106 31.9785C177.941 31.1164 177.092 29.8937 176.693 28.5002C176.293 27.1067 176.364 25.6202 176.896 24.2714C177.508 22.7792 177.549 21.1138 177.012 19.593C176.475 18.0721 175.397 16.8021 173.984 16.025C172.57 15.248 170.92 15.0183 169.348 15.3797C167.777 15.7411 166.393 16.6684 165.461 17.9847C164.604 19.1738 163.376 20.0432 161.969 20.4554C160.563 20.8675 159.06 20.7988 157.697 20.2602C156.334 19.7215 155.19 18.7437 154.446 17.4815C153.702 16.2192 153.4 14.7448 153.588 13.2916C153.781 11.7058 153.391 10.1038 152.491 8.78416C151.591 7.46448 150.241 6.51712 148.694 6.11858C147.147 5.72005 145.508 5.89753 144.082 6.61795C142.656 7.33838 141.541 8.55261 140.944 10.0344C140.403 11.3876 139.429 12.5232 138.173 13.2632C136.918 14.0031 135.452 14.3057 134.007 14.1235C132.561 13.9412 131.216 13.2845 130.184 12.2561C129.151 11.2278 128.489 9.88594 128.301 8.44084C128.099 6.8511 127.324 5.3896 126.121 4.33028C124.919 3.27096 123.371 2.68652 121.769 2.68652C120.166 2.68652 118.619 3.27096 117.416 4.33028C116.214 5.3896 115.439 6.8511 115.237 8.44084C115.049 9.88594 114.387 11.2278 113.354 12.2561C112.321 13.2845 110.977 13.9412 109.531 14.1235C108.085 14.3057 106.62 14.0031 105.364 13.2632C104.109 12.5232 103.134 11.3876 102.593 10.0344C102.008 8.53551 100.894 7.30289 99.4617 6.56936C98.0295 5.83583 96.3782 5.65219 94.8197 6.05311C93.2613 6.45403 91.9036 7.41177 91.0032 8.74541C90.1028 10.079 89.7219 11.6963 89.9324 13.2916C90.1133 14.74 89.8077 16.2075 89.0638 17.4634C88.3198 18.7193 87.1795 19.6924 85.8223 20.2296C84.4651 20.7669 82.9678 20.838 81.5658 20.4316C80.1638 20.0252 78.9366 19.1645 78.077 17.9847C77.1886 16.5655 75.7916 15.5392 74.1717 15.1157C72.5517 14.6922 70.8312 14.9035 69.3619 15.7064C67.8925 16.5093 66.7854 17.8431 66.2668 19.4351C65.7482 21.0272 65.8573 22.7572 66.5718 24.2714C67.1435 25.6341 67.2402 27.1496 66.8463 28.5739C66.4524 29.9982 65.5907 31.2486 64.4001 32.1239C63.2094 32.9992 61.759 33.4485 60.282 33.3995C58.805 33.3506 57.3875 32.8062 56.2574 31.854C55.0222 30.839 53.4599 30.308 51.8621 30.3602C50.2642 30.4123 48.7399 31.0441 47.5735 32.1375C46.4072 33.2309 45.6785 34.7114 45.5235 36.3026C45.3685 37.8937 45.7977 39.487 46.731 40.785C47.5755 41.9703 48.0023 43.4025 47.9445 44.8567C47.8866 46.311 47.3473 47.7047 46.4112 48.8192C45.4752 49.9336 44.1955 50.7055 42.7731 51.0136C41.3508 51.3218 39.8663 51.1487 38.553 50.5215C37.1017 49.8347 35.4494 49.7018 33.907 50.1479C32.3646 50.5939 31.0383 51.5883 30.1777 52.9438C29.317 54.2993 28.9813 55.9225 29.2338 57.5082C29.4862 59.0939 30.3093 60.5327 31.5483 61.5539C32.6734 62.4855 33.4568 63.7646 33.7752 65.1901C34.0936 66.6157 33.929 68.1066 33.3072 69.4283C32.6855 70.75 31.6419 71.8275 30.3408 72.4911C29.0396 73.1548 27.5546 73.3669 26.1197 73.0942C24.5505 72.8073 22.9305 73.0998 21.5607 73.9174C20.191 74.735 19.1646 76.0221 18.6724 77.5395C18.1801 79.0568 18.2555 80.7013 18.8845 82.1673C19.5134 83.6333 20.6532 84.8211 22.092 85.51C23.4105 86.1349 24.484 87.18 25.144 88.4812C25.8041 89.7824 26.0133 91.266 25.7387 92.699C25.4642 94.132 24.7214 95.4332 23.6271 96.3983C22.5328 97.3633 21.149 97.9376 19.6929 98.0309C18.0882 98.1277 16.5743 98.8082 15.4368 99.9442C14.2992 101.08 13.6165 102.593 13.5174 104.198C13.4183 105.802 13.9097 107.388 14.8989 108.655C15.8881 109.922 17.3067 110.784 18.8873 111.077C20.3258 111.345 21.6335 112.086 22.603 113.182C23.5724 114.278 24.1481 115.666 24.2386 117.127C24.3291 118.587 23.9293 120.036 23.1026 121.243C22.2759 122.45 21.0697 123.347 19.6754 123.791C18.1476 124.284 16.8528 125.319 16.0345 126.7C15.2161 128.082 14.9308 129.714 15.232 131.291C15.5332 132.869 16.4002 134.281 17.67 135.264C18.9398 136.246 20.5248 136.731 22.127 136.627C23.5883 136.525 25.0417 136.914 26.2562 137.733C27.4706 138.552 28.3763 139.754 28.8293 141.147C29.2822 142.54 29.2564 144.045 28.7559 145.421C28.2554 146.798 27.309 147.968 26.0671 148.745C24.7121 149.604 23.7173 150.928 23.2697 152.469C22.8221 154.01 22.9524 155.661 23.6361 157.112C24.3199 158.563 25.5101 159.715 26.9831 160.351C28.4562 160.987 30.1107 161.063 31.6359 160.565C33.0253 160.115 34.5249 160.14 35.8986 160.636C37.2723 161.132 38.4422 162.07 39.2244 163.303C40.0065 164.537 40.3564 165.995 40.219 167.449C40.0816 168.903 39.4648 170.27 38.4655 171.335C37.3722 172.504 36.7419 174.031 36.6926 175.63C36.6433 177.23 37.1783 178.793 38.1975 180.027C39.2168 181.261 40.6506 182.081 42.2308 182.334C43.811 182.588 45.4295 182.257 46.7836 181.404C48.0193 180.613 49.4838 180.257 50.9447 180.394C52.4056 180.53 53.7792 181.15 54.8474 182.156C55.9156 183.162 56.6173 184.496 56.841 185.946C57.0647 187.396 56.7977 188.879 56.0823 190.16C55.3328 191.557 55.1138 193.177 55.4657 194.723C55.8175 196.268 56.7165 197.635 57.9968 198.569C59.277 199.504 60.8521 199.944 62.4314 199.808C64.0106 199.672 65.4874 198.97 66.5893 197.83C67.5903 196.767 68.9161 196.067 70.3584 195.84C71.8007 195.613 73.2776 195.871 74.5569 196.575C75.8361 197.279 76.8452 198.388 77.4254 199.728C78.0055 201.068 78.1239 202.562 77.7618 203.977C77.3541 205.533 77.5301 207.184 78.2567 208.62C78.9833 210.055 80.2101 211.174 81.7056 211.767C83.2011 212.36 84.8618 212.384 86.3742 211.836C87.8866 211.288 89.1461 210.206 89.9149 208.793C90.6112 207.502 91.7192 206.482 93.0625 205.895C94.4057 205.307 95.9069 205.186 97.327 205.551C98.7471 205.915 100.004 206.745 100.898 207.907C101.792 209.068 102.272 210.496 102.261 211.962C102.266 213.563 102.854 215.106 103.915 216.305C104.975 217.503 106.436 218.274 108.024 218.474C109.612 218.673 111.218 218.288 112.542 217.389C113.867 216.49 114.818 215.14 115.219 213.591C115.585 212.178 116.41 210.927 117.563 210.034C118.717 209.141 120.135 208.657 121.594 208.657C123.053 208.657 124.47 209.141 125.624 210.034C126.778 210.927 127.602 212.178 127.968 213.591C128.369 215.14 129.321 216.49 130.645 217.389C131.969 218.288 133.575 218.673 135.163 218.474C136.751 218.274 138.212 217.503 139.273 216.305C140.333 215.106 140.921 213.563 140.927 211.962C140.915 210.496 141.395 209.068 142.289 207.907C143.183 206.745 144.44 205.915 145.86 205.551C147.28 205.186 148.782 205.307 150.125 205.895C151.468 206.482 152.576 207.502 153.272 208.793C154.05 210.188 155.309 211.253 156.814 211.789C158.319 212.325 159.967 212.295 161.452 211.706C162.937 211.117 164.157 210.008 164.885 208.586C165.612 207.164 165.798 205.526 165.408 203.977C165.039 202.559 165.153 201.058 165.733 199.712C166.313 198.366 167.326 197.253 168.61 196.547C169.894 195.842 171.378 195.585 172.824 195.817C174.271 196.05 175.599 196.758 176.598 197.83C177.7 198.97 179.177 199.672 180.756 199.808C182.335 199.944 183.91 199.504 185.191 198.569C186.471 197.635 187.37 196.268 187.722 194.723C188.074 193.177 187.855 191.557 187.105 190.16C186.372 188.88 186.091 187.39 186.308 185.93C186.525 184.471 187.227 183.127 188.302 182.115C189.376 181.104 190.759 180.483 192.229 180.354C193.699 180.225 195.17 180.595 196.404 181.404C197.758 182.257 199.376 182.588 200.957 182.334C202.537 182.081 203.971 181.261 204.99 180.027C206.009 178.793 206.544 177.23 206.495 175.63C206.445 174.031 205.815 172.504 204.722 171.335C203.723 170.27 203.106 168.903 202.968 167.449C202.831 165.995 203.181 164.537 203.963 163.303C204.745 162.07 205.915 161.132 207.289 160.636C208.662 160.14 210.162 160.115 211.551 160.565C213.077 161.063 214.731 160.987 216.204 160.351C217.677 159.715 218.867 158.563 219.551 157.112C220.235 155.661 220.365 154.01 219.918 152.469C219.47 150.928 218.475 149.604 217.12 148.745C215.878 147.968 214.932 146.798 214.431 145.421C213.931 144.045 213.905 142.54 214.358 141.147C214.811 139.754 215.717 138.552 216.931 137.733C218.146 136.914 219.599 136.525 221.06 136.627C222.679 136.778 224.297 136.326 225.602 135.356C226.907 134.386 227.807 132.968 228.129 131.374C228.45 129.78 228.171 128.124 227.345 126.724C226.518 125.324 225.203 124.279 223.652 123.791ZM122.084 195.939C105.022 195.929 88.3454 190.86 74.1635 181.373C59.9817 171.886 48.9311 158.407 42.4088 142.64C35.8865 126.874 34.1854 109.527 37.5205 92.794C40.8555 76.0607 49.0771 60.692 61.1457 48.6307C73.2143 36.5694 88.5881 28.3573 105.323 25.0324C122.059 21.7075 139.404 23.4192 155.167 29.9511C170.929 36.483 184.401 47.5418 193.88 61.7293C203.358 75.9169 208.417 92.5963 208.417 109.659C208.417 132.542 199.327 154.487 183.146 170.668C166.965 186.849 145.02 195.939 122.137 195.939H122.084Z" fill="#F2EFEF"/>
<path d="M121.698 21.3467C104.034 21.3467 86.7666 26.5846 72.0797 36.3981C57.3927 46.2116 45.9457 60.1599 39.186 76.4791C32.4264 92.7984 30.6578 110.756 34.1038 128.08C37.5498 145.404 46.0557 161.318 58.5459 173.808C71.0362 186.298 86.9497 194.804 104.274 198.25C121.598 201.696 139.556 199.928 155.875 193.168C172.194 186.408 186.143 174.961 195.956 160.274C205.769 145.587 211.007 128.32 211.007 110.657C211.007 86.9701 201.598 64.2538 184.849 47.5049C168.1 30.7561 145.384 21.3467 121.698 21.3467ZM121.698 195.588C104.886 195.592 88.4516 190.609 74.4725 181.271C60.4934 171.932 49.5981 158.658 43.1647 143.126C36.7312 127.594 35.0489 110.504 38.3303 94.0158C41.6117 77.5278 49.7095 62.3835 61.5994 50.4985C73.4892 38.6136 88.6369 30.522 105.126 27.2474C121.616 23.9727 138.706 25.6622 154.235 32.102C169.764 38.5418 183.034 49.4427 192.366 63.4256C201.699 77.4085 206.675 93.8452 206.665 110.657C206.651 133.182 197.693 154.78 181.76 170.703C165.827 186.626 144.223 195.571 121.698 195.571V195.588Z" fill="#F2EFEF"/>
<path d="M219.939 223.695L242.704 191.666L0.674606 191.648L23.4399 223.677L0.62207 255.619L242.757 255.636L219.939 223.695Z" fill="#F2EFEF"/>
</g>
<path d="M90.637 90.6C92.8517 90.6 94.5457 91.0033 95.719 91.81C96.907 92.6167 97.501 93.878 97.501 95.594C97.501 96.4887 97.3397 97.2587 97.017 97.904C96.709 98.5347 96.2544 99.0553 95.653 99.466C95.0517 99.862 94.3184 100.155 93.453 100.346C92.5877 100.537 91.5977 100.632 90.483 100.632H89.097V106H86.325V90.974C86.9704 90.8273 87.6817 90.732 88.459 90.688C89.251 90.6293 89.977 90.6 90.637 90.6ZM90.835 92.998C90.131 92.998 89.5517 93.02 89.097 93.064V98.256H90.439C91.7737 98.256 92.8004 98.0727 93.519 97.706C94.2377 97.3247 94.597 96.6133 94.597 95.572C94.597 95.0733 94.5017 94.6553 94.311 94.318C94.1204 93.9807 93.8564 93.7167 93.519 93.526C93.1817 93.3353 92.7784 93.2033 92.309 93.13C91.8544 93.042 91.363 92.998 90.835 92.998ZM103.583 104.13C104.404 104.13 105.027 104.086 105.453 103.998V101.05C105.306 101.006 105.093 100.962 104.815 100.918C104.536 100.874 104.228 100.852 103.891 100.852C103.597 100.852 103.297 100.874 102.989 100.918C102.695 100.962 102.424 101.043 102.175 101.16C101.94 101.277 101.749 101.446 101.603 101.666C101.456 101.871 101.383 102.135 101.383 102.458C101.383 103.089 101.581 103.529 101.977 103.778C102.373 104.013 102.908 104.13 103.583 104.13ZM103.363 94.208C104.243 94.208 104.983 94.318 105.585 94.538C106.186 94.758 106.663 95.066 107.015 95.462C107.381 95.858 107.638 96.342 107.785 96.914C107.946 97.4713 108.027 98.0873 108.027 98.762V105.736C107.616 105.824 106.993 105.927 106.157 106.044C105.335 106.176 104.404 106.242 103.363 106.242C102.673 106.242 102.043 106.176 101.471 106.044C100.899 105.912 100.407 105.699 99.9968 105.406C99.6008 105.113 99.2855 104.731 99.0508 104.262C98.8308 103.793 98.7208 103.213 98.7208 102.524C98.7208 101.864 98.8455 101.307 99.0948 100.852C99.3588 100.397 99.7108 100.031 100.151 99.752C100.591 99.4587 101.097 99.2533 101.669 99.136C102.255 99.004 102.864 98.938 103.495 98.938C103.788 98.938 104.096 98.96 104.419 99.004C104.741 99.0333 105.086 99.092 105.453 99.18V98.74C105.453 98.432 105.416 98.1387 105.343 97.86C105.269 97.5813 105.137 97.3393 104.947 97.134C104.771 96.914 104.529 96.7453 104.221 96.628C103.927 96.5107 103.553 96.452 103.099 96.452C102.483 96.452 101.918 96.496 101.405 96.584C100.891 96.672 100.473 96.7747 100.151 96.892L99.8208 94.736C100.158 94.6187 100.649 94.5013 101.295 94.384C101.94 94.2667 102.629 94.208 103.363 94.208ZM111.155 91.458L113.817 91.018V94.494H117.909V96.716H113.817V101.402C113.817 102.326 113.963 102.986 114.257 103.382C114.55 103.778 115.049 103.976 115.753 103.976C116.237 103.976 116.662 103.925 117.029 103.822C117.41 103.719 117.711 103.624 117.931 103.536L118.371 105.648C118.063 105.78 117.659 105.912 117.161 106.044C116.662 106.191 116.075 106.264 115.401 106.264C114.579 106.264 113.89 106.154 113.333 105.934C112.79 105.714 112.357 105.399 112.035 104.988C111.712 104.563 111.485 104.057 111.353 103.47C111.221 102.869 111.155 102.187 111.155 101.424V91.458ZM123.166 106H120.504V94.494H123.166V106ZM123.452 91.128C123.452 91.6267 123.291 92.0227 122.968 92.316C122.645 92.6093 122.264 92.756 121.824 92.756C121.369 92.756 120.981 92.6093 120.658 92.316C120.335 92.0227 120.174 91.6267 120.174 91.128C120.174 90.6147 120.335 90.2113 120.658 89.918C120.981 89.6247 121.369 89.478 121.824 89.478C122.264 89.478 122.645 89.6247 122.968 89.918C123.291 90.2113 123.452 90.6147 123.452 91.128ZM125.924 100.302C125.924 99.29 126.071 98.4027 126.364 97.64C126.672 96.8773 127.075 96.2467 127.574 95.748C128.073 95.2347 128.645 94.8533 129.29 94.604C129.935 94.34 130.595 94.208 131.27 94.208C132.854 94.208 134.086 94.6993 134.966 95.682C135.861 96.6647 136.308 98.1313 136.308 100.082C136.308 100.229 136.301 100.397 136.286 100.588C136.286 100.764 136.279 100.925 136.264 101.072H128.674C128.747 101.996 129.07 102.715 129.642 103.228C130.229 103.727 131.072 103.976 132.172 103.976C132.817 103.976 133.404 103.917 133.932 103.8C134.475 103.683 134.9 103.558 135.208 103.426L135.56 105.604C135.413 105.677 135.208 105.758 134.944 105.846C134.695 105.919 134.401 105.985 134.064 106.044C133.741 106.117 133.389 106.176 133.008 106.22C132.627 106.264 132.238 106.286 131.842 106.286C130.83 106.286 129.95 106.139 129.202 105.846C128.454 105.538 127.838 105.12 127.354 104.592C126.87 104.049 126.511 103.419 126.276 102.7C126.041 101.967 125.924 101.167 125.924 100.302ZM133.646 99.114C133.646 98.7473 133.595 98.4027 133.492 98.08C133.389 97.7427 133.235 97.4567 133.03 97.222C132.839 96.9727 132.597 96.782 132.304 96.65C132.025 96.5033 131.688 96.43 131.292 96.43C130.881 96.43 130.522 96.5107 130.214 96.672C129.906 96.8187 129.642 97.0167 129.422 97.266C129.217 97.5153 129.055 97.8013 128.938 98.124C128.821 98.4467 128.74 98.7767 128.696 99.114H133.646ZM139.131 94.868C139.644 94.7213 140.311 94.582 141.133 94.45C141.954 94.318 142.863 94.252 143.861 94.252C144.799 94.252 145.584 94.384 146.215 94.648C146.845 94.8973 147.344 95.2567 147.711 95.726C148.092 96.1807 148.356 96.738 148.503 97.398C148.664 98.0433 148.745 98.7547 148.745 99.532V106H146.083V99.95C146.083 99.334 146.039 98.8133 145.951 98.388C145.877 97.948 145.745 97.596 145.555 97.332C145.379 97.0533 145.129 96.8553 144.807 96.738C144.499 96.606 144.117 96.54 143.663 96.54C143.325 96.54 142.973 96.562 142.607 96.606C142.24 96.65 141.969 96.6867 141.793 96.716V106H139.131V94.868ZM151.868 91.458L154.53 91.018V94.494H158.622V96.716H154.53V101.402C154.53 102.326 154.676 102.986 154.97 103.382C155.263 103.778 155.762 103.976 156.466 103.976C156.95 103.976 157.375 103.925 157.742 103.822C158.123 103.719 158.424 103.624 158.644 103.536L159.084 105.648C158.776 105.78 158.372 105.912 157.874 106.044C157.375 106.191 156.788 106.264 156.114 106.264C155.292 106.264 154.603 106.154 154.046 105.934C153.503 105.714 153.07 105.399 152.748 104.988C152.425 104.563 152.198 104.057 152.066 103.47C151.934 102.869 151.868 102.187 151.868 101.424V91.458ZM61.0057 133.086C61.7097 133.086 62.223 133.005 62.5457 132.844C62.8684 132.668 63.0297 132.375 63.0297 131.964C63.0297 131.583 62.8537 131.267 62.5017 131.018C62.1644 130.769 61.5997 130.497 60.8077 130.204C60.3237 130.028 59.8764 129.845 59.4657 129.654C59.0697 129.449 58.725 129.214 58.4317 128.95C58.1384 128.686 57.9037 128.371 57.7277 128.004C57.5664 127.623 57.4857 127.161 57.4857 126.618C57.4857 125.562 57.8744 124.733 58.6517 124.132C59.429 123.516 60.485 123.208 61.8197 123.208C62.4944 123.208 63.1397 123.274 63.7557 123.406C64.3717 123.523 64.8337 123.641 65.1417 123.758L64.6577 125.914C64.3644 125.782 63.9904 125.665 63.5357 125.562C63.081 125.445 62.553 125.386 61.9517 125.386C61.409 125.386 60.969 125.481 60.6317 125.672C60.2944 125.848 60.1257 126.127 60.1257 126.508C60.1257 126.699 60.155 126.867 60.2137 127.014C60.287 127.161 60.4044 127.3 60.5657 127.432C60.727 127.549 60.9397 127.674 61.2037 127.806C61.4677 127.923 61.7904 128.048 62.1717 128.18C62.8024 128.415 63.3377 128.649 63.7777 128.884C64.2177 129.104 64.577 129.361 64.8557 129.654C65.149 129.933 65.3617 130.255 65.4937 130.622C65.6257 130.989 65.6917 131.429 65.6917 131.942C65.6917 133.042 65.281 133.878 64.4597 134.45C63.653 135.007 62.4944 135.286 60.9837 135.286C59.9717 135.286 59.1577 135.198 58.5417 135.022C57.9257 134.861 57.493 134.729 57.2437 134.626L57.7057 132.404C58.1017 132.565 58.571 132.719 59.1137 132.866C59.671 133.013 60.3017 133.086 61.0057 133.086ZM72.2264 133.13C73.0477 133.13 73.671 133.086 74.0964 132.998V130.05C73.9497 130.006 73.737 129.962 73.4584 129.918C73.1797 129.874 72.8717 129.852 72.5344 129.852C72.241 129.852 71.9404 129.874 71.6324 129.918C71.339 129.962 71.0677 130.043 70.8184 130.16C70.5837 130.277 70.393 130.446 70.2464 130.666C70.0997 130.871 70.0264 131.135 70.0264 131.458C70.0264 132.089 70.2244 132.529 70.6204 132.778C71.0164 133.013 71.5517 133.13 72.2264 133.13ZM72.0064 123.208C72.8864 123.208 73.627 123.318 74.2284 123.538C74.8297 123.758 75.3064 124.066 75.6584 124.462C76.025 124.858 76.2817 125.342 76.4284 125.914C76.5897 126.471 76.6704 127.087 76.6704 127.762V134.736C76.2597 134.824 75.6364 134.927 74.8004 135.044C73.979 135.176 73.0477 135.242 72.0064 135.242C71.317 135.242 70.6864 135.176 70.1144 135.044C69.5424 134.912 69.051 134.699 68.6404 134.406C68.2444 134.113 67.929 133.731 67.6944 133.262C67.4744 132.793 67.3644 132.213 67.3644 131.524C67.3644 130.864 67.489 130.307 67.7384 129.852C68.0024 129.397 68.3544 129.031 68.7944 128.752C69.2344 128.459 69.7404 128.253 70.3124 128.136C70.899 128.004 71.5077 127.938 72.1384 127.938C72.4317 127.938 72.7397 127.96 73.0624 128.004C73.385 128.033 73.7297 128.092 74.0964 128.18V127.74C74.0964 127.432 74.0597 127.139 73.9864 126.86C73.913 126.581 73.781 126.339 73.5904 126.134C73.4144 125.914 73.1724 125.745 72.8644 125.628C72.571 125.511 72.197 125.452 71.7424 125.452C71.1264 125.452 70.5617 125.496 70.0484 125.584C69.535 125.672 69.117 125.775 68.7944 125.892L68.4644 123.736C68.8017 123.619 69.293 123.501 69.9384 123.384C70.5837 123.267 71.273 123.208 72.0064 123.208ZM84.6163 117.928C85.2323 117.928 85.775 117.987 86.2443 118.104C86.7137 118.207 87.0657 118.302 87.3003 118.39L86.7943 120.59C86.545 120.473 86.2517 120.377 85.9143 120.304C85.5917 120.231 85.2397 120.194 84.8583 120.194C84.433 120.194 84.0737 120.26 83.7803 120.392C83.487 120.509 83.2523 120.678 83.0763 120.898C82.9003 121.118 82.7757 121.389 82.7023 121.712C82.629 122.02 82.5923 122.357 82.5923 122.724V123.494H86.7723V125.716H82.5923V135H79.9303V122.68C79.9303 121.199 80.319 120.04 81.0963 119.204C81.8737 118.353 83.047 117.928 84.6163 117.928ZM87.8861 129.302C87.8861 128.29 88.0327 127.403 88.3261 126.64C88.6341 125.877 89.0374 125.247 89.5361 124.748C90.0347 124.235 90.6067 123.853 91.2521 123.604C91.8974 123.34 92.5574 123.208 93.2321 123.208C94.8161 123.208 96.0481 123.699 96.9281 124.682C97.8227 125.665 98.2701 127.131 98.2701 129.082C98.2701 129.229 98.2627 129.397 98.2481 129.588C98.2481 129.764 98.2407 129.925 98.2261 130.072H90.6361C90.7094 130.996 91.0321 131.715 91.6041 132.228C92.1907 132.727 93.0341 132.976 94.1341 132.976C94.7794 132.976 95.3661 132.917 95.8941 132.8C96.4367 132.683 96.8621 132.558 97.1701 132.426L97.5221 134.604C97.3754 134.677 97.1701 134.758 96.9061 134.846C96.6567 134.919 96.3634 134.985 96.0261 135.044C95.7034 135.117 95.3514 135.176 94.9701 135.22C94.5887 135.264 94.2001 135.286 93.8041 135.286C92.7921 135.286 91.9121 135.139 91.1641 134.846C90.4161 134.538 89.8001 134.12 89.3161 133.592C88.8321 133.049 88.4727 132.419 88.2381 131.7C88.0034 130.967 87.8861 130.167 87.8861 129.302ZM95.6081 128.114C95.6081 127.747 95.5567 127.403 95.4541 127.08C95.3514 126.743 95.1974 126.457 94.9921 126.222C94.8014 125.973 94.5594 125.782 94.2661 125.65C93.9874 125.503 93.6501 125.43 93.2541 125.43C92.8434 125.43 92.4841 125.511 92.1761 125.672C91.8681 125.819 91.6041 126.017 91.3841 126.266C91.1787 126.515 91.0174 126.801 90.9001 127.124C90.7827 127.447 90.7021 127.777 90.6581 128.114H95.6081ZM100.96 120.458L103.622 120.018V123.494H107.714V125.716H103.622V130.402C103.622 131.326 103.769 131.986 104.062 132.382C104.356 132.778 104.854 132.976 105.558 132.976C106.042 132.976 106.468 132.925 106.834 132.822C107.216 132.719 107.516 132.624 107.736 132.536L108.176 134.648C107.868 134.78 107.465 134.912 106.966 135.044C106.468 135.191 105.881 135.264 105.206 135.264C104.385 135.264 103.696 135.154 103.138 134.934C102.596 134.714 102.163 134.399 101.84 133.988C101.518 133.563 101.29 133.057 101.158 132.47C101.026 131.869 100.96 131.187 100.96 130.424V120.458ZM119.682 123.494C118.494 127.865 117.115 131.825 115.546 135.374C115.252 136.034 114.952 136.599 114.644 137.068C114.336 137.537 113.991 137.926 113.61 138.234C113.228 138.542 112.803 138.762 112.334 138.894C111.864 139.041 111.322 139.114 110.706 139.114C110.295 139.114 109.884 139.07 109.474 138.982C109.078 138.894 108.777 138.799 108.572 138.696L109.056 136.562C109.584 136.767 110.104 136.87 110.618 136.87C111.307 136.87 111.842 136.701 112.224 136.364C112.62 136.041 112.964 135.535 113.258 134.846C112.422 133.233 111.615 131.473 110.838 129.566C110.075 127.659 109.393 125.635 108.792 123.494H111.63C111.776 124.11 111.952 124.777 112.158 125.496C112.378 126.215 112.612 126.948 112.862 127.696C113.111 128.429 113.375 129.163 113.654 129.896C113.932 130.629 114.211 131.311 114.49 131.942C114.959 130.637 115.399 129.251 115.81 127.784C116.22 126.303 116.594 124.873 116.932 123.494H119.682ZM130.879 133.13C131.7 133.13 132.323 133.086 132.749 132.998V130.05C132.602 130.006 132.389 129.962 132.111 129.918C131.832 129.874 131.524 129.852 131.187 129.852C130.893 129.852 130.593 129.874 130.285 129.918C129.991 129.962 129.72 130.043 129.471 130.16C129.236 130.277 129.045 130.446 128.899 130.666C128.752 130.871 128.679 131.135 128.679 131.458C128.679 132.089 128.877 132.529 129.273 132.778C129.669 133.013 130.204 133.13 130.879 133.13ZM130.659 123.208C131.539 123.208 132.279 123.318 132.881 123.538C133.482 123.758 133.959 124.066 134.311 124.462C134.677 124.858 134.934 125.342 135.081 125.914C135.242 126.471 135.323 127.087 135.323 127.762V134.736C134.912 134.824 134.289 134.927 133.453 135.044C132.631 135.176 131.7 135.242 130.659 135.242C129.969 135.242 129.339 135.176 128.767 135.044C128.195 134.912 127.703 134.699 127.293 134.406C126.897 134.113 126.581 133.731 126.347 133.262C126.127 132.793 126.017 132.213 126.017 131.524C126.017 130.864 126.141 130.307 126.391 129.852C126.655 129.397 127.007 129.031 127.447 128.752C127.887 128.459 128.393 128.253 128.965 128.136C129.551 128.004 130.16 127.938 130.791 127.938C131.084 127.938 131.392 127.96 131.715 128.004C132.037 128.033 132.382 128.092 132.749 128.18V127.74C132.749 127.432 132.712 127.139 132.639 126.86C132.565 126.581 132.433 126.339 132.243 126.134C132.067 125.914 131.825 125.745 131.517 125.628C131.223 125.511 130.849 125.452 130.395 125.452C129.779 125.452 129.214 125.496 128.701 125.584C128.187 125.672 127.769 125.775 127.447 125.892L127.117 123.736C127.454 123.619 127.945 123.501 128.591 123.384C129.236 123.267 129.925 123.208 130.659 123.208ZM145.232 127.762C144.894 129.053 144.528 130.314 144.132 131.546C143.75 132.763 143.369 133.915 142.988 135H140.81C140.516 134.325 140.208 133.555 139.886 132.69C139.563 131.825 139.24 130.901 138.918 129.918C138.595 128.935 138.272 127.901 137.95 126.816C137.627 125.731 137.312 124.623 137.004 123.494H139.82C139.952 124.11 140.106 124.777 140.282 125.496C140.458 126.2 140.641 126.926 140.832 127.674C141.022 128.407 141.22 129.126 141.426 129.83C141.631 130.534 141.836 131.179 142.042 131.766C142.262 131.091 142.474 130.395 142.68 129.676C142.9 128.957 143.105 128.239 143.296 127.52C143.486 126.801 143.662 126.105 143.824 125.43C144 124.741 144.154 124.095 144.286 123.494H146.332C146.464 124.095 146.61 124.741 146.772 125.43C146.933 126.105 147.102 126.801 147.278 127.52C147.468 128.239 147.666 128.957 147.872 129.676C148.092 130.395 148.312 131.091 148.532 131.766C148.722 131.179 148.92 130.534 149.126 129.83C149.331 129.126 149.529 128.407 149.72 127.674C149.925 126.926 150.116 126.2 150.292 125.496C150.468 124.777 150.622 124.11 150.754 123.494H153.504C153.196 124.623 152.88 125.731 152.558 126.816C152.235 127.901 151.912 128.935 151.59 129.918C151.267 130.901 150.944 131.825 150.622 132.69C150.299 133.555 149.984 134.325 149.676 135H147.52C147.138 133.915 146.742 132.763 146.332 131.546C145.936 130.314 145.569 129.053 145.232 127.762ZM159.582 133.13C160.403 133.13 161.027 133.086 161.452 132.998V130.05C161.305 130.006 161.093 129.962 160.814 129.918C160.535 129.874 160.227 129.852 159.89 129.852C159.597 129.852 159.296 129.874 158.988 129.918C158.695 129.962 158.423 130.043 158.174 130.16C157.939 130.277 157.749 130.446 157.602 130.666C157.455 130.871 157.382 131.135 157.382 131.458C157.382 132.089 157.58 132.529 157.976 132.778C158.372 133.013 158.907 133.13 159.582 133.13ZM159.362 123.208C160.242 123.208 160.983 123.318 161.584 123.538C162.185 123.758 162.662 124.066 163.014 124.462C163.381 124.858 163.637 125.342 163.784 125.914C163.945 126.471 164.026 127.087 164.026 127.762V134.736C163.615 134.824 162.992 134.927 162.156 135.044C161.335 135.176 160.403 135.242 159.362 135.242C158.673 135.242 158.042 135.176 157.47 135.044C156.898 134.912 156.407 134.699 155.996 134.406C155.6 134.113 155.285 133.731 155.05 133.262C154.83 132.793 154.72 132.213 154.72 131.524C154.72 130.864 154.845 130.307 155.094 129.852C155.358 129.397 155.71 129.031 156.15 128.752C156.59 128.459 157.096 128.253 157.668 128.136C158.255 128.004 158.863 127.938 159.494 127.938C159.787 127.938 160.095 127.96 160.418 128.004C160.741 128.033 161.085 128.092 161.452 128.18V127.74C161.452 127.432 161.415 127.139 161.342 126.86C161.269 126.581 161.137 126.339 160.946 126.134C160.77 125.914 160.528 125.745 160.22 125.628C159.927 125.511 159.553 125.452 159.098 125.452C158.482 125.452 157.917 125.496 157.404 125.584C156.891 125.672 156.473 125.775 156.15 125.892L155.82 123.736C156.157 123.619 156.649 123.501 157.294 123.384C157.939 123.267 158.629 123.208 159.362 123.208ZM173.842 125.892C173.622 125.819 173.314 125.745 172.918 125.672C172.536 125.584 172.089 125.54 171.576 125.54C171.282 125.54 170.967 125.569 170.63 125.628C170.307 125.687 170.08 125.738 169.948 125.782V135H167.286V124.044C167.799 123.853 168.437 123.677 169.2 123.516C169.977 123.34 170.835 123.252 171.774 123.252C171.95 123.252 172.155 123.267 172.39 123.296C172.624 123.311 172.859 123.34 173.094 123.384C173.328 123.413 173.556 123.457 173.776 123.516C173.996 123.56 174.172 123.604 174.304 123.648L173.842 125.892ZM178.249 129.214C178.249 130.387 178.528 131.311 179.085 131.986C179.642 132.646 180.412 132.976 181.395 132.976C181.82 132.976 182.18 132.961 182.473 132.932C182.781 132.888 183.03 132.844 183.221 132.8V126.2C182.986 126.039 182.671 125.892 182.275 125.76C181.894 125.613 181.483 125.54 181.043 125.54C180.075 125.54 179.364 125.87 178.909 126.53C178.469 127.19 178.249 128.085 178.249 129.214ZM185.883 134.648C185.355 134.809 184.688 134.956 183.881 135.088C183.089 135.22 182.253 135.286 181.373 135.286C180.464 135.286 179.65 135.147 178.931 134.868C178.212 134.589 177.596 134.193 177.083 133.68C176.584 133.152 176.196 132.521 175.917 131.788C175.653 131.04 175.521 130.204 175.521 129.28C175.521 128.371 175.631 127.549 175.851 126.816C176.086 126.068 176.423 125.43 176.863 124.902C177.303 124.374 177.838 123.971 178.469 123.692C179.1 123.399 179.826 123.252 180.647 123.252C181.204 123.252 181.696 123.318 182.121 123.45C182.546 123.582 182.913 123.729 183.221 123.89V118.368L185.883 117.928V134.648Z" fill="#1D5292"/>
<path d="M109.028 220.712C109.028 221.144 108.938 221.564 108.758 221.972C108.59 222.368 108.362 222.764 108.074 223.16C107.786 223.544 107.462 223.928 107.102 224.312C106.742 224.684 106.382 225.05 106.022 225.41C105.818 225.614 105.578 225.854 105.302 226.13C105.038 226.406 104.786 226.694 104.546 226.994C104.306 227.294 104.102 227.582 103.934 227.858C103.778 228.134 103.7 228.374 103.7 228.578H109.442V230H101.882C101.87 229.928 101.864 229.856 101.864 229.784C101.864 229.712 101.864 229.646 101.864 229.586C101.864 229.022 101.954 228.5 102.134 228.02C102.326 227.528 102.572 227.066 102.872 226.634C103.172 226.202 103.508 225.794 103.88 225.41C104.252 225.026 104.618 224.654 104.978 224.294C105.278 224.006 105.56 223.724 105.824 223.448C106.1 223.16 106.34 222.878 106.544 222.602C106.76 222.314 106.928 222.02 107.048 221.72C107.18 221.42 107.246 221.102 107.246 220.766C107.246 220.406 107.186 220.1 107.066 219.848C106.958 219.596 106.808 219.386 106.616 219.218C106.424 219.05 106.196 218.93 105.932 218.858C105.68 218.774 105.41 218.732 105.122 218.732C104.774 218.732 104.456 218.78 104.168 218.876C103.88 218.972 103.622 219.086 103.394 219.218C103.166 219.338 102.974 219.47 102.818 219.614C102.662 219.746 102.542 219.848 102.458 219.92L101.63 218.732C101.738 218.612 101.9 218.468 102.116 218.3C102.332 218.12 102.59 217.952 102.89 217.796C103.19 217.64 103.526 217.508 103.898 217.4C104.27 217.292 104.672 217.238 105.104 217.238C106.412 217.238 107.39 217.544 108.038 218.156C108.698 218.756 109.028 219.608 109.028 220.712ZM111.682 223.754C111.682 221.666 112.048 220.058 112.78 218.93C113.524 217.802 114.55 217.238 115.858 217.238C117.166 217.238 118.186 217.802 118.918 218.93C119.662 220.058 120.034 221.666 120.034 223.754C120.034 225.842 119.662 227.45 118.918 228.578C118.186 229.706 117.166 230.27 115.858 230.27C114.55 230.27 113.524 229.706 112.78 228.578C112.048 227.45 111.682 225.842 111.682 223.754ZM118.27 223.754C118.27 223.07 118.228 222.422 118.144 221.81C118.072 221.198 117.94 220.664 117.748 220.208C117.568 219.752 117.322 219.392 117.01 219.128C116.698 218.852 116.314 218.714 115.858 218.714C115.402 218.714 115.018 218.852 114.706 219.128C114.394 219.392 114.142 219.752 113.95 220.208C113.77 220.664 113.638 221.198 113.554 221.81C113.482 222.422 113.446 223.07 113.446 223.754C113.446 224.438 113.482 225.086 113.554 225.698C113.638 226.31 113.77 226.844 113.95 227.3C114.142 227.756 114.394 228.122 114.706 228.398C115.018 228.662 115.402 228.794 115.858 228.794C116.314 228.794 116.698 228.662 117.01 228.398C117.322 228.122 117.568 227.756 117.748 227.3C117.94 226.844 118.072 226.31 118.144 225.698C118.228 225.086 118.27 224.438 118.27 223.754ZM129.348 220.712C129.348 221.144 129.258 221.564 129.078 221.972C128.91 222.368 128.682 222.764 128.394 223.16C128.106 223.544 127.782 223.928 127.422 224.312C127.062 224.684 126.702 225.05 126.342 225.41C126.138 225.614 125.898 225.854 125.622 226.13C125.358 226.406 125.106 226.694 124.866 226.994C124.626 227.294 124.422 227.582 124.254 227.858C124.098 228.134 124.02 228.374 124.02 228.578H129.762V230H122.202C122.19 229.928 122.184 229.856 122.184 229.784C122.184 229.712 122.184 229.646 122.184 229.586C122.184 229.022 122.274 228.5 122.454 228.02C122.646 227.528 122.892 227.066 123.192 226.634C123.492 226.202 123.828 225.794 124.2 225.41C124.572 225.026 124.938 224.654 125.298 224.294C125.598 224.006 125.88 223.724 126.144 223.448C126.42 223.16 126.66 222.878 126.864 222.602C127.08 222.314 127.248 222.02 127.368 221.72C127.5 221.42 127.566 221.102 127.566 220.766C127.566 220.406 127.506 220.1 127.386 219.848C127.278 219.596 127.128 219.386 126.936 219.218C126.744 219.05 126.516 218.93 126.252 218.858C126 218.774 125.73 218.732 125.442 218.732C125.094 218.732 124.776 218.78 124.488 218.876C124.2 218.972 123.942 219.086 123.714 219.218C123.486 219.338 123.294 219.47 123.138 219.614C122.982 219.746 122.862 219.848 122.778 219.92L121.95 218.732C122.058 218.612 122.22 218.468 122.436 218.3C122.652 218.12 122.91 217.952 123.21 217.796C123.51 217.64 123.846 217.508 124.218 217.4C124.59 217.292 124.992 217.238 125.424 217.238C126.732 217.238 127.71 217.544 128.358 218.156C129.018 218.756 129.348 219.608 129.348 220.712ZM132.777 220.1C133.461 219.836 134.127 219.5 134.775 219.092C135.423 218.672 136.017 218.15 136.557 217.526H137.745V230H136.071V219.848C135.927 219.98 135.747 220.118 135.531 220.262C135.327 220.406 135.099 220.544 134.847 220.676C134.607 220.808 134.349 220.934 134.073 221.054C133.809 221.174 133.551 221.276 133.299 221.36L132.777 220.1Z" fill="#FF8761"/>
<defs>
<clipPath id="clip0_229_7100">
<rect width="242.135" height="255.636" fill="white" transform="translate(0.62207)"/>
</clipPath>
</defs>
</svg>
