<svg width="80" height="55" viewBox="0 0 80 55" fill="none" xmlns="http://www.w3.org/2000/svg">
<path fill-rule="evenodd" clip-rule="evenodd" d="M35.6756 0H17.8378V17.8378H0V35.6756H17.8378V55H35.6756V35.6756H35.6757V17.8378H35.6756V0ZM35.6756 17.8378H17.8378V35.6756H35.6756V17.8378Z" fill="#FF8761"/>
<path d="M72.3324 35.7054C72.1603 35.7054 72.0821 35.5802 72.1447 35.4237L73.631 31.7001L70.3298 24.2684C70.2672 24.0963 70.3455 23.9868 70.5332 23.9868H73.0365C73.1617 23.9868 73.2555 24.0494 73.3181 24.1746L75.0391 28.571L76.7601 24.1746C76.8227 24.0494 76.9166 23.9868 77.0574 23.9868H79.3417C79.5138 23.9868 79.6076 24.0963 79.5294 24.2684L74.9296 35.5176C74.8827 35.6428 74.7732 35.7054 74.648 35.7054H72.3324Z" fill="#1D5292"/>
<path d="M61.4281 35.7053C61.2716 35.7053 61.1777 35.6114 61.1777 35.455V24.2215C61.1777 24.0807 61.2716 23.9868 61.4281 23.9868H63.3838C63.5402 23.9868 63.6497 24.065 63.6497 24.2215L63.681 24.9568C64.2756 24.2371 65.1204 23.8303 66.1687 23.8303C68.4842 23.8303 70.0331 25.5513 70.0331 28.1329C70.0331 30.7144 68.4842 32.451 66.1687 32.451C65.2925 32.451 64.5572 32.1694 63.9939 31.6531V35.455C63.9939 35.6114 63.9001 35.7053 63.7436 35.7053H61.4281ZM65.4803 29.979C66.4972 29.979 67.1856 29.2124 67.1856 28.1329C67.1856 27.0533 66.4972 26.3023 65.4803 26.3023C64.4633 26.3023 63.7749 27.0533 63.7749 28.1329C63.7749 29.2124 64.4633 29.979 65.4803 29.979Z" fill="#1D5292"/>
<path d="M51.1761 35.7053C51.0197 35.7053 50.9258 35.6114 50.9258 35.455V24.2215C50.9258 24.0807 51.0197 23.9868 51.1761 23.9868H53.1318C53.2883 23.9868 53.3978 24.065 53.3978 24.2215L53.4291 24.9568C54.0236 24.2371 54.8685 23.8303 55.9167 23.8303C58.2323 23.8303 59.7812 25.5513 59.7812 28.1329C59.7812 30.7144 58.2323 32.451 55.9167 32.451C55.0406 32.451 54.3052 32.1694 53.742 31.6531V35.455C53.742 35.6114 53.6481 35.7053 53.4917 35.7053H51.1761ZM55.2283 29.979C56.2453 29.979 56.9337 29.2124 56.9337 28.1329C56.9337 27.0533 56.2453 26.3023 55.2283 26.3023C54.2114 26.3023 53.5229 27.0533 53.5229 28.1329C53.5229 29.2124 54.2114 29.979 55.2283 29.979Z" fill="#1D5292"/>
<path d="M46.1261 32.451C44.2486 32.451 42.9344 31.6844 42.4025 30.2763C42.3399 30.1355 42.4181 30.026 42.5746 29.9947L44.452 29.6035C44.5928 29.5723 44.6867 29.6192 44.7649 29.7444C45.0466 30.1981 45.5003 30.4015 46.0322 30.4015C46.5173 30.4015 46.8302 30.2607 46.8302 29.9634C46.8302 29.7287 46.6424 29.5566 45.954 29.3689L45.6411 29.2906C43.482 28.7274 42.731 27.6635 42.731 26.3962C42.731 24.8942 44.1235 23.8303 46.1418 23.8303C47.9097 23.8303 49.0518 24.4874 49.5681 25.9112C49.6307 26.0676 49.5681 26.1772 49.396 26.2085L47.5812 26.6309C47.4403 26.6622 47.3465 26.5996 47.2839 26.4744C47.0492 26.0833 46.7519 25.8799 46.2513 25.8799C45.8758 25.8799 45.5942 26.0051 45.5942 26.3023C45.5942 26.5839 45.8914 26.7717 46.5173 26.9281L46.8145 27.0064C49.0049 27.554 49.709 28.3988 49.709 29.8226C49.709 31.4184 48.207 32.451 46.1261 32.451Z" fill="#1D5292"/>
<path d="M37.0743 32.451C34.3051 32.451 32.5215 30.6831 32.5215 28.1329C32.5215 25.5983 34.3051 23.8303 37.0743 23.8303C39.8436 23.8303 41.6272 25.5983 41.6272 28.1329C41.6272 30.6831 39.8436 32.451 37.0743 32.451ZM37.0743 29.979C38.0913 29.979 38.7797 29.2124 38.7797 28.1329C38.7797 27.0533 38.0913 26.3023 37.0743 26.3023C36.0574 26.3023 35.369 27.0533 35.369 28.1329C35.369 29.2124 36.0574 29.979 37.0743 29.979Z" fill="#1D5292"/>
<path d="M21.0687 32.7026C20.9073 32.7026 20.8105 32.6054 20.8105 32.4434V21.07C20.8105 20.9079 20.9073 20.8107 21.0687 20.8107H23.5692C23.7305 20.8107 23.8273 20.9079 23.8273 21.07V25.2013H28.1992V21.07C28.1992 20.9079 28.296 20.8107 28.4573 20.8107H30.9578C31.103 20.8107 31.216 20.9079 31.216 21.07V32.4434C31.216 32.6054 31.103 32.7026 30.9578 32.7026H28.4573C28.296 32.7026 28.1992 32.6054 28.1992 32.4434V28.0528H23.8273V32.4434C23.8273 32.6054 23.7305 32.7026 23.5692 32.7026H21.0687Z" fill="#1D5292"/>
</svg>
