<svg width="34" height="34" viewBox="0 0 34 34" fill="none" xmlns="http://www.w3.org/2000/svg">
<g clip-path="url(#clip0_277_472)">
<path d="M16.623 0.833252H17.998V4.27067H16.623V0.833252Z" fill="#FF8761"/>
<path d="M28.998 13.896H32.4355V15.2709H28.998V13.896Z" fill="#FF8761"/>
<path d="M2.1875 13.896H5.62492V15.2709H2.1875V13.896Z" fill="#FF8761"/>
<path d="M20.0624 28.3301L20.0632 29.705L14.5633 29.7078L14.5625 28.3328L20.0624 28.3301Z" fill="#FF8761"/>
<path d="M7.06999 4.05737L9.96258 6.94971L8.99024 7.92204L6.09766 5.02946L7.06999 4.05737Z" fill="#FF8761"/>
<path d="M27.5527 4.05688L28.5248 5.02922L25.6325 7.92156L24.6602 6.94947L27.5527 4.05688Z" fill="#FF8761"/>
<path d="M18.6874 33.8332H15.9373C14.8031 33.8332 13.8748 32.9051 13.8748 31.7707V29.2356L8.95927 22.0083C7.67877 20.255 7 18.1582 7 15.9583C7 10.269 11.6233 5.64575 17.3125 5.64575C23.0015 5.64575 27.625 10.269 27.625 15.9583C27.625 18.1497 26.946 20.2464 25.6569 22.0168L20.7499 29.227V31.7707C20.7499 32.9051 19.8219 33.8332 18.6874 33.8332ZM17.3125 7.02067C12.3881 7.02067 8.37492 11.0339 8.37492 15.9583C8.37492 17.8659 8.96783 19.6792 10.0852 21.2089L15.25 28.8058V31.7707C15.25 32.1488 15.5592 32.4582 15.9373 32.4582H18.6874C19.0656 32.4582 19.375 32.1488 19.375 31.7707V28.8058L24.5312 21.226C25.6569 19.6792 26.2498 17.8574 26.2498 15.9583C26.2498 11.0339 22.2366 7.02067 17.3125 7.02067Z" fill="#FF8761"/>
</g>
<defs>
<clipPath id="clip0_277_472">
<rect width="33" height="33" fill="white" transform="translate(0.833984 0.833252)"/>
</clipPath>
</defs>
</svg>
