<svg width="33" height="33" viewBox="0 0 33 33" fill="none" xmlns="http://www.w3.org/2000/svg">
<g clip-path="url(#clip0_277_521)">
<path d="M30.7733 32.9997H2.27344V32.2499C2.27344 27.1124 6.55783 22.7154 12.7733 21.3935V19.1624H14.2733V22.6404L13.6547 22.7531C8.25467 23.6998 4.24219 27.3187 3.81097 31.4998H29.2358C28.8046 27.3187 24.8015 23.6998 19.3921 22.7434L18.7733 22.6311V19.1528H20.2734V21.3842C26.489 22.7061 30.7733 27.1028 30.7733 32.2406V32.9997Z" fill="#FF8761"/>
<path d="M16.5233 21.0001C12.3891 21.0001 9.02344 15.9563 9.02344 9.75009V9C9.02344 4.0405 12.3891 0 16.5233 0C20.6577 0 24.0233 4.0405 24.0233 9V9.75009C24.0233 15.9563 20.6577 21.0001 16.5233 21.0001ZM16.5233 1.49991C13.2139 1.49991 10.5233 4.86557 10.5233 9V9.75009C10.5233 15.1219 13.2139 19.4999 16.5233 19.4999C19.8326 19.4999 22.5234 15.1219 22.5234 9.75009V9C22.5234 4.86557 19.8326 1.49991 16.5233 1.49991Z" fill="#FF8761"/>
<path d="M11.3203 3H21.7359V4.49991H11.3203V3Z" fill="#FF8761"/>
<path d="M23.1156 10.0029L9.95312 7.15305L10.2717 5.68115L23.4344 8.54034L23.1156 10.0029Z" fill="#FF8761"/>
</g>
<defs>
<clipPath id="clip0_277_521">
<rect width="33" height="33" fill="white"/>
</clipPath>
</defs>
</svg>
