<svg width="33" height="33" viewBox="0 0 33 33" fill="none" xmlns="http://www.w3.org/2000/svg">
<g clip-path="url(#clip0_277_461)">
<path d="M16.3236 8.16667C14.0693 8.16667 12.2402 6.33759 12.2402 4.08334C12.2402 1.82908 14.0693 0 16.3236 0C18.5778 0 20.4069 1.82908 20.4069 4.08334C20.4069 6.33759 18.5778 8.16667 16.3236 8.16667ZM16.3236 1.36103C14.8265 1.36103 13.6013 2.58623 13.6013 4.08334C13.6013 5.58044 14.8265 6.80564 16.3236 6.80564C17.8207 6.80564 19.0459 5.58044 19.0459 4.08334C19.0459 2.58623 17.8207 1.36103 16.3236 1.36103Z" fill="#FF8761"/>
<path d="M17.6346 32.6669H15.0057C13.9253 32.6669 13.0917 31.8843 12.9217 30.7187L12.2156 25.8612H9.56138C8.56597 25.8612 7.70688 25.1809 7.51124 24.2535C7.41753 23.8196 7.46862 23.3859 7.63884 22.9944L13.0747 10.7701C13.3895 10.0214 14.1297 9.53638 14.9549 9.53638H17.677C18.5021 9.53638 19.2339 10.0298 19.5571 10.787L24.9845 23.0031C25.1632 23.3944 25.2056 23.8368 25.1121 24.262C24.9165 25.1978 24.0572 25.8697 23.062 25.8697H20.4077L19.7017 30.7274C19.5571 31.8843 18.7147 32.6669 17.6346 32.6669ZM14.9634 10.8892C14.691 10.8892 14.4445 11.0507 14.3338 11.3059L8.89794 23.5474C8.83837 23.6835 8.82117 23.8281 8.85532 23.9813C8.91488 24.2792 9.22966 24.5087 9.57833 24.5087H13.4065L14.2743 30.5402C14.3423 31.0335 14.6145 31.3143 15.0057 31.3143H17.6346C18.0344 31.3143 18.298 31.0335 18.3661 30.5402L19.2339 24.5087H23.062C23.4107 24.5087 23.717 24.2792 23.785 23.9813C23.8189 23.8281 23.802 23.6835 23.7424 23.5559L18.315 11.3144C18.2043 11.0507 17.9578 10.8892 17.6854 10.8892H14.9634Z" fill="#FF8761"/>
</g>
<defs>
<clipPath id="clip0_277_461">
<rect width="32.6667" height="32.6667" fill="white"/>
</clipPath>
</defs>
</svg>
